SplineFontDB: 3.2
FontName: NKL_STV
FullName: NKL STV
FamilyName: NKL STV
Weight: Book
Copyright: Copyright (c) 2013 by Mercuy. All rights reserved.\nModified for Jawi script support. 30.8.2021
Version: 2.727 Jawi
ItalicAngle: 0
UnderlinePosition: -80
UnderlineWidth: 40
Ascent: 800
Descent: 200
InvalidEm: 0
sfntRevision: 0x00010041
LayerCount: 2
Layer: 0 1 "Back" 1
Layer: 1 1 "Fore" 0
XUID: [1021 250 -1551560589 8539]
StyleMap: 0x0040
FSType: 0
OS2Version: 3
OS2_WeightWidthSlopeOnly: 0
OS2_UseTypoMetrics: 0
CreationTime: 1375113300
ModificationTime: 1630335993
PfmFamily: 81
TTFWeight: 400
TTFWidth: 5
LineGap: 100
VLineGap: 0
Panose: 0 0 0 0 0 0 0 0 0 0
OS2TypoAscent: 650
OS2TypoAOffset: 0
OS2TypoDescent: -250
OS2TypoDOffset: 0
OS2TypoLinegap: 200
OS2WinAscent: 1000
OS2WinAOffset: 0
OS2WinDescent: 0
OS2WinDOffset: 0
HheadAscent: 750
HheadAOffset: 0
HheadDescent: -250
HheadDOffset: 0
OS2SubXSize: 650
OS2SubYSize: 600
OS2SubXOff: 0
OS2SubYOff: 75
OS2SupXSize: 650
OS2SupYSize: 600
OS2SupXOff: 0
OS2SupYOff: 350
OS2StrikeYSize: 40
OS2StrikeYPos: 249
OS2Vendor: 'qRAM'
OS2CodePages: 00000040.00000000
OS2UnicodeRanges: 00002001.80000000.00000008.00000000
Lookup: 1 0 0 "'aalt' Access All Alternates lookup 0" { "'aalt' Access All Alternates lookup 0 subtable"  } ['aalt' ('arab' <'dflt' > 'latn' <'dflt' > ) ]
Lookup: 3 0 0 "'aalt' Access All Alternates lookup 1" { "'aalt' Access All Alternates lookup 1 subtable"  } ['aalt' ('arab' <'dflt' > 'latn' <'dflt' > ) ]
Lookup: 1 1 0 "'isol' Isolated Forms in Arabic lookup 2" { "'isol' Isolated Forms in Arabic lookup 2 subtable"  } ['isol' ('arab' <'dflt' > ) ]
Lookup: 1 1 0 "'init' Initial Forms in Arabic lookup 3" { "'init' Initial Forms in Arabic lookup 3 subtable"  } ['init' ('arab' <'dflt' > ) ]
Lookup: 1 1 0 "'medi' Medial Forms in Arabic lookup 4" { "'medi' Medial Forms in Arabic lookup 4 subtable"  } ['medi' ('arab' <'dflt' > ) ]

StartChar: exclam
Encoding: 4 33 4
Width: 288
GlyphClass: 2
Flags: W
LayerCount: 2
Fore
SplineSet
201 633 m 1,0,-1
 188 176 l 1,1,-1
 117 150 l 1,2,-1
 102 633 l 1,3,-1
 201 633 l 1,0,-1
207 47 m 0,4,5
 207 23 207 23 191 7.5 c 128,-1,6
 175 -8 175 -8 152 -8 c 0,7,8
 128 -8 128 -8 111.5 7.5 c 128,-1,9
 95 23 95 23 95 47 c 0,10,11
 95 69 95 69 111.5 85 c 128,-1,12
 128 101 128 101 152 101 c 0,13,14
 175 101 175 101 191 85 c 128,-1,15
 207 69 207 69 207 47 c 0,4,5
EndSplineSet
EndChar

StartChar: quotedbl
Encoding: 5 34 5
Width: 329
GlyphClass: 2
Flags: W
LayerCount: 2
Fore
SplineSet
284 629 m 1,0,-1
 271 419 l 1,1,-1
 207 419 l 1,2,-1
 194 629 l 1,3,-1
 284 629 l 1,0,-1
134 629 m 1,4,-1
 122 419 l 1,5,-1
 57 419 l 1,6,-1
 45 629 l 1,7,-1
 134 629 l 1,4,-1
EndSplineSet
EndChar

StartChar: numbersign
Encoding: 6 35 6
Width: 519
GlyphClass: 2
Flags: W
LayerCount: 2
Fore
SplineSet
490 383 m 1,0,-1
 403 383 l 1,1,2
 401 358 401 358 395 307 c 128,-1,3
 389 256 389 256 386 229 c 1,4,-1
 468 229 l 1,5,-1
 468 170 l 1,6,-1
 380 170 l 1,7,-1
 362 0 l 1,8,-1
 294 0 l 1,9,-1
 311 170 l 1,10,-1
 178 170 l 1,11,-1
 160 0 l 1,12,-1
 92 0 l 1,13,-1
 110 170 l 1,14,-1
 28 170 l 1,15,-1
 28 229 l 1,16,-1
 115 229 l 1,17,-1
 133 383 l 1,18,-1
 50 383 l 1,19,-1
 50 443 l 1,20,-1
 137 443 l 1,21,-1
 155 607 l 1,22,-1
 224 607 l 1,23,-1
 206 443 l 1,24,-1
 340 443 l 1,25,-1
 358 607 l 1,26,-1
 427 607 l 1,27,-1
 409 443 l 1,28,-1
 490 443 l 1,29,-1
 490 383 l 1,0,-1
334 383 m 1,30,-1
 202 383 l 1,31,32
 200 358 200 358 194 307 c 128,-1,33
 188 256 188 256 185 229 c 1,34,-1
 317 229 l 1,35,36
 320 256 320 256 326 307 c 128,-1,37
 332 358 332 358 334 383 c 1,30,-1
EndSplineSet
EndChar

StartChar: quotesingle
Encoding: 7 39 7
Width: 179
GlyphClass: 2
Flags: W
LayerCount: 2
Fore
SplineSet
133 629 m 1,0,-1
 121 419 l 1,1,-1
 57 419 l 1,2,-1
 45 629 l 1,3,-1
 133 629 l 1,0,-1
EndSplineSet
EndChar

StartChar: parenleft
Encoding: 8 40 8
Width: 273
GlyphClass: 2
Flags: W
LayerCount: 2
Fore
SplineSet
257 -156 m 1,0,-1
 192 -188 l 1,1,2
 61 23 61 23 61 256 c 0,3,4
 61 493 61 493 193 703 c 1,5,-1
 256 674 l 1,6,7
 144 480 144 480 144 260 c 0,8,9
 144 31 144 31 257 -156 c 1,0,-1
EndSplineSet
EndChar

StartChar: parenright
Encoding: 9 41 9
Width: 273
GlyphClass: 2
Flags: W
LayerCount: 2
Fore
SplineSet
215 260 m 0,0,1
 215 16 215 16 83 -188 c 1,2,-1
 20 -157 l 1,3,4
 133 29 133 29 133 255 c 128,-1,5
 133 481 133 481 19 673 c 1,6,-1
 85 703 l 1,7,8
 215 494 215 494 215 260 c 0,0,1
EndSplineSet
EndChar

StartChar: asterisk
Encoding: 10 42 10
Width: 337
GlyphClass: 2
Flags: W
LayerCount: 2
Fore
SplineSet
299 481 m 1,0,-1
 266 425 l 1,1,-1
 186 484 l 1,2,-1
 196 385 l 1,3,-1
 133 385 l 1,4,-1
 143 483 l 1,5,-1
 63 425 l 1,6,-1
 31 481 l 1,7,-1
 121 521 l 1,8,-1
 31 560 l 1,9,-1
 64 617 l 1,10,-1
 144 558 l 1,11,-1
 134 657 l 1,12,-1
 197 657 l 1,13,-1
 186 559 l 1,14,-1
 267 617 l 1,15,-1
 299 560 l 1,16,-1
 209 522 l 1,17,-1
 299 481 l 1,0,-1
EndSplineSet
EndChar

StartChar: plus
Encoding: 11 43 11
Width: 495
GlyphClass: 2
Flags: W
LayerCount: 2
Fore
SplineSet
457 232 m 1,0,-1
 286 232 l 1,1,-1
 286 53 l 1,2,-1
 206 53 l 1,3,-1
 206 232 l 1,4,-1
 37 232 l 1,5,-1
 37 303 l 1,6,-1
 206 303 l 1,7,-1
 206 482 l 1,8,-1
 286 482 l 1,9,-1
 286 303 l 1,10,-1
 457 303 l 1,11,-1
 457 232 l 1,0,-1
EndSplineSet
EndChar

StartChar: comma
Encoding: 12 44 12
Width: 205
GlyphClass: 2
Flags: W
LayerCount: 2
Fore
SplineSet
101 105 m 0,0,1
 125 105 125 105 141 86 c 128,-1,2
 157 67 157 67 157 36 c 0,3,4
 157 -46 157 -46 58 -138 c 1,5,-1
 21 -105 l 1,6,7
 72 -51 72 -51 72 -12 c 0,8,9
 72 8 72 8 60 23 c 0,10,11
 48 39 48 39 48 54 c 0,12,13
 48 74 48 74 63.5 89.5 c 128,-1,14
 79 105 79 105 101 105 c 0,0,1
EndSplineSet
EndChar

StartChar: hyphen
Encoding: 13 45 13
Width: 297
GlyphClass: 2
Flags: W
LayerCount: 2
Fore
SplineSet
256 224 m 1,0,-1
 40 224 l 1,1,-1
 40 294 l 1,2,-1
 256 294 l 1,3,-1
 256 224 l 1,0,-1
EndSplineSet
EndChar

StartChar: period
Encoding: 14 46 14
Width: 205
GlyphClass: 2
Flags: W
LayerCount: 2
Fore
SplineSet
159 50 m 0,0,1
 159 25 159 25 142.5 8.5 c 128,-1,2
 126 -8 126 -8 103 -8 c 0,3,4
 78 -8 78 -8 61.5 8.5 c 128,-1,5
 45 25 45 25 45 50 c 0,6,7
 45 73 45 73 61.5 89.5 c 128,-1,8
 78 106 78 106 103 106 c 0,9,10
 126 106 126 106 142.5 89.5 c 128,-1,11
 159 73 159 73 159 50 c 0,0,1
EndSplineSet
EndChar

StartChar: slash
Encoding: 15 47 15
Width: 394
GlyphClass: 2
Flags: W
LayerCount: 2
Fore
SplineSet
396 681 m 1,0,-1
 82 -144 l 1,1,-1
 1 -144 l 1,2,-1
 315 681 l 1,3,-1
 396 681 l 1,0,-1
EndSplineSet
EndChar

StartChar: zero
Encoding: 16 48 16
Width: 526
GlyphClass: 2
Flags: W
LayerCount: 2
Fore
SplineSet
483 310 m 0,0,1
 483 155 483 155 418.5 73.5 c 128,-1,2
 354 -8 354 -8 255 -8 c 0,3,4
 42 -8 42 -8 42 298 c 0,5,6
 42 453 42 453 105.5 534 c 128,-1,7
 169 615 169 615 269 615 c 0,8,9
 483 615 483 615 483 310 c 0,0,1
393 302 m 128,-1,11
 393 426 393 426 361 484.5 c 128,-1,12
 329 543 329 543 264 543 c 0,13,14
 132 543 132 543 132 305 c 0,15,16
 132 64 132 64 262 64 c 0,17,18
 322 64 322 64 357.5 121 c 128,-1,10
 393 178 393 178 393 302 c 128,-1,11
EndSplineSet
EndChar

StartChar: one
Encoding: 17 49 17
Width: 317
GlyphClass: 2
Flags: W
LayerCount: 2
Fore
SplineSet
236 0 m 1,0,-1
 148 0 l 1,1,-1
 148 521 l 1,2,-1
 35 476 l 1,3,-1
 21 555 l 1,4,-1
 167 607 l 1,5,-1
 236 607 l 1,6,-1
 236 0 l 1,0,-1
EndSplineSet
EndChar

StartChar: two
Encoding: 18 50 18
Width: 451
GlyphClass: 2
Flags: W
LayerCount: 2
Fore
SplineSet
408 0 m 1,0,-1
 52 0 l 1,1,-1
 52 69 l 1,2,-1
 167 200 l 2,3,4
 239 282 239 282 266.5 335.5 c 128,-1,5
 294 389 294 389 294 438 c 0,6,7
 294 483 294 483 267.5 511.5 c 128,-1,8
 241 540 241 540 191 540 c 0,9,10
 134 540 134 540 71 503 c 1,11,-1
 58 579 l 1,12,13
 132 616 132 616 211 616 c 0,14,15
 294 616 294 616 339.5 569.5 c 128,-1,16
 385 523 385 523 385 451 c 0,17,18
 385 389 385 389 351 323.5 c 128,-1,19
 317 258 317 258 239 168 c 2,20,-1
 162 77 l 1,21,22
 216 80 216 80 408 80 c 1,23,-1
 408 0 l 1,0,-1
EndSplineSet
EndChar

StartChar: three
Encoding: 19 51 19
Width: 440
GlyphClass: 2
Flags: W
LayerCount: 2
Fore
SplineSet
386 184 m 0,0,1
 386 100 386 100 320 46.5 c 128,-1,2
 254 -7 254 -7 150 -7 c 0,3,4
 84 -7 84 -7 50 3 c 1,5,-1
 59 80 l 1,6,7
 95 67 95 67 155 67 c 0,8,9
 219 67 219 67 257.5 99 c 128,-1,10
 296 131 296 131 296 179 c 128,-1,11
 296 227 296 227 256.5 254.5 c 128,-1,12
 217 282 217 282 140 282 c 0,13,14
 99 282 99 282 83 279 c 1,15,-1
 83 348 l 1,16,17
 273 344 273 344 273 458 c 0,18,19
 273 499 273 499 248 521 c 128,-1,20
 223 543 223 543 176 543 c 0,21,22
 117 543 117 543 69 516 c 1,23,-1
 62 589 l 1,24,25
 124 616 124 616 193 616 c 0,26,27
 276 616 276 616 319 576 c 128,-1,28
 362 536 362 536 362 473 c 0,29,30
 362 423 362 423 336.5 385.5 c 128,-1,31
 311 348 311 348 265 329 c 1,32,33
 319 314 319 314 352.5 275 c 128,-1,34
 386 236 386 236 386 184 c 0,0,1
EndSplineSet
EndChar

StartChar: four
Encoding: 20 52 20
Width: 490
GlyphClass: 2
Flags: W
LayerCount: 2
Fore
SplineSet
472 141 m 1,0,-1
 370 141 l 1,1,-1
 370 0 l 1,2,-1
 287 0 l 1,3,-1
 287 141 l 1,4,-1
 20 141 l 1,5,-1
 14 207 l 1,6,-1
 259 607 l 1,7,-1
 370 607 l 1,8,-1
 370 219 l 1,9,-1
 472 219 l 1,10,-1
 472 141 l 1,0,-1
288 218 m 1,11,-1
 287 522 l 1,12,-1
 98 217 l 1,13,14
 111 218 111 218 199 218 c 2,15,-1
 288 218 l 1,11,-1
EndSplineSet
EndChar

StartChar: five
Encoding: 21 53 21
Width: 416
GlyphClass: 2
Flags: W
LayerCount: 2
Fore
SplineSet
383 202 m 0,0,1
 383 108 383 108 315 50.5 c 128,-1,2
 247 -7 247 -7 140 -7 c 0,3,4
 89 -7 89 -7 48 2 c 1,5,-1
 57 80 l 1,6,7
 94 68 94 68 147 68 c 0,8,9
 215 68 215 68 255 101.5 c 128,-1,10
 295 135 295 135 295 192 c 0,11,12
 295 247 295 247 253.5 274 c 128,-1,13
 212 301 212 301 122 301 c 2,14,-1
 113 301 l 2,15,16
 83 301 83 301 69 299 c 1,17,-1
 69 607 l 1,18,-1
 351 607 l 1,19,-1
 351 527 l 1,20,-1
 150 527 l 1,21,-1
 150 372 l 1,22,23
 267 373 267 373 325 328.5 c 128,-1,24
 383 284 383 284 383 202 c 0,0,1
EndSplineSet
EndChar

StartChar: six
Encoding: 22 54 22
Width: 518
GlyphClass: 2
Flags: W
LayerCount: 2
Fore
SplineSet
475 203 m 0,0,1
 475 111 475 111 416 51 c 128,-1,2
 357 -9 357 -9 261 -9 c 0,3,4
 202 -9 202 -9 159.5 15.5 c 128,-1,5
 117 40 117 40 96 81 c 128,-1,6
 75 122 75 122 66 164 c 128,-1,7
 57 206 57 206 57 253 c 0,8,9
 57 432 57 432 143 523.5 c 128,-1,10
 229 615 229 615 364 615 c 0,11,12
 404 615 404 615 420 611 c 1,13,-1
 420 536 l 1,14,15
 401 540 401 540 360 540 c 0,16,17
 273 540 273 540 222.5 495.5 c 128,-1,18
 172 451 172 451 154 356 c 1,19,-1
 150 327 l 1,20,21
 197 384 197 384 291 384 c 0,22,23
 375 384 375 384 425 334.5 c 128,-1,24
 475 285 475 285 475 203 c 0,0,1
387 191 m 0,25,26
 387 248 387 248 357 281 c 128,-1,27
 327 314 327 314 271 314 c 0,28,29
 218 314 218 314 184.5 280 c 128,-1,30
 151 246 151 246 151 199 c 0,31,32
 151 137 151 137 182 100.5 c 128,-1,33
 213 64 213 64 268 64 c 0,34,35
 322 64 322 64 354.5 98 c 128,-1,36
 387 132 387 132 387 191 c 0,25,26
EndSplineSet
EndChar

StartChar: seven
Encoding: 23 55 23
Width: 409
GlyphClass: 2
Flags: W
LayerCount: 2
Fore
SplineSet
383 607 m 1,0,-1
 383 535 l 1,1,2
 331 423 331 423 282 275.5 c 128,-1,3
 233 128 233 128 205 0 c 1,4,-1
 109 0 l 1,5,6
 143 136 143 136 194 284 c 128,-1,7
 245 432 245 432 288 527 c 1,8,9
 286 527 286 527 253 526.5 c 128,-1,10
 220 526 220 526 194 526 c 0,11,12
 136 525 136 525 21 525 c 1,13,-1
 21 607 l 1,14,-1
 383 607 l 1,0,-1
EndSplineSet
EndChar

StartChar: eight
Encoding: 24 56 24
Width: 496
GlyphClass: 2
Flags: W
LayerCount: 2
Fore
SplineSet
444 157 m 0,0,1
 444 80 444 80 385 35.5 c 128,-1,2
 326 -9 326 -9 237 -9 c 128,-1,3
 148 -9 148 -9 98 33.5 c 128,-1,4
 48 76 48 76 48 144 c 0,5,6
 48 196 48 196 80 234 c 128,-1,7
 112 272 112 272 169 309 c 1,8,9
 58 372 58 372 58 458 c 0,10,11
 58 530 58 530 112 574.5 c 128,-1,12
 166 619 166 619 255 619 c 0,13,14
 336 619 336 619 383.5 578.5 c 128,-1,15
 431 538 431 538 431 474 c 0,16,17
 431 426 431 426 401 390 c 128,-1,18
 371 354 371 354 318 319 c 1,19,20
 379 283 379 283 411.5 245.5 c 128,-1,21
 444 208 444 208 444 157 c 0,0,1
343 467 m 0,22,23
 343 504 343 504 318.5 526.5 c 128,-1,24
 294 549 294 549 246 549 c 0,25,26
 200 549 200 549 172.5 527 c 128,-1,27
 145 505 145 505 145 467 c 0,28,29
 145 413 145 413 247 356 c 1,30,31
 343 414 343 414 343 467 c 0,22,23
354 149 m 0,32,33
 354 187 354 187 323 215.5 c 128,-1,34
 292 244 292 244 237 272 c 1,35,36
 190 243 190 243 164 215 c 128,-1,37
 138 187 138 187 138 152 c 0,38,39
 138 111 138 111 167 87 c 128,-1,40
 196 63 196 63 246 63 c 0,41,42
 293 63 293 63 323.5 85 c 128,-1,43
 354 107 354 107 354 149 c 0,32,33
EndSplineSet
EndChar

StartChar: nine
Encoding: 25 57 25
Width: 524
GlyphClass: 2
Flags: W
LayerCount: 2
Fore
SplineSet
464 355 m 0,0,1
 464 176 464 176 382 84 c 128,-1,2
 300 -8 300 -8 157 -8 c 0,3,4
 115 -8 115 -8 82 -3 c 1,5,-1
 82 77 l 1,6,7
 116 67 116 67 166 67 c 0,8,9
 329 67 329 67 362 245 c 0,10,11
 362 246 362 246 363.5 251 c 128,-1,12
 365 256 365 256 366 260.5 c 128,-1,13
 367 265 367 265 367 269 c 0,14,15
 368 274 368 274 368 277 c 1,16,17
 323 220 323 220 230 220 c 0,18,19
 146 220 146 220 97 270 c 128,-1,20
 48 320 48 320 48 403 c 0,21,22
 48 494 48 494 106.5 555 c 128,-1,23
 165 616 165 616 259 616 c 0,24,25
 308 616 308 616 345.5 599 c 128,-1,26
 383 582 383 582 405 556 c 128,-1,27
 427 530 427 530 440.5 494 c 128,-1,28
 454 458 454 458 459 424.5 c 128,-1,29
 464 391 464 391 464 355 c 0,0,1
369 408 m 0,30,31
 369 471 369 471 338.5 507 c 128,-1,32
 308 543 308 543 252 543 c 0,33,34
 201 543 201 543 168 508 c 128,-1,35
 135 473 135 473 135 416 c 0,36,37
 135 360 135 360 165 326.5 c 128,-1,38
 195 293 195 293 250 293 c 0,39,40
 303 293 303 293 336 327.5 c 128,-1,41
 369 362 369 362 369 408 c 0,30,31
EndSplineSet
EndChar

StartChar: colon
Encoding: 26 58 26
Width: 257
GlyphClass: 2
Flags: W
LayerCount: 2
Fore
SplineSet
199 311 m 0,0,1
 199 287 199 287 182.5 270.5 c 128,-1,2
 166 254 166 254 142 254 c 128,-1,3
 118 254 118 254 101 270.5 c 128,-1,4
 84 287 84 287 84 311 c 0,5,6
 84 336 84 336 101 352.5 c 128,-1,7
 118 369 118 369 142 369 c 128,-1,8
 166 369 166 369 182.5 352.5 c 128,-1,9
 199 336 199 336 199 311 c 0,0,1
199 50 m 0,10,11
 199 25 199 25 182.5 8.5 c 128,-1,12
 166 -8 166 -8 142 -8 c 128,-1,13
 118 -8 118 -8 101 8.5 c 128,-1,14
 84 25 84 25 84 50 c 0,15,16
 84 73 84 73 101 89.5 c 128,-1,17
 118 106 118 106 142 106 c 128,-1,18
 166 106 166 106 182.5 89.5 c 128,-1,19
 199 73 199 73 199 50 c 0,10,11
EndSplineSet
EndChar

StartChar: semicolon
Encoding: 27 59 27
Width: 257
GlyphClass: 2
Flags: W
LayerCount: 2
Fore
SplineSet
199 311 m 0,0,1
 199 287 199 287 182.5 270.5 c 128,-1,2
 166 254 166 254 142 254 c 128,-1,3
 118 254 118 254 101 270.5 c 128,-1,4
 84 287 84 287 84 311 c 0,5,6
 84 336 84 336 101 352.5 c 128,-1,7
 118 369 118 369 142 369 c 128,-1,8
 166 369 166 369 182.5 352.5 c 128,-1,9
 199 336 199 336 199 311 c 0,0,1
141 105 m 0,10,11
 165 105 165 105 181 86 c 128,-1,12
 197 67 197 67 197 36 c 0,13,14
 197 -46 197 -46 98 -138 c 1,15,-1
 62 -105 l 1,16,17
 113 -51 113 -51 113 -10 c 0,18,19
 113 8 113 8 101 23 c 0,20,21
 89 39 89 39 89 54 c 0,22,23
 89 74 89 74 104 89.5 c 128,-1,24
 119 105 119 105 141 105 c 0,10,11
EndSplineSet
EndChar

StartChar: less
Encoding: 28 60 28
Width: 495
GlyphClass: 2
Flags: W
LayerCount: 2
Fore
SplineSet
402 76 m 1,0,-1
 347 17 l 1,1,-1
 63 272 l 1,2,-1
 347 528 l 1,3,-1
 402 473 l 1,4,-1
 171 273 l 1,5,-1
 402 76 l 1,0,-1
EndSplineSet
EndChar

StartChar: equal
Encoding: 29 61 29
Width: 495
GlyphClass: 2
Flags: W
LayerCount: 2
Fore
SplineSet
445 308 m 1,0,-1
 48 308 l 1,1,-1
 48 380 l 1,2,-1
 445 380 l 1,3,-1
 445 308 l 1,0,-1
445 156 m 1,4,-1
 48 156 l 1,5,-1
 48 227 l 1,6,-1
 445 227 l 1,7,-1
 445 156 l 1,4,-1
EndSplineSet
EndChar

StartChar: greater
Encoding: 30 62 30
Width: 495
GlyphClass: 2
Flags: W
LayerCount: 2
Fore
SplineSet
430 273 m 1,0,-1
 146 17 l 1,1,-1
 91 72 l 1,2,-1
 323 272 l 1,3,-1
 91 470 l 1,4,-1
 146 528 l 1,5,-1
 430 273 l 1,0,-1
EndSplineSet
EndChar

StartChar: bracketleft
Encoding: 31 91 31
Width: 290
GlyphClass: 2
Flags: W
LayerCount: 2
Fore
SplineSet
257 -178 m 1,0,-1
 75 -178 l 1,1,-1
 75 693 l 1,2,-1
 257 693 l 1,3,-1
 257 628 l 1,4,-1
 155 628 l 1,5,-1
 155 -110 l 1,6,-1
 257 -110 l 1,7,-1
 257 -178 l 1,0,-1
EndSplineSet
EndChar

StartChar: backslash
Encoding: 32 92 32
Width: 398
GlyphClass: 2
Flags: W
LayerCount: 2
Fore
SplineSet
404 -144 m 1,0,-1
 322 -144 l 1,1,-1
 8 681 l 1,2,-1
 90 681 l 1,3,-1
 404 -144 l 1,0,-1
EndSplineSet
EndChar

StartChar: bracketright
Encoding: 33 93 33
Width: 290
GlyphClass: 2
Flags: W
LayerCount: 2
Fore
SplineSet
213 -178 m 1,0,-1
 32 -178 l 1,1,-1
 32 -110 l 1,2,-1
 135 -110 l 1,3,-1
 135 628 l 1,4,-1
 32 628 l 1,5,-1
 32 693 l 1,6,-1
 213 693 l 1,7,-1
 213 -178 l 1,0,-1
EndSplineSet
EndChar

StartChar: underscore
Encoding: 34 95 34
Width: 495
GlyphClass: 2
Flags: W
LayerCount: 2
Fore
SplineSet
495 -223 m 1,0,-1
 -1 -223 l 1,1,-1
 -1 -155 l 1,2,-1
 495 -155 l 1,3,-1
 495 -223 l 1,0,-1
EndSplineSet
EndChar

StartChar: grave
Encoding: 35 96 35
Width: 332
GlyphClass: 2
Flags: W
LayerCount: 2
Fore
SplineSet
237 544 m 1,0,-1
 190 507 l 1,1,-1
 72 638 l 1,2,-1
 130 684 l 1,3,-1
 237 544 l 1,0,-1
EndSplineSet
EndChar

StartChar: braceleft
Encoding: 36 123 36
Width: 307
GlyphClass: 2
Flags: W
LayerCount: 2
Fore
SplineSet
279 -178 m 1,0,-1
 261 -178 l 2,1,2
 184 -178 184 -178 151.5 -135 c 128,-1,3
 119 -92 119 -92 119 -2 c 2,4,-1
 119 155 l 2,5,6
 119 206 119 206 97.5 227 c 128,-1,7
 76 248 76 248 24 251 c 1,8,-1
 24 319 l 1,9,10
 78 321 78 321 98.5 341 c 128,-1,11
 119 361 119 361 119 413 c 2,12,-1
 119 518 l 2,13,14
 119 602 119 602 151.5 647.5 c 128,-1,15
 184 693 184 693 261 693 c 2,16,-1
 279 693 l 1,17,-1
 279 628 l 1,18,19
 232 628 232 628 214.5 605 c 128,-1,20
 197 582 197 582 197 521 c 2,21,-1
 197 417 l 2,22,23
 197 308 197 308 120 284 c 1,24,25
 197 265 197 265 197 152 c 2,26,-1
 197 -3 l 2,27,28
 197 -64 197 -64 214.5 -87 c 128,-1,29
 232 -110 232 -110 279 -110 c 1,30,-1
 279 -178 l 1,0,-1
EndSplineSet
EndChar

StartChar: bar
Encoding: 37 124 37
Width: 256
GlyphClass: 2
Flags: W
LayerCount: 2
Fore
SplineSet
160 -221 m 1,0,-1
 93 -221 l 1,1,-1
 93 678 l 1,2,-1
 160 678 l 1,3,-1
 160 -221 l 1,0,-1
EndSplineSet
EndChar

StartChar: braceright
Encoding: 38 125 38
Width: 304
GlyphClass: 2
Flags: W
LayerCount: 2
Fore
SplineSet
287 319 m 1,0,-1
 287 251 l 1,1,2
 235 248 235 248 213.5 227 c 128,-1,3
 192 206 192 206 192 155 c 2,4,-1
 192 -2 l 2,5,6
 192 -92 192 -92 159.5 -135 c 128,-1,7
 127 -178 127 -178 50 -178 c 2,8,-1
 32 -178 l 1,9,-1
 32 -110 l 1,10,11
 79 -110 79 -110 96.5 -87 c 128,-1,12
 114 -64 114 -64 114 -3 c 2,13,-1
 114 152 l 2,14,15
 114 260 114 260 189 285 c 1,16,17
 114 302 114 302 114 413 c 2,18,-1
 114 521 l 2,19,20
 114 582 114 582 96.5 605 c 128,-1,21
 79 628 79 628 32 628 c 1,22,-1
 32 693 l 1,23,-1
 50 693 l 2,24,25
 192 693 192 693 192 518 c 2,26,-1
 192 417 l 2,27,28
 192 362 192 362 212.5 341.5 c 128,-1,29
 233 321 233 321 287 319 c 1,0,-1
EndSplineSet
EndChar

StartChar: uni060C
Encoding: 39 1548 39
Width: 193
GlyphClass: 2
Flags: W
LayerCount: 2
Fore
SplineSet
110 208 m 1,0,-1
 150 174 l 1,1,2
 123 137 123 137 123 109 c 0,3,4
 123 89 123 89 135 74 c 0,5,6
 147 57 147 57 147 43 c 0,7,8
 147 23 147 23 131.5 7.5 c 128,-1,9
 116 -8 116 -8 94 -8 c 0,10,11
 70 -8 70 -8 54 11 c 128,-1,12
 38 30 38 30 38 61 c 0,13,14
 38 129 38 129 110 208 c 1,0,-1
EndSplineSet
EndChar

StartChar: uni061B
Encoding: 40 1563 40
Width: 257
GlyphClass: 2
Flags: W
LayerCount: 2
Fore
SplineSet
84 50 m 0,0,1
 84 74 84 74 100.5 90.5 c 128,-1,2
 117 107 117 107 141 107 c 128,-1,3
 165 107 165 107 182 90.5 c 128,-1,4
 199 74 199 74 199 50 c 0,5,6
 199 25 199 25 182 8.5 c 128,-1,7
 165 -8 165 -8 141 -8 c 128,-1,8
 117 -8 117 -8 100.5 8.5 c 128,-1,9
 84 25 84 25 84 50 c 0,0,1
142 256 m 0,10,11
 118 256 118 256 102 275 c 128,-1,12
 86 294 86 294 86 325 c 0,13,14
 86 407 86 407 185 499 c 1,15,-1
 221 466 l 1,16,17
 170 412 170 412 170 371 c 0,18,19
 170 353 170 353 182 338 c 0,20,21
 194 321 194 321 194 307 c 0,22,23
 194 287 194 287 179 271.5 c 128,-1,24
 164 256 164 256 142 256 c 0,10,11
EndSplineSet
EndChar

StartChar: uni061F
Encoding: 41 1567 41
Width: 400
GlyphClass: 2
Flags: W
LayerCount: 2
Fore
SplineSet
74 463 m 0,0,1
 74 530 74 530 137 579.5 c 128,-1,2
 200 629 200 629 312 638 c 1,3,-1
 346 561 l 1,4,5
 264 558 264 558 215 529 c 128,-1,6
 166 500 166 500 166 455 c 0,7,8
 166 435 166 435 176.5 415 c 128,-1,9
 187 395 187 395 195.5 385.5 c 128,-1,10
 204 376 204 376 226 354 c 0,11,12
 249 331 249 331 262.5 315.5 c 128,-1,13
 276 300 276 300 288.5 272.5 c 128,-1,14
 301 245 301 245 301 216 c 0,15,16
 301 199 301 199 298 181 c 1,17,-1
 207 150 l 1,18,19
 216 183 216 183 216 203 c 0,20,21
 216 241 216 241 198.5 267.5 c 128,-1,22
 181 294 181 294 148 324 c 0,23,24
 124 347 124 347 111 362 c 128,-1,25
 98 377 98 377 86 404.5 c 128,-1,26
 74 432 74 432 74 463 c 0,0,1
192 47 m 0,27,28
 192 69 192 69 208.5 85 c 128,-1,29
 225 101 225 101 248 101 c 0,30,31
 272 101 272 101 288 85 c 128,-1,32
 304 69 304 69 304 47 c 0,33,34
 304 23 304 23 288.5 7.5 c 128,-1,35
 273 -8 273 -8 248 -8 c 0,36,37
 224 -8 224 -8 208 7.5 c 128,-1,38
 192 23 192 23 192 47 c 0,27,28
EndSplineSet
EndChar

StartChar: hamza
Encoding: 42 1569 42
AltUni2: 00fe80.ffffffff.0
Width: 372
GlyphClass: 2
Flags: W
LayerCount: 2
Fore
SplineSet
341 0 m 1,0,-1
 30 0 l 1,1,-1
 30 80 l 1,2,-1
 89 80 l 1,3,4
 72 113 72 113 72 146 c 0,5,6
 72 221 72 221 123.5 260.5 c 128,-1,7
 175 300 175 300 247 300 c 0,8,9
 299 300 299 300 349 279 c 1,10,-1
 314 207 l 1,11,12
 283 220 283 220 243 220 c 0,13,14
 207 220 207 220 179 200 c 128,-1,15
 151 180 151 180 151 146 c 0,16,17
 151 115 151 115 172.5 97.5 c 128,-1,18
 194 80 194 80 225 80 c 2,19,-1
 341 80 l 1,20,-1
 341 0 l 1,0,-1
EndSplineSet
EndChar

StartChar: alefmaddaabove.iso
Encoding: 43 1570 43
AltUni2: 00fe81.ffffffff.0
Width: 170
GlyphClass: 2
Flags: W
LayerCount: 2
Fore
SplineSet
-14 611 m 1,0,1
 14 635 14 635 38 637.5 c 128,-1,2
 62 640 62 640 78 631 c 128,-1,3
 94 622 94 622 119 622.5 c 128,-1,4
 144 623 144 623 175 641 c 1,5,-1
 175 591 l 1,6,7
 150 574 150 574 128.5 571.5 c 128,-1,8
 107 569 107 569 91 575 c 128,-1,9
 75 581 75 581 59.5 586 c 128,-1,10
 44 591 44 591 25.5 586 c 128,-1,11
 7 581 7 581 -14 560 c 1,12,-1
 -14 611 l 1,0,1
40 508 m 1,13,-1
 130 540 l 1,14,-1
 130 27 l 1,15,-1
 40 -6 l 1,16,-1
 40 508 l 1,13,-1
EndSplineSet
Substitution2: "'fina' Terminal Forms in Arabic lookup 5 subtable" alefmaddaabove.fin
Substitution2: "'aalt' Access All Alternates lookup 0 subtable" alefmaddaabove.fin
EndChar

StartChar: alefhamzaabove.iso
Encoding: 44 1571 44
AltUni2: 00fe83.ffffffff.0
Width: 170
GlyphClass: 2
Flags: W
LayerCount: 2
Fore
SplineSet
40 508 m 1,0,-1
 130 540 l 1,1,-1
 130 27 l 1,2,-1
 40 -6 l 1,3,-1
 40 508 l 1,0,-1
149 578 m 1,4,-1
 4 578 l 1,5,-1
 4 628 l 1,6,-1
 26 628 l 1,7,8
 22 642 22 642 22 650 c 0,9,10
 22 685 22 685 45.5 703.5 c 128,-1,11
 69 722 69 722 102 722 c 0,12,13
 128 722 128 722 152 711 c 1,14,-1
 130 667 l 1,15,16
 112 674 112 674 101 674 c 0,17,18
 72 674 72 674 72 650 c 0,19,20
 72 628 72 628 93 628 c 2,21,-1
 149 628 l 1,22,-1
 149 578 l 1,4,-1
EndSplineSet
Substitution2: "'fina' Terminal Forms in Arabic lookup 5 subtable" alefhamzaabove.fin
Substitution2: "'aalt' Access All Alternates lookup 0 subtable" alefhamzaabove.fin
EndChar

StartChar: wawhamza.iso
Encoding: 45 1572 45
AltUni2: 00fe85.ffffffff.0
Width: 446
GlyphClass: 2
Flags: W
LayerCount: 2
Fore
SplineSet
282 453 m 1,0,-1
 137 453 l 1,1,-1
 137 503 l 1,2,-1
 159 503 l 1,3,4
 155 517 155 517 155 525 c 0,5,6
 155 560 155 560 178.5 578.5 c 128,-1,7
 202 597 202 597 235 597 c 0,8,9
 261 597 261 597 285 586 c 1,10,-1
 263 542 l 1,11,12
 246 549 246 549 234 549 c 0,13,14
 205 549 205 549 205 525 c 0,15,16
 205 503 205 503 226 503 c 2,17,-1
 282 503 l 1,18,-1
 282 453 l 1,0,-1
256 0 m 1,19,-1
 197 0 l 2,20,21
 128 0 128 0 79 66.5 c 128,-1,22
 30 133 30 133 30 209 c 0,23,24
 30 248 30 248 38 281.5 c 128,-1,25
 46 315 46 315 65 347 c 128,-1,26
 84 379 84 379 121.5 397 c 128,-1,27
 159 415 159 415 213 415 c 2,28,-1
 406 415 l 1,29,-1
 406 -2 l 2,30,31
 406 -144 406 -144 265 -222 c 1,32,-1
 162 -169 l 1,33,34
 316 -115 316 -115 316 -2 c 2,35,-1
 316 60 l 1,36,-1
 256 0 l 1,19,-1
316 325 m 1,37,-1
 213 325 l 2,38,39
 120 325 120 325 120 209 c 0,40,41
 120 165 120 165 146.5 127.5 c 128,-1,42
 173 90 173 90 213 90 c 2,43,-1
 316 90 l 1,44,-1
 316 325 l 1,37,-1
EndSplineSet
Substitution2: "'fina' Terminal Forms in Arabic lookup 5 subtable" wawhamza.fin
Substitution2: "'aalt' Access All Alternates lookup 0 subtable" wawhamza.fin
EndChar

StartChar: alefhamzabelow.iso
Encoding: 46 1573 46
AltUni2: 00fe87.ffffffff.0
Width: 170
GlyphClass: 2
Flags: W
LayerCount: 2
Fore
SplineSet
149 -176 m 1,0,-1
 4 -176 l 1,1,-1
 4 -126 l 1,2,-1
 26 -126 l 1,3,4
 22 -112 22 -112 22 -104 c 0,5,6
 22 -69 22 -69 45.5 -50.5 c 128,-1,7
 69 -32 69 -32 102 -32 c 0,8,9
 128 -32 128 -32 152 -43 c 1,10,-1
 130 -87 l 1,11,12
 112 -80 112 -80 101 -80 c 0,13,14
 72 -80 72 -80 72 -104 c 0,15,16
 72 -126 72 -126 93 -126 c 2,17,-1
 149 -126 l 1,18,-1
 149 -176 l 1,0,-1
40 579 m 1,19,-1
 130 611 l 1,20,-1
 130 27 l 1,21,-1
 40 -6 l 1,22,-1
 40 579 l 1,19,-1
EndSplineSet
Substitution2: "'fina' Terminal Forms in Arabic lookup 5 subtable" alefhamzabelow.fin
Substitution2: "'aalt' Access All Alternates lookup 0 subtable" alefhamzabelow.fin
EndChar

StartChar: yehhamza.iso
Encoding: 47 1574 47
AltUni2: 00fe89.ffffffff.0
Width: 687
GlyphClass: 2
Flags: W
LayerCount: 2
Fore
SplineSet
157 214 m 1,0,-1
 12 214 l 1,1,-1
 12 264 l 1,2,-1
 34 264 l 1,3,4
 30 278 30 278 30 286 c 0,5,6
 30 321 30 321 53.5 339.5 c 128,-1,7
 77 358 77 358 110 358 c 0,8,9
 136 358 136 358 160 347 c 1,10,-1
 138 303 l 1,11,12
 121 310 121 310 109 310 c 0,13,14
 80 310 80 310 80 286 c 0,15,16
 80 264 80 264 101 264 c 2,17,-1
 157 264 l 1,18,-1
 157 214 l 1,0,-1
663 413 m 1,19,-1
 644 324 l 1,20,21
 533 331 533 331 465 212 c 1,22,23
 567 175 567 175 611.5 130 c 128,-1,24
 656 85 656 85 656 20 c 0,25,26
 656 -55 656 -55 613.5 -97.5 c 128,-1,27
 571 -140 571 -140 494 -140 c 2,28,-1
 182 -140 l 2,29,30
 30 -140 30 -140 30 33 c 2,31,-1
 30 131 l 1,32,-1
 120 164 l 1,33,-1
 120 31 l 2,34,35
 120 -12 120 -12 131.5 -31 c 128,-1,36
 143 -50 143 -50 183 -50 c 2,37,-1
 494 -50 l 2,38,39
 532 -50 532 -50 549 -29.5 c 128,-1,40
 566 -9 566 -9 566 20 c 0,41,42
 566 96 566 96 395 136 c 1,43,-1
 369 226 l 1,44,45
 422 326 422 326 490.5 374.5 c 128,-1,46
 559 423 559 423 663 413 c 1,19,-1
EndSplineSet
Substitution2: "'fina' Terminal Forms in Arabic lookup 5 subtable" yehhamza.fin
Substitution2: "'medi' Medial Forms in Arabic lookup 4 subtable" yehhamza.med
Substitution2: "'init' Initial Forms in Arabic lookup 3 subtable" yehhamza.ini
AlternateSubs2: "'aalt' Access All Alternates lookup 1 subtable" yehhamza.ini yehhamza.med yehhamza.fin
EndChar

StartChar: alef.iso
Encoding: 48 1575 48
AltUni2: 00fe8d.ffffffff.0
Width: 170
GlyphClass: 5
Flags: W
LayerCount: 2
Fore
SplineSet
40 579 m 1,0,-1
 130 611 l 1,1,-1
 130 27 l 1,2,-1
 40 -6 l 1,3,-1
 40 579 l 1,0,-1
EndSplineSet
Substitution2: "'fina' Terminal Forms in Arabic lookup 5 subtable" alef.fin
Substitution2: "'aalt' Access All Alternates lookup 0 subtable" alef.fin
EndChar

StartChar: beh.iso
Encoding: 49 1576 49
AltUni2: 00fe8f.ffffffff.0
Width: 720
GlyphClass: 2
Flags: W
LayerCount: 2
Fore
SplineSet
598 383 m 1,0,-1
 688 415 l 1,1,-1
 688 138 l 2,2,3
 688 0 688 0 542 0 c 2,4,-1
 176 0 l 2,5,6
 31 0 31 0 31 138 c 2,7,-1
 31 383 l 1,8,-1
 121 415 l 1,9,-1
 121 150 l 2,10,11
 121 115 121 115 137 102.5 c 128,-1,12
 153 90 153 90 184 90 c 2,13,-1
 535 90 l 2,14,15
 567 90 567 90 582.5 102 c 128,-1,16
 598 114 598 114 598 150 c 2,17,-1
 598 383 l 1,0,-1
359 -188 m 1,18,-1
 295 -124 l 1,19,-1
 359 -60 l 1,20,-1
 423 -124 l 1,21,-1
 359 -188 l 1,18,-1
EndSplineSet
Substitution2: "'fina' Terminal Forms in Arabic lookup 5 subtable" beh.fin
Substitution2: "'medi' Medial Forms in Arabic lookup 4 subtable" beh.med
Substitution2: "'init' Initial Forms in Arabic lookup 3 subtable" beh.ini
AlternateSubs2: "'aalt' Access All Alternates lookup 1 subtable" beh.ini beh.med beh.fin
EndChar

StartChar: tehmarbuta.iso
Encoding: 50 1577 50
AltUni2: 00fe93.ffffffff.0
Width: 445
GlyphClass: 2
Flags: W
LayerCount: 2
Fore
SplineSet
163 483 m 1,0,-1
 99 547 l 1,1,-1
 163 611 l 1,2,-1
 227 547 l 1,3,-1
 163 483 l 1,0,-1
291 483 m 1,4,-1
 227 547 l 1,5,-1
 291 611 l 1,6,-1
 355 547 l 1,7,-1
 291 483 l 1,4,-1
405 415 m 1,8,-1
 405 138 l 2,9,10
 405 0 405 0 273 0 c 2,11,-1
 176 0 l 2,12,13
 30 0 30 0 30 138 c 2,14,-1
 30 278 l 2,15,16
 30 415 30 415 176 415 c 2,17,-1
 405 415 l 1,8,-1
315 325 m 1,18,-1
 183 325 l 2,19,20
 151 325 151 325 135.5 313 c 128,-1,21
 120 301 120 301 120 265 c 2,22,-1
 120 150 l 2,23,24
 120 113 120 113 135.5 101.5 c 128,-1,25
 151 90 151 90 183 90 c 2,26,-1
 251 90 l 2,27,28
 284 90 284 90 299.5 101.5 c 128,-1,29
 315 113 315 113 315 150 c 2,30,-1
 315 325 l 1,18,-1
EndSplineSet
Substitution2: "'fina' Terminal Forms in Arabic lookup 5 subtable" tehmarbuta.fin
Substitution2: "'aalt' Access All Alternates lookup 0 subtable" tehmarbuta.fin
EndChar

StartChar: teh.iso
Encoding: 51 1578 51
AltUni2: 00fe95.ffffffff.0
Width: 720
GlyphClass: 2
Flags: W
LayerCount: 2
Fore
SplineSet
597 383 m 1,0,-1
 687 415 l 1,1,-1
 687 138 l 2,2,3
 687 0 687 0 541 0 c 2,4,-1
 175 0 l 2,5,6
 30 0 30 0 30 138 c 2,7,-1
 30 383 l 1,8,-1
 120 415 l 1,9,-1
 120 150 l 2,10,11
 120 115 120 115 136 102.5 c 128,-1,12
 152 90 152 90 183 90 c 2,13,-1
 534 90 l 2,14,15
 566 90 566 90 581.5 102 c 128,-1,16
 597 114 597 114 597 150 c 2,17,-1
 597 383 l 1,0,-1
295 483 m 1,18,-1
 231 547 l 1,19,-1
 295 611 l 1,20,-1
 359 547 l 1,21,-1
 295 483 l 1,18,-1
423 483 m 1,22,-1
 359 547 l 1,23,-1
 423 611 l 1,24,-1
 487 547 l 1,25,-1
 423 483 l 1,22,-1
EndSplineSet
Substitution2: "'fina' Terminal Forms in Arabic lookup 5 subtable" teh.fin
Substitution2: "'medi' Medial Forms in Arabic lookup 4 subtable" teh.med
Substitution2: "'init' Initial Forms in Arabic lookup 3 subtable" teh.ini
AlternateSubs2: "'aalt' Access All Alternates lookup 1 subtable" teh.ini teh.med teh.fin
EndChar

StartChar: theh.iso
Encoding: 52 1579 52
AltUni2: 00fe99.ffffffff.0
Width: 720
GlyphClass: 2
Flags: W
LayerCount: 2
Fore
SplineSet
597 383 m 1,0,-1
 687 415 l 1,1,-1
 687 138 l 2,2,3
 687 0 687 0 541 0 c 2,4,-1
 175 0 l 2,5,6
 30 0 30 0 30 138 c 2,7,-1
 30 383 l 1,8,-1
 120 415 l 1,9,-1
 120 150 l 2,10,11
 120 115 120 115 136 102.5 c 128,-1,12
 152 90 152 90 183 90 c 2,13,-1
 534 90 l 2,14,15
 566 90 566 90 581.5 102 c 128,-1,16
 597 114 597 114 597 150 c 2,17,-1
 597 383 l 1,0,-1
359 591 m 1,18,-1
 295 655 l 1,19,-1
 359 719 l 1,20,-1
 423 655 l 1,21,-1
 359 591 l 1,18,-1
295 483 m 1,22,-1
 231 547 l 1,23,-1
 295 611 l 1,24,-1
 359 547 l 1,25,-1
 295 483 l 1,22,-1
423 483 m 1,26,-1
 359 547 l 1,27,-1
 423 611 l 1,28,-1
 487 547 l 1,29,-1
 423 483 l 1,26,-1
EndSplineSet
Substitution2: "'fina' Terminal Forms in Arabic lookup 5 subtable" theh.fin
Substitution2: "'medi' Medial Forms in Arabic lookup 4 subtable" theh.med
Substitution2: "'init' Initial Forms in Arabic lookup 3 subtable" theh.ini
AlternateSubs2: "'aalt' Access All Alternates lookup 1 subtable" theh.ini theh.med theh.fin
EndChar

StartChar: jeem.iso
Encoding: 53 1580 53
AltUni2: 00fe9d.ffffffff.0
Width: 578
GlyphClass: 2
Flags: W
LayerCount: 2
Fore
SplineSet
319 -188 m 1,0,-1
 255 -124 l 1,1,-1
 319 -60 l 1,2,-1
 383 -124 l 1,3,-1
 319 -188 l 1,0,-1
30 -126 m 0,4,5
 30 -31 30 -31 93 29.5 c 128,-1,6
 156 90 156 90 246 90 c 2,7,-1
 422 90 l 1,8,9
 401 128 401 128 377 216 c 0,10,11
 369 248 369 248 356 270 c 128,-1,12
 343 292 343 292 331 303 c 128,-1,13
 319 314 319 314 298 319.5 c 128,-1,14
 277 325 277 325 263 326 c 128,-1,15
 249 327 249 327 221 327 c 2,16,-1
 154 327 l 1,17,18
 160 342 160 342 170 369.5 c 128,-1,19
 180 397 180 397 186 415 c 1,20,-1
 251 415 l 2,21,22
 286 415 286 415 314.5 408 c 128,-1,23
 343 401 343 401 362.5 392.5 c 128,-1,24
 382 384 382 384 398.5 366 c 128,-1,25
 415 348 415 348 424 336 c 128,-1,26
 433 324 433 324 442.5 299 c 128,-1,27
 452 274 452 274 455.5 262.5 c 128,-1,28
 459 251 459 251 466 224 c 0,29,30
 482 161 482 161 499.5 129.5 c 128,-1,31
 517 98 517 98 550 90 c 1,32,-1
 550 0 l 1,33,-1
 246 0 l 2,34,35
 190 0 190 0 155 -34.5 c 128,-1,36
 120 -69 120 -69 120 -126 c 0,37,38
 120 -184 120 -184 155.5 -222 c 128,-1,39
 191 -260 191 -260 246 -260 c 2,40,-1
 396 -260 l 1,41,-1
 355 -350 l 1,42,-1
 246 -350 l 2,43,44
 153 -350 153 -350 91.5 -287 c 128,-1,45
 30 -224 30 -224 30 -126 c 0,4,5
EndSplineSet
Substitution2: "'fina' Terminal Forms in Arabic lookup 5 subtable" jeem.fin
Substitution2: "'medi' Medial Forms in Arabic lookup 4 subtable" jeem.med
Substitution2: "'init' Initial Forms in Arabic lookup 3 subtable" jeem.ini
AlternateSubs2: "'aalt' Access All Alternates lookup 1 subtable" jeem.ini jeem.med jeem.fin
EndChar

StartChar: hah.iso
Encoding: 54 1581 54
AltUni2: 00fea1.ffffffff.0
Width: 578
GlyphClass: 2
Flags: W
LayerCount: 2
Fore
SplineSet
30 -126 m 0,0,1
 30 -31 30 -31 93 29.5 c 128,-1,2
 156 90 156 90 246 90 c 2,3,-1
 422 90 l 1,4,5
 401 128 401 128 377 216 c 0,6,7
 369 248 369 248 356 270 c 128,-1,8
 343 292 343 292 331 303 c 128,-1,9
 319 314 319 314 298 319.5 c 128,-1,10
 277 325 277 325 263 326 c 128,-1,11
 249 327 249 327 221 327 c 2,12,-1
 154 327 l 1,13,14
 160 342 160 342 170 369.5 c 128,-1,15
 180 397 180 397 186 415 c 1,16,-1
 251 415 l 2,17,18
 286 415 286 415 314.5 408 c 128,-1,19
 343 401 343 401 362.5 392.5 c 128,-1,20
 382 384 382 384 398.5 366 c 128,-1,21
 415 348 415 348 424 336 c 128,-1,22
 433 324 433 324 442.5 299 c 128,-1,23
 452 274 452 274 455.5 262.5 c 128,-1,24
 459 251 459 251 466 224 c 0,25,26
 482 161 482 161 499.5 129.5 c 128,-1,27
 517 98 517 98 550 90 c 1,28,-1
 550 0 l 1,29,-1
 246 0 l 2,30,31
 190 0 190 0 155 -34.5 c 128,-1,32
 120 -69 120 -69 120 -126 c 0,33,34
 120 -184 120 -184 155.5 -222 c 128,-1,35
 191 -260 191 -260 246 -260 c 2,36,-1
 396 -260 l 1,37,-1
 355 -350 l 1,38,-1
 246 -350 l 2,39,40
 153 -350 153 -350 91.5 -287 c 128,-1,41
 30 -224 30 -224 30 -126 c 0,0,1
EndSplineSet
Substitution2: "'fina' Terminal Forms in Arabic lookup 5 subtable" hah.fin
Substitution2: "'medi' Medial Forms in Arabic lookup 4 subtable" hah.med
Substitution2: "'init' Initial Forms in Arabic lookup 3 subtable" hah.ini
AlternateSubs2: "'aalt' Access All Alternates lookup 1 subtable" hah.ini hah.med hah.fin
EndChar

StartChar: khah.iso
Encoding: 55 1582 55
AltUni2: 00fea5.ffffffff.0
Width: 578
GlyphClass: 2
Flags: W
LayerCount: 2
Fore
SplineSet
297 476 m 1,0,-1
 233 540 l 1,1,-1
 297 604 l 1,2,-1
 361 540 l 1,3,-1
 297 476 l 1,0,-1
30 -126 m 0,4,5
 30 -31 30 -31 93 29.5 c 128,-1,6
 156 90 156 90 246 90 c 2,7,-1
 422 90 l 1,8,9
 401 128 401 128 377 216 c 0,10,11
 369 248 369 248 356 270 c 128,-1,12
 343 292 343 292 331 303 c 128,-1,13
 319 314 319 314 298 319.5 c 128,-1,14
 277 325 277 325 263 326 c 128,-1,15
 249 327 249 327 221 327 c 2,16,-1
 154 327 l 1,17,18
 160 342 160 342 170 369.5 c 128,-1,19
 180 397 180 397 186 415 c 1,20,-1
 251 415 l 2,21,22
 286 415 286 415 314.5 408 c 128,-1,23
 343 401 343 401 362.5 392.5 c 128,-1,24
 382 384 382 384 398.5 366 c 128,-1,25
 415 348 415 348 424 336 c 128,-1,26
 433 324 433 324 442.5 299 c 128,-1,27
 452 274 452 274 455.5 262.5 c 128,-1,28
 459 251 459 251 466 224 c 0,29,30
 482 161 482 161 499.5 129.5 c 128,-1,31
 517 98 517 98 550 90 c 1,32,-1
 550 0 l 1,33,-1
 246 0 l 2,34,35
 190 0 190 0 155 -34.5 c 128,-1,36
 120 -69 120 -69 120 -126 c 0,37,38
 120 -184 120 -184 155.5 -222 c 128,-1,39
 191 -260 191 -260 246 -260 c 2,40,-1
 396 -260 l 1,41,-1
 355 -350 l 1,42,-1
 246 -350 l 2,43,44
 153 -350 153 -350 91.5 -287 c 128,-1,45
 30 -224 30 -224 30 -126 c 0,4,5
EndSplineSet
Substitution2: "'fina' Terminal Forms in Arabic lookup 5 subtable" khah.fin
Substitution2: "'medi' Medial Forms in Arabic lookup 4 subtable" khah.med
Substitution2: "'init' Initial Forms in Arabic lookup 3 subtable" khah.ini
AlternateSubs2: "'aalt' Access All Alternates lookup 1 subtable" khah.ini khah.med khah.fin
EndChar

StartChar: dal.iso
Encoding: 56 1583 56
AltUni2: 00fea9.ffffffff.0
Width: 453
GlyphClass: 2
Flags: W
LayerCount: 2
Fore
SplineSet
72 415 m 1,0,-1
 172 415 l 2,1,2
 220 415 220 415 257.5 408.5 c 128,-1,3
 295 402 295 402 320 392 c 128,-1,4
 345 382 345 382 362 364.5 c 128,-1,5
 379 347 379 347 388 331.5 c 128,-1,6
 397 316 397 316 401.5 290.5 c 128,-1,7
 406 265 406 265 407 247 c 128,-1,8
 408 229 408 229 408 200 c 2,9,-1
 408 0 l 1,10,-1
 30 0 l 1,11,-1
 30 90 l 1,12,-1
 316 90 l 1,13,-1
 316 200 l 2,14,15
 316 268 316 268 287.5 296.5 c 128,-1,16
 259 325 259 325 171 325 c 2,17,-1
 72 325 l 1,18,-1
 72 415 l 1,0,-1
EndSplineSet
Substitution2: "'fina' Terminal Forms in Arabic lookup 5 subtable" dal.fin
Substitution2: "'aalt' Access All Alternates lookup 0 subtable" dal.fin
EndChar

StartChar: thal.iso
Encoding: 57 1584 57
AltUni2: 00feab.ffffffff.0
Width: 453
GlyphClass: 2
Flags: W
LayerCount: 2
Fore
SplineSet
196 476 m 1,0,-1
 132 540 l 1,1,-1
 196 604 l 1,2,-1
 260 540 l 1,3,-1
 196 476 l 1,0,-1
72 415 m 1,4,-1
 172 415 l 2,5,6
 220 415 220 415 257.5 408.5 c 128,-1,7
 295 402 295 402 320 392 c 128,-1,8
 345 382 345 382 362 364.5 c 128,-1,9
 379 347 379 347 388 331.5 c 128,-1,10
 397 316 397 316 401.5 290.5 c 128,-1,11
 406 265 406 265 407 247 c 128,-1,12
 408 229 408 229 408 200 c 2,13,-1
 408 0 l 1,14,-1
 30 0 l 1,15,-1
 30 90 l 1,16,-1
 316 90 l 1,17,-1
 316 200 l 2,18,19
 316 268 316 268 287.5 296.5 c 128,-1,20
 259 325 259 325 171 325 c 2,21,-1
 72 325 l 1,22,-1
 72 415 l 1,4,-1
EndSplineSet
Substitution2: "'fina' Terminal Forms in Arabic lookup 5 subtable" thal.fin
Substitution2: "'aalt' Access All Alternates lookup 0 subtable" thal.fin
EndChar

StartChar: reh.iso
Encoding: 58 1585 58
AltUni2: 00fead.ffffffff.0
Width: 230
GlyphClass: 2
Flags: W
LayerCount: 2
Fore
SplineSet
80 2 m 2,0,-1
 80 383 l 1,1,-1
 170 415 l 1,2,-1
 170 -18 l 2,3,4
 170 -69 170 -69 146 -123 c 128,-1,5
 122 -177 122 -177 64 -214 c 1,6,-1
 -23 -169 l 1,7,8
 6 -157 6 -157 26.5 -138.5 c 128,-1,9
 47 -120 47 -120 57.5 -103.5 c 128,-1,10
 68 -87 68 -87 73 -64.5 c 128,-1,11
 78 -42 78 -42 79 -29.5 c 128,-1,12
 80 -17 80 -17 80 2 c 2,0,-1
EndSplineSet
Substitution2: "'fina' Terminal Forms in Arabic lookup 5 subtable" reh.fin
Substitution2: "'aalt' Access All Alternates lookup 0 subtable" reh.fin
EndChar

StartChar: zain.iso
Encoding: 59 1586 59
AltUni2: 00feaf.ffffffff.0
Width: 230
GlyphClass: 2
Flags: W
LayerCount: 2
Fore
SplineSet
125 476 m 1,0,-1
 61 540 l 1,1,-1
 125 604 l 1,2,-1
 189 540 l 1,3,-1
 125 476 l 1,0,-1
80 2 m 2,4,-1
 80 383 l 1,5,-1
 170 415 l 1,6,-1
 170 -18 l 2,7,8
 170 -69 170 -69 146 -123 c 128,-1,9
 122 -177 122 -177 64 -214 c 1,10,-1
 -23 -169 l 1,11,12
 6 -157 6 -157 26.5 -138.5 c 128,-1,13
 47 -120 47 -120 57.5 -103.5 c 128,-1,14
 68 -87 68 -87 73 -64.5 c 128,-1,15
 78 -42 78 -42 79 -29.5 c 128,-1,16
 80 -17 80 -17 80 2 c 2,4,-1
EndSplineSet
Substitution2: "'fina' Terminal Forms in Arabic lookup 5 subtable" zain.fin
Substitution2: "'aalt' Access All Alternates lookup 0 subtable" zain.fin
EndChar

StartChar: seen.iso
Encoding: 60 1587 60
AltUni2: 00feb1.ffffffff.0
Width: 998
GlyphClass: 2
Flags: W
LayerCount: 2
Fore
SplineSet
958 415 m 1,0,-1
 958 143 l 2,1,2
 958 89 958 89 917 44.5 c 128,-1,3
 876 0 876 0 810 0 c 2,4,-1
 798 0 l 2,5,6
 737 0 737 0 695 42 c 1,7,8
 651 0 651 0 592 0 c 2,9,-1
 580 0 l 2,10,11
 545 0 545 0 518 13 c 1,12,13
 505 -54 505 -54 445 -100 c 128,-1,14
 385 -146 385 -146 276 -146 c 0,15,16
 151 -146 151 -146 90.5 -87 c 128,-1,17
 30 -28 30 -28 30 50 c 2,18,-1
 30 243 l 1,19,-1
 120 275 l 1,20,-1
 120 56 l 2,21,22
 120 -49 120 -49 276 -49 c 128,-1,23
 432 -49 432 -49 432 56 c 2,24,-1
 432 383 l 1,25,-1
 522 415 l 1,26,-1
 522 143 l 2,27,28
 522 121 522 121 539 105.5 c 128,-1,29
 556 90 556 90 580 90 c 2,30,-1
 592 90 l 2,31,32
 615 90 615 90 632.5 105.5 c 128,-1,33
 650 121 650 121 650 143 c 2,34,-1
 650 383 l 1,35,-1
 740 415 l 1,36,-1
 740 143 l 2,37,38
 740 121 740 121 757 105.5 c 128,-1,39
 774 90 774 90 798 90 c 2,40,-1
 810 90 l 2,41,42
 833 90 833 90 850.5 105.5 c 128,-1,43
 868 121 868 121 868 143 c 2,44,-1
 868 383 l 1,45,-1
 958 415 l 1,0,-1
EndSplineSet
Substitution2: "'fina' Terminal Forms in Arabic lookup 5 subtable" seen.fin
Substitution2: "'medi' Medial Forms in Arabic lookup 4 subtable" seen.med
Substitution2: "'init' Initial Forms in Arabic lookup 3 subtable" seen.ini
AlternateSubs2: "'aalt' Access All Alternates lookup 1 subtable" seen.ini seen.med seen.fin
EndChar

StartChar: sheen.iso
Encoding: 61 1588 61
AltUni2: 00feb5.ffffffff.0
Width: 998
GlyphClass: 2
Flags: W
LayerCount: 2
Fore
SplineSet
695 591 m 1,0,-1
 631 655 l 1,1,-1
 695 719 l 1,2,-1
 759 655 l 1,3,-1
 695 591 l 1,0,-1
631 483 m 1,4,-1
 567 547 l 1,5,-1
 631 611 l 1,6,-1
 695 547 l 1,7,-1
 631 483 l 1,4,-1
759 483 m 1,8,-1
 695 547 l 1,9,-1
 759 611 l 1,10,-1
 823 547 l 1,11,-1
 759 483 l 1,8,-1
958 415 m 1,12,-1
 958 143 l 2,13,14
 958 89 958 89 917 44.5 c 128,-1,15
 876 0 876 0 810 0 c 2,16,-1
 798 0 l 2,17,18
 737 0 737 0 695 42 c 1,19,20
 651 0 651 0 592 0 c 2,21,-1
 580 0 l 2,22,23
 545 0 545 0 518 13 c 1,24,25
 505 -54 505 -54 445 -100 c 128,-1,26
 385 -146 385 -146 276 -146 c 0,27,28
 151 -146 151 -146 90.5 -87 c 128,-1,29
 30 -28 30 -28 30 50 c 2,30,-1
 30 243 l 1,31,-1
 120 275 l 1,32,-1
 120 56 l 2,33,34
 120 -49 120 -49 276 -49 c 128,-1,35
 432 -49 432 -49 432 56 c 2,36,-1
 432 383 l 1,37,-1
 522 415 l 1,38,-1
 522 143 l 2,39,40
 522 121 522 121 539 105.5 c 128,-1,41
 556 90 556 90 580 90 c 2,42,-1
 592 90 l 2,43,44
 615 90 615 90 632.5 105.5 c 128,-1,45
 650 121 650 121 650 143 c 2,46,-1
 650 383 l 1,47,-1
 740 415 l 1,48,-1
 740 143 l 2,49,50
 740 121 740 121 757 105.5 c 128,-1,51
 774 90 774 90 798 90 c 2,52,-1
 810 90 l 2,53,54
 833 90 833 90 850.5 105.5 c 128,-1,55
 868 121 868 121 868 143 c 2,56,-1
 868 383 l 1,57,-1
 958 415 l 1,12,-1
EndSplineSet
Substitution2: "'fina' Terminal Forms in Arabic lookup 5 subtable" sheen.fin
Substitution2: "'medi' Medial Forms in Arabic lookup 4 subtable" sheen.med
Substitution2: "'init' Initial Forms in Arabic lookup 3 subtable" sheen.ini
AlternateSubs2: "'aalt' Access All Alternates lookup 1 subtable" sheen.ini sheen.med sheen.fin
EndChar

StartChar: sad.iso
Encoding: 62 1589 62
AltUni2: 00feb9.ffffffff.0
Width: 957
GlyphClass: 2
Flags: W
LayerCount: 2
Fore
SplineSet
276 -146 m 0,0,1
 151 -146 151 -146 90.5 -87 c 128,-1,2
 30 -28 30 -28 30 50 c 2,3,-1
 30 243 l 1,4,-1
 120 275 l 1,5,-1
 120 56 l 2,6,7
 120 -49 120 -49 276 -49 c 128,-1,8
 432 -49 432 -49 432 56 c 2,9,-1
 432 415 l 1,10,-1
 522 415 l 1,11,-1
 522 327 l 1,12,13
 676 416 676 416 751 416 c 0,14,15
 773 416 773 416 793 412 c 128,-1,16
 813 408 813 408 836.5 395.5 c 128,-1,17
 860 383 860 383 877 362.5 c 128,-1,18
 894 342 894 342 905.5 306 c 128,-1,19
 917 270 917 270 917 223 c 2,20,-1
 917 138 l 2,21,22
 917 0 917 0 772 0 c 2,23,-1
 515 0 l 1,24,25
 498 -63 498 -63 439 -104.5 c 128,-1,26
 380 -146 380 -146 276 -146 c 0,0,1
751 326 m 0,27,28
 713 326 713 326 641.5 290 c 128,-1,29
 570 254 570 254 522 219 c 1,30,-1
 522 90 l 1,31,-1
 772 90 l 2,32,33
 827 90 827 90 827 138 c 2,34,-1
 827 223 l 2,35,36
 827 281 827 281 804 303.5 c 128,-1,37
 781 326 781 326 751 326 c 0,27,28
EndSplineSet
Substitution2: "'fina' Terminal Forms in Arabic lookup 5 subtable" sad.fin
Substitution2: "'medi' Medial Forms in Arabic lookup 4 subtable" sad.med
Substitution2: "'init' Initial Forms in Arabic lookup 3 subtable" sad.ini
AlternateSubs2: "'aalt' Access All Alternates lookup 1 subtable" sad.ini sad.med sad.fin
EndChar

StartChar: dad.iso
Encoding: 63 1590 63
AltUni2: 00febd.ffffffff.0
Width: 957
GlyphClass: 2
Flags: W
LayerCount: 2
Fore
SplineSet
726 476 m 1,0,-1
 662 540 l 1,1,-1
 726 604 l 1,2,-1
 790 540 l 1,3,-1
 726 476 l 1,0,-1
276 -146 m 0,4,5
 151 -146 151 -146 90.5 -87 c 128,-1,6
 30 -28 30 -28 30 50 c 2,7,-1
 30 243 l 1,8,-1
 120 275 l 1,9,-1
 120 56 l 2,10,11
 120 -49 120 -49 276 -49 c 128,-1,12
 432 -49 432 -49 432 56 c 2,13,-1
 432 415 l 1,14,-1
 522 415 l 1,15,-1
 522 327 l 1,16,17
 676 416 676 416 751 416 c 0,18,19
 773 416 773 416 793 412 c 128,-1,20
 813 408 813 408 836.5 395.5 c 128,-1,21
 860 383 860 383 877 362.5 c 128,-1,22
 894 342 894 342 905.5 306 c 128,-1,23
 917 270 917 270 917 223 c 2,24,-1
 917 138 l 2,25,26
 917 0 917 0 772 0 c 2,27,-1
 515 0 l 1,28,29
 498 -63 498 -63 439 -104.5 c 128,-1,30
 380 -146 380 -146 276 -146 c 0,4,5
751 326 m 0,31,32
 713 326 713 326 641.5 290 c 128,-1,33
 570 254 570 254 522 219 c 1,34,-1
 522 90 l 1,35,-1
 772 90 l 2,36,37
 827 90 827 90 827 138 c 2,38,-1
 827 223 l 2,39,40
 827 281 827 281 804 303.5 c 128,-1,41
 781 326 781 326 751 326 c 0,31,32
EndSplineSet
Substitution2: "'fina' Terminal Forms in Arabic lookup 5 subtable" dad.fin
Substitution2: "'medi' Medial Forms in Arabic lookup 4 subtable" dad.med
Substitution2: "'init' Initial Forms in Arabic lookup 3 subtable" dad.ini
AlternateSubs2: "'aalt' Access All Alternates lookup 1 subtable" dad.ini dad.med dad.fin
EndChar

StartChar: tah.iso
Encoding: 64 1591 64
AltUni2: 00fec1.ffffffff.0
Width: 649
GlyphClass: 2
Flags: W
LayerCount: 2
Fore
SplineSet
124 537 m 1,0,-1
 214 569 l 1,1,-1
 214 327 l 1,2,3
 368 416 368 416 443 416 c 0,4,5
 465 416 465 416 485 412 c 128,-1,6
 505 408 505 408 528.5 395.5 c 128,-1,7
 552 383 552 383 569 362.5 c 128,-1,8
 586 342 586 342 597.5 306 c 128,-1,9
 609 270 609 270 609 223 c 2,10,-1
 609 138 l 2,11,12
 609 0 609 0 464 0 c 2,13,-1
 214 0 l 1,14,-1
 214 -41 l 1,15,-1
 124 -74 l 1,16,-1
 124 0 l 1,17,-1
 30 0 l 1,18,-1
 30 90 l 1,19,-1
 124 90 l 1,20,-1
 124 537 l 1,0,-1
443 326 m 0,21,22
 405 326 405 326 333.5 290 c 128,-1,23
 262 254 262 254 214 219 c 1,24,-1
 214 90 l 1,25,-1
 464 90 l 2,26,27
 519 90 519 90 519 138 c 2,28,-1
 519 223 l 2,29,30
 519 281 519 281 496 303.5 c 128,-1,31
 473 326 473 326 443 326 c 0,21,22
EndSplineSet
Substitution2: "'fina' Terminal Forms in Arabic lookup 5 subtable" tah.fin
Substitution2: "'medi' Medial Forms in Arabic lookup 4 subtable" tah.med
Substitution2: "'init' Initial Forms in Arabic lookup 3 subtable" tah.ini
AlternateSubs2: "'aalt' Access All Alternates lookup 1 subtable" tah.ini tah.med tah.fin
EndChar

StartChar: zah.iso
Encoding: 65 1592 65
AltUni2: 00fec5.ffffffff.0
Width: 649
GlyphClass: 2
Flags: W
LayerCount: 2
Fore
SplineSet
418 476 m 1,0,-1
 354 540 l 1,1,-1
 418 604 l 1,2,-1
 482 540 l 1,3,-1
 418 476 l 1,0,-1
124 537 m 1,4,-1
 214 569 l 1,5,-1
 214 327 l 1,6,7
 368 416 368 416 443 416 c 0,8,9
 465 416 465 416 485 412 c 128,-1,10
 505 408 505 408 528.5 395.5 c 128,-1,11
 552 383 552 383 569 362.5 c 128,-1,12
 586 342 586 342 597.5 306 c 128,-1,13
 609 270 609 270 609 223 c 2,14,-1
 609 138 l 2,15,16
 609 0 609 0 464 0 c 2,17,-1
 214 0 l 1,18,-1
 214 -41 l 1,19,-1
 124 -74 l 1,20,-1
 124 0 l 1,21,-1
 30 0 l 1,22,-1
 30 90 l 1,23,-1
 124 90 l 1,24,-1
 124 537 l 1,4,-1
443 326 m 0,25,26
 405 326 405 326 333.5 290 c 128,-1,27
 262 254 262 254 214 219 c 1,28,-1
 214 90 l 1,29,-1
 464 90 l 2,30,31
 519 90 519 90 519 138 c 2,32,-1
 519 223 l 2,33,34
 519 281 519 281 496 303.5 c 128,-1,35
 473 326 473 326 443 326 c 0,25,26
EndSplineSet
Substitution2: "'fina' Terminal Forms in Arabic lookup 5 subtable" zah.fin
Substitution2: "'medi' Medial Forms in Arabic lookup 4 subtable" zah.med
Substitution2: "'init' Initial Forms in Arabic lookup 3 subtable" zah.ini
AlternateSubs2: "'aalt' Access All Alternates lookup 1 subtable" zah.ini zah.med zah.fin
EndChar

StartChar: ain.iso
Encoding: 66 1593 66
AltUni2: 00fec9.ffffffff.0
Width: 533
GlyphClass: 2
Flags: W
LayerCount: 2
Fore
SplineSet
429 415 m 1,0,-1
 470 325 l 1,1,-1
 328 325 l 2,2,3
 287 325 287 325 261 290 c 128,-1,4
 235 255 235 255 235 211 c 0,5,6
 235 90 235 90 328 90 c 2,7,-1
 493 90 l 1,8,-1
 493 0 l 1,9,-1
 246 0 l 2,10,11
 189 0 189 0 154.5 -34.5 c 128,-1,12
 120 -69 120 -69 120 -126 c 0,13,14
 120 -184 120 -184 155.5 -222 c 128,-1,15
 191 -260 191 -260 246 -260 c 2,16,-1
 396 -260 l 1,17,-1
 355 -350 l 1,18,-1
 246 -350 l 2,19,20
 153 -350 153 -350 91.5 -287 c 128,-1,21
 30 -224 30 -224 30 -126 c 0,22,23
 30 -48 30 -48 68.5 6 c 128,-1,24
 107 60 107 60 174 80 c 1,25,26
 145 133 145 133 145 211 c 128,-1,27
 145 289 145 289 196.5 352 c 128,-1,28
 248 415 248 415 328 415 c 2,29,-1
 429 415 l 1,0,-1
EndSplineSet
Substitution2: "'fina' Terminal Forms in Arabic lookup 5 subtable" ain.fin
Substitution2: "'medi' Medial Forms in Arabic lookup 4 subtable" ain.med
Substitution2: "'init' Initial Forms in Arabic lookup 3 subtable" ain.ini
AlternateSubs2: "'aalt' Access All Alternates lookup 1 subtable" ain.ini ain.med ain.fin
EndChar

StartChar: ghain.iso
Encoding: 67 1594 67
AltUni2: 00fecd.ffffffff.0
Width: 533
GlyphClass: 2
Flags: W
LayerCount: 2
Fore
SplineSet
354 476 m 1,0,-1
 290 540 l 1,1,-1
 354 604 l 1,2,-1
 418 540 l 1,3,-1
 354 476 l 1,0,-1
429 415 m 1,4,-1
 470 325 l 1,5,-1
 328 325 l 2,6,7
 287 325 287 325 261 290 c 128,-1,8
 235 255 235 255 235 211 c 0,9,10
 235 90 235 90 328 90 c 2,11,-1
 493 90 l 1,12,-1
 493 0 l 1,13,-1
 246 0 l 2,14,15
 189 0 189 0 154.5 -34.5 c 128,-1,16
 120 -69 120 -69 120 -126 c 0,17,18
 120 -184 120 -184 155.5 -222 c 128,-1,19
 191 -260 191 -260 246 -260 c 2,20,-1
 396 -260 l 1,21,-1
 355 -350 l 1,22,-1
 246 -350 l 2,23,24
 153 -350 153 -350 91.5 -287 c 128,-1,25
 30 -224 30 -224 30 -126 c 0,26,27
 30 -48 30 -48 68.5 6 c 128,-1,28
 107 60 107 60 174 80 c 1,29,30
 145 133 145 133 145 211 c 128,-1,31
 145 289 145 289 196.5 352 c 128,-1,32
 248 415 248 415 328 415 c 2,33,-1
 429 415 l 1,4,-1
EndSplineSet
Substitution2: "'fina' Terminal Forms in Arabic lookup 5 subtable" ghain.fin
Substitution2: "'medi' Medial Forms in Arabic lookup 4 subtable" ghain.med
Substitution2: "'init' Initial Forms in Arabic lookup 3 subtable" ghain.ini
AlternateSubs2: "'aalt' Access All Alternates lookup 1 subtable" ghain.ini ghain.med ghain.fin
EndChar

StartChar: uni0640
Encoding: 68 1600 68
Width: 280
GlyphClass: 2
Flags: W
LayerCount: 2
Fore
SplineSet
0 0 m 1,0,-1
 0 90 l 1,1,-1
 284 90 l 1,2,-1
 284 0 l 1,3,-1
 0 0 l 1,0,-1
EndSplineSet
EndChar

StartChar: feh.iso
Encoding: 69 1601 69
AltUni2: 00fed1.ffffffff.0
Width: 908
GlyphClass: 2
Flags: W
LayerCount: 2
Fore
SplineSet
868 415 m 1,0,-1
 868 138 l 2,1,2
 868 0 868 0 736 0 c 2,3,-1
 175 0 l 2,4,5
 30 0 30 0 30 138 c 2,6,-1
 30 383 l 1,7,-1
 120 415 l 1,8,-1
 120 150 l 2,9,10
 120 115 120 115 136 102.5 c 128,-1,11
 152 90 152 90 183 90 c 2,12,-1
 493 90 l 1,13,-1
 493 278 l 2,14,15
 493 415 493 415 639 415 c 2,16,-1
 868 415 l 1,0,-1
778 325 m 1,17,-1
 646 325 l 2,18,19
 614 325 614 325 598.5 313 c 128,-1,20
 583 301 583 301 583 265 c 2,21,-1
 583 90 l 1,22,-1
 714 90 l 2,23,24
 747 90 747 90 762.5 101.5 c 128,-1,25
 778 113 778 113 778 150 c 2,26,-1
 778 325 l 1,17,-1
690 476 m 1,27,-1
 626 540 l 1,28,-1
 690 604 l 1,29,-1
 754 540 l 1,30,-1
 690 476 l 1,27,-1
EndSplineSet
Substitution2: "'fina' Terminal Forms in Arabic lookup 5 subtable" feh.fin
Substitution2: "'medi' Medial Forms in Arabic lookup 4 subtable" feh.med
Substitution2: "'init' Initial Forms in Arabic lookup 3 subtable" feh.ini
AlternateSubs2: "'aalt' Access All Alternates lookup 1 subtable" feh.ini feh.med feh.fin
EndChar

StartChar: qaf.iso
Encoding: 70 1602 70
AltUni2: 00fed5.ffffffff.0
Width: 772
GlyphClass: 2
Flags: W
LayerCount: 2
Fore
SplineSet
626 483 m 1,0,-1
 562 547 l 1,1,-1
 626 611 l 1,2,-1
 690 547 l 1,3,-1
 626 483 l 1,0,-1
498 483 m 1,4,-1
 434 547 l 1,5,-1
 498 611 l 1,6,-1
 562 547 l 1,7,-1
 498 483 l 1,4,-1
582 0 m 1,8,-1
 523 0 l 2,9,10
 454 0 454 0 405 66.5 c 128,-1,11
 356 133 356 133 356 209 c 0,12,13
 356 248 356 248 364 281.5 c 128,-1,14
 372 315 372 315 391 347 c 128,-1,15
 410 379 410 379 447.5 397 c 128,-1,16
 485 415 485 415 539 415 c 2,17,-1
 732 415 l 1,18,-1
 732 -63 l 2,19,20
 732 -201 732 -201 586 -201 c 2,21,-1
 175 -201 l 2,22,23
 30 -201 30 -201 30 -63 c 2,24,-1
 30 182 l 1,25,-1
 120 214 l 1,26,-1
 120 -51 l 2,27,28
 120 -86 120 -86 136 -98.5 c 128,-1,29
 152 -111 152 -111 183 -111 c 2,30,-1
 579 -111 l 2,31,32
 611 -111 611 -111 626.5 -99 c 128,-1,33
 642 -87 642 -87 642 -51 c 2,34,-1
 642 60 l 1,35,-1
 582 0 l 1,8,-1
642 325 m 1,36,-1
 539 325 l 2,37,38
 446 325 446 325 446 209 c 0,39,40
 446 165 446 165 472.5 127.5 c 128,-1,41
 499 90 499 90 539 90 c 2,42,-1
 642 90 l 1,43,-1
 642 325 l 1,36,-1
EndSplineSet
Substitution2: "'fina' Terminal Forms in Arabic lookup 5 subtable" qaf.fin
Substitution2: "'medi' Medial Forms in Arabic lookup 4 subtable" qaf.med
Substitution2: "'init' Initial Forms in Arabic lookup 3 subtable" qaf.ini
AlternateSubs2: "'aalt' Access All Alternates lookup 1 subtable" qaf.ini qaf.med qaf.fin
EndChar

StartChar: kaf.iso
Encoding: 71 1603 71
AltUni2: 00fed9.ffffffff.0
Width: 727
GlyphClass: 2
Flags: W
LayerCount: 2
Fore
SplineSet
597 579 m 1,0,-1
 687 611 l 1,1,-1
 687 138 l 2,2,3
 687 0 687 0 541 0 c 2,4,-1
 175 0 l 2,5,6
 30 0 30 0 30 138 c 2,7,-1
 30 243 l 1,8,-1
 120 275 l 1,9,-1
 120 150 l 2,10,11
 120 115 120 115 136 102.5 c 128,-1,12
 152 90 152 90 183 90 c 2,13,-1
 534 90 l 2,14,15
 566 90 566 90 581.5 102 c 128,-1,16
 597 114 597 114 597 150 c 2,17,-1
 597 579 l 1,0,-1
444 336 m 1,18,-1
 279 336 l 1,19,-1
 279 386 l 1,20,-1
 311 386 l 1,21,22
 307 400 307 400 307 408 c 0,23,24
 307 443 307 443 330.5 461.5 c 128,-1,25
 354 480 354 480 387 480 c 0,26,27
 413 480 413 480 437 469 c 1,28,-1
 415 425 l 1,29,30
 398 432 398 432 386 432 c 0,31,32
 357 432 357 432 357 408 c 0,33,34
 357 386 357 386 378 386 c 2,35,-1
 444 386 l 1,36,-1
 444 336 l 1,18,-1
EndSplineSet
Substitution2: "'fina' Terminal Forms in Arabic lookup 5 subtable" kaf.fin
Substitution2: "'medi' Medial Forms in Arabic lookup 4 subtable" kaf.med
Substitution2: "'init' Initial Forms in Arabic lookup 3 subtable" kaf.ini
AlternateSubs2: "'aalt' Access All Alternates lookup 1 subtable" kaf.ini kaf.med kaf.fin
EndChar

StartChar: lam.iso
Encoding: 72 1604 72
AltUni2: 00fedd.ffffffff.0
Width: 563
GlyphClass: 2
Flags: W
LayerCount: 2
Fore
SplineSet
276 -156 m 128,-1,1
 151 -156 151 -156 90.5 -97 c 128,-1,2
 30 -38 30 -38 30 40 c 2,3,-1
 30 243 l 1,4,-1
 120 275 l 1,5,-1
 120 46 l 2,6,7
 120 9 120 9 138.5 -15.5 c 128,-1,8
 157 -40 157 -40 186 -50 c 128,-1,9
 215 -60 215 -60 235.5 -63 c 128,-1,10
 256 -66 256 -66 276 -66 c 128,-1,11
 296 -66 296 -66 316.5 -63 c 128,-1,12
 337 -60 337 -60 366 -50 c 128,-1,13
 395 -40 395 -40 413.5 -15.5 c 128,-1,14
 432 9 432 9 432 46 c 2,15,-1
 432 579 l 1,16,-1
 522 611 l 1,17,-1
 522 40 l 2,18,19
 522 -38 522 -38 461.5 -97 c 128,-1,0
 401 -156 401 -156 276 -156 c 128,-1,1
EndSplineSet
Substitution2: "'fina' Terminal Forms in Arabic lookup 5 subtable" lam.fin
Substitution2: "'medi' Medial Forms in Arabic lookup 4 subtable" lam.med
Substitution2: "'init' Initial Forms in Arabic lookup 3 subtable" lam.ini
AlternateSubs2: "'aalt' Access All Alternates lookup 1 subtable" lam.ini lam.med lam.fin
EndChar

StartChar: meem.iso
Encoding: 73 1605 73
AltUni2: 00fee1.ffffffff.0
Width: 605
GlyphClass: 2
Flags: W
LayerCount: 2
Fore
SplineSet
30 -338 m 1,0,-1
 30 -48 l 2,1,2
 30 90 30 90 175 90 c 2,3,-1
 190 90 l 1,4,-1
 190 278 l 2,5,6
 190 415 190 415 336 415 c 2,7,-1
 565 415 l 1,8,-1
 565 138 l 2,9,10
 565 0 565 0 433 0 c 2,11,-1
 183 0 l 2,12,13
 151 0 151 0 135.5 -11.5 c 128,-1,14
 120 -23 120 -23 120 -59 c 2,15,-1
 120 -306 l 1,16,-1
 30 -338 l 1,0,-1
475 325 m 1,17,-1
 343 325 l 2,18,19
 311 325 311 325 295.5 313 c 128,-1,20
 280 301 280 301 280 265 c 2,21,-1
 280 90 l 1,22,-1
 411 90 l 2,23,24
 444 90 444 90 459.5 101.5 c 128,-1,25
 475 113 475 113 475 150 c 2,26,-1
 475 325 l 1,17,-1
EndSplineSet
Substitution2: "'fina' Terminal Forms in Arabic lookup 5 subtable" meem.fin
Substitution2: "'medi' Medial Forms in Arabic lookup 4 subtable" meem.med
Substitution2: "'init' Initial Forms in Arabic lookup 3 subtable" meem.ini
AlternateSubs2: "'aalt' Access All Alternates lookup 1 subtable" meem.ini meem.med meem.fin
EndChar

StartChar: noon.iso
Encoding: 74 1606 74
AltUni2: 00fee5.ffffffff.0
Width: 563
GlyphClass: 2
Flags: W
LayerCount: 2
Fore
SplineSet
276 -146 m 128,-1,1
 151 -146 151 -146 90.5 -87 c 128,-1,2
 30 -28 30 -28 30 50 c 2,3,-1
 30 243 l 1,4,-1
 120 275 l 1,5,-1
 120 56 l 2,6,7
 120 -49 120 -49 276 -49 c 128,-1,8
 432 -49 432 -49 432 56 c 2,9,-1
 432 300 l 1,10,-1
 522 332 l 1,11,-1
 522 50 l 2,12,13
 522 -28 522 -28 461.5 -87 c 128,-1,0
 401 -146 401 -146 276 -146 c 128,-1,1
276 389 m 1,14,-1
 212 453 l 1,15,-1
 276 517 l 1,16,-1
 340 453 l 1,17,-1
 276 389 l 1,14,-1
EndSplineSet
Substitution2: "'fina' Terminal Forms in Arabic lookup 5 subtable" noon.fin
Substitution2: "'medi' Medial Forms in Arabic lookup 4 subtable" noon.med
Substitution2: "'init' Initial Forms in Arabic lookup 3 subtable" noon.ini
AlternateSubs2: "'aalt' Access All Alternates lookup 1 subtable" noon.ini noon.med noon.fin
EndChar

StartChar: heh.ini
Encoding: 75 1607 75
AltUni2: 00feeb.ffffffff.0
Width: 673
GlyphClass: 2
Flags: W
LayerCount: 2
Fore
SplineSet
0 90 m 1,0,-1
 54 90 l 2,1,2
 108 90 108 90 152 96 c 1,3,4
 89 161 89 161 89 237 c 0,5,6
 89 317 89 317 131 365.5 c 128,-1,7
 173 414 173 414 244 415 c 1,8,-1
 268 491 l 1,9,10
 331 491 331 491 395.5 473.5 c 128,-1,11
 460 456 460 456 516 424 c 128,-1,12
 572 392 572 392 607 338.5 c 128,-1,13
 642 285 642 285 639 220 c 0,14,15
 637 167 637 167 621.5 126.5 c 128,-1,16
 606 86 606 86 585 62.5 c 128,-1,17
 564 39 564 39 536.5 24.5 c 128,-1,18
 509 10 509 10 486 5 c 128,-1,19
 463 0 463 0 441 0 c 2,20,-1
 389 0 l 2,21,22
 314 0 314 0 250 28 c 1,23,24
 169 0 169 0 54 0 c 2,25,-1
 0 0 l 1,26,-1
 0 90 l 1,0,-1
408 238 m 0,27,28
 408 151 408 151 354 92 c 1,29,30
 376 90 376 90 389 90 c 2,31,-1
 441 90 l 2,32,33
 474 90 474 90 510 122.5 c 128,-1,34
 546 155 546 155 549 223 c 0,35,36
 551 283 551 283 499 327 c 128,-1,37
 447 371 447 371 339 389 c 1,38,39
 408 342 408 342 408 238 c 0,27,28
179 239 m 0,40,41
 179 175 179 175 255 128 c 1,42,43
 318 165 318 165 318 238 c 0,44,45
 318 325 318 325 246 325 c 0,46,47
 212 325 212 325 195.5 301.5 c 128,-1,48
 179 278 179 278 179 239 c 0,40,41
EndSplineSet
Substitution2: "'fina' Terminal Forms in Arabic lookup 5 subtable" heh.fin
Substitution2: "'medi' Medial Forms in Arabic lookup 4 subtable" heh.med
Substitution2: "'init' Initial Forms in Arabic lookup 3 subtable" heh.ini
Substitution2: "'isol' Isolated Forms in Arabic lookup 2 subtable" heh.iso
AlternateSubs2: "'aalt' Access All Alternates lookup 1 subtable" heh.iso heh.ini heh.med heh.fin
EndChar

StartChar: waw.iso
Encoding: 76 1608 76
AltUni2: 00feed.ffffffff.0
Width: 446
GlyphClass: 2
Flags: W
LayerCount: 2
Fore
SplineSet
256 0 m 1,0,-1
 197 0 l 2,1,2
 128 0 128 0 79 66.5 c 128,-1,3
 30 133 30 133 30 209 c 0,4,5
 30 248 30 248 38 281.5 c 128,-1,6
 46 315 46 315 65 347 c 128,-1,7
 84 379 84 379 121.5 397 c 128,-1,8
 159 415 159 415 213 415 c 2,9,-1
 406 415 l 1,10,-1
 406 -2 l 2,11,12
 406 -144 406 -144 265 -222 c 1,13,-1
 162 -169 l 1,14,15
 316 -115 316 -115 316 -2 c 2,16,-1
 316 60 l 1,17,-1
 256 0 l 1,0,-1
316 325 m 1,18,-1
 213 325 l 2,19,20
 120 325 120 325 120 209 c 0,21,22
 120 165 120 165 146.5 127.5 c 128,-1,23
 173 90 173 90 213 90 c 2,24,-1
 316 90 l 1,25,-1
 316 325 l 1,18,-1
EndSplineSet
Substitution2: "'fina' Terminal Forms in Arabic lookup 5 subtable" waw.fin
Substitution2: "'aalt' Access All Alternates lookup 0 subtable" waw.fin
EndChar

StartChar: alefmaksura.iso
Encoding: 77 1609 77
AltUni2: 00feef.ffffffff.0
Width: 687
GlyphClass: 2
Flags: W
LayerCount: 2
Fore
SplineSet
663 413 m 1,0,-1
 644 324 l 1,1,2
 533 331 533 331 465 212 c 1,3,4
 567 175 567 175 611.5 130 c 128,-1,5
 656 85 656 85 656 20 c 0,6,7
 656 -55 656 -55 613.5 -97.5 c 128,-1,8
 571 -140 571 -140 494 -140 c 2,9,-1
 182 -140 l 2,10,11
 30 -140 30 -140 30 33 c 2,12,-1
 30 131 l 1,13,-1
 120 164 l 1,14,-1
 120 31 l 2,15,16
 120 -12 120 -12 131.5 -31 c 128,-1,17
 143 -50 143 -50 183 -50 c 2,18,-1
 494 -50 l 2,19,20
 532 -50 532 -50 549 -29.5 c 128,-1,21
 566 -9 566 -9 566 20 c 0,22,23
 566 96 566 96 395 136 c 1,24,-1
 369 226 l 1,25,26
 422 326 422 326 490.5 374.5 c 128,-1,27
 559 423 559 423 663 413 c 1,0,-1
EndSplineSet
Substitution2: "'fina' Terminal Forms in Arabic lookup 5 subtable" alefmaksura.fin
Substitution2: "'aalt' Access All Alternates lookup 0 subtable" alefmaksura.fin
EndChar

StartChar: yeh.iso
Encoding: 78 1610 78
AltUni2: 00fef1.ffffffff.0
Width: 687
GlyphClass: 2
Flags: W
LayerCount: 2
Fore
SplineSet
281 -322 m 1,0,-1
 217 -258 l 1,1,-1
 281 -194 l 1,2,-1
 345 -258 l 1,3,-1
 281 -322 l 1,0,-1
409 -322 m 1,4,-1
 345 -258 l 1,5,-1
 409 -194 l 1,6,-1
 473 -258 l 1,7,-1
 409 -322 l 1,4,-1
663 413 m 1,8,-1
 644 324 l 1,9,10
 533 331 533 331 465 212 c 1,11,12
 567 175 567 175 611.5 130 c 128,-1,13
 656 85 656 85 656 20 c 0,14,15
 656 -55 656 -55 613.5 -97.5 c 128,-1,16
 571 -140 571 -140 494 -140 c 2,17,-1
 182 -140 l 2,18,19
 30 -140 30 -140 30 33 c 2,20,-1
 30 131 l 1,21,-1
 120 164 l 1,22,-1
 120 31 l 2,23,24
 120 -12 120 -12 131.5 -31 c 128,-1,25
 143 -50 143 -50 183 -50 c 2,26,-1
 494 -50 l 2,27,28
 532 -50 532 -50 549 -29.5 c 128,-1,29
 566 -9 566 -9 566 20 c 0,30,31
 566 96 566 96 395 136 c 1,32,-1
 369 226 l 1,33,34
 422 326 422 326 490.5 374.5 c 128,-1,35
 559 423 559 423 663 413 c 1,8,-1
EndSplineSet
Substitution2: "'fina' Terminal Forms in Arabic lookup 5 subtable" yeh.fin
Substitution2: "'medi' Medial Forms in Arabic lookup 4 subtable" yeh.med
Substitution2: "'init' Initial Forms in Arabic lookup 3 subtable" yeh.ini
AlternateSubs2: "'aalt' Access All Alternates lookup 1 subtable" yeh.ini yeh.med yeh.fin
EndChar

StartChar: fathatan
Encoding: 79 1611 79
Width: 0
GlyphClass: 5
Flags: W
LayerCount: 2
Fore
SplineSet
189 649 m 1,0,-1
 189 601 l 1,1,-1
 0 570 l 1,2,-1
 0 618 l 1,3,-1
 189 649 l 1,0,-1
189 574 m 1,4,-1
 189 526 l 1,5,-1
 0 495 l 1,6,-1
 0 543 l 1,7,-1
 189 574 l 1,4,-1
EndSplineSet
EndChar

StartChar: dammatan
Encoding: 80 1612 80
Width: 0
GlyphClass: 5
Flags: W
LayerCount: 2
Fore
SplineSet
47 470 m 1,0,1
 69 421 69 421 110 410 c 1,2,-1
 110 423 l 2,3,4
 108 489 108 489 144.5 526 c 128,-1,5
 181 563 181 563 234 534 c 0,6,7
 266 515 266 515 277.5 488.5 c 128,-1,8
 289 462 289 462 271 421 c 0,9,10
 237 358 237 358 139 358 c 0,11,12
 107 359 107 359 76 371 c 128,-1,13
 45 383 45 383 32 404 c 1,14,-1
 -6 379 l 1,15,-1
 -25 423 l 1,16,-1
 47 470 l 1,0,1
210 492 m 0,17,18
 198 495 198 495 189.5 496 c 128,-1,19
 181 497 181 497 175 488.5 c 128,-1,20
 169 480 169 480 165.5 472.5 c 128,-1,21
 162 465 162 465 160.5 451 c 128,-1,22
 159 437 159 437 158.5 427.5 c 128,-1,23
 158 418 158 418 158 406 c 1,24,25
 211 411 211 411 229 443 c 0,26,27
 245 476 245 476 210 492 c 0,17,18
EndSplineSet
EndChar

StartChar: kasratan
Encoding: 81 1613 81
Width: 0
GlyphClass: 5
Flags: W
LayerCount: 2
Fore
SplineSet
189 -70 m 1,0,-1
 189 -118 l 1,1,-1
 0 -148 l 1,2,-1
 0 -100 l 1,3,-1
 189 -70 l 1,0,-1
189 -145 m 1,4,-1
 189 -193 l 1,5,-1
 0 -223 l 1,6,-1
 0 -175 l 1,7,-1
 189 -145 l 1,4,-1
EndSplineSet
EndChar

StartChar: fatha
Encoding: 82 1614 82
Width: 0
GlyphClass: 5
Flags: W
LayerCount: 2
Fore
SplineSet
189 665 m 1,0,-1
 189 617 l 1,1,-1
 0 586 l 1,2,-1
 0 634 l 1,3,-1
 189 665 l 1,0,-1
EndSplineSet
EndChar

StartChar: damma
Encoding: 83 1615 83
Width: 0
GlyphClass: 5
Flags: W
LayerCount: 2
Fore
SplineSet
-34 399 m 1,0,-1
 -10 441 l 1,1,2
 20 423 20 423 54 412 c 1,3,4
 48 486 48 486 87 523.5 c 128,-1,5
 126 561 126 561 178 533 c 0,6,7
 210 514 210 514 221.5 487.5 c 128,-1,8
 233 461 233 461 215 420 c 0,9,10
 201 394 201 394 169.5 376 c 128,-1,11
 138 358 138 358 82.5 360 c 128,-1,12
 27 362 27 362 -34 399 c 1,0,-1
173 442 m 1,13,14
 187 474 187 474 155 490 c 0,15,16
 128 503 128 503 115.5 479.5 c 128,-1,17
 103 456 103 456 102 407 c 1,18,19
 154 410 154 410 173 442 c 1,13,14
EndSplineSet
EndChar

StartChar: kasra
Encoding: 84 1616 84
Width: 0
GlyphClass: 5
Flags: W
LayerCount: 2
Fore
SplineSet
189 -69 m 1,0,-1
 189 -117 l 1,1,-1
 0 -147 l 1,2,-1
 0 -99 l 1,3,-1
 189 -69 l 1,0,-1
EndSplineSet
EndChar

StartChar: shadda
Encoding: 85 1617 85
Width: 0
GlyphClass: 5
Flags: W
LayerCount: 2
Fore
SplineSet
120 405 m 2,0,1
 92 401 92 401 73 408.5 c 128,-1,2
 54 416 54 416 46 431.5 c 128,-1,3
 38 447 38 447 35 461.5 c 128,-1,4
 32 476 32 476 32 494 c 2,5,-1
 32 546 l 1,6,-1
 80 554 l 1,7,-1
 80 494 l 2,8,9
 80 450 80 450 104 450 c 0,10,11
 108 450 108 450 120 452 c 1,12,-1
 120 546 l 1,13,-1
 168 554 l 1,14,-1
 168 486 l 2,15,16
 170 450 170 450 192 450 c 0,17,18
 196 450 196 450 208 452 c 1,19,-1
 208 546 l 1,20,-1
 256 554 l 1,21,-1
 256 438 l 2,22,23
 256 413 256 413 231 409 c 2,24,-1
 208 405 l 2,25,26
 174 401 174 401 153 412 c 1,27,-1
 143 409 l 1,28,-1
 120 405 l 2,0,1
EndSplineSet
EndChar

StartChar: uni0652
Encoding: 86 1618 86
Width: 0
GlyphClass: 2
Flags: W
LayerCount: 2
Fore
SplineSet
91 646 m 128,-1,1
 126 646 126 646 154 619 c 128,-1,2
 182 592 182 592 182 554 c 0,3,4
 182 510 182 510 158 488 c 128,-1,5
 134 466 134 466 91 466 c 0,6,7
 49 466 49 466 24.5 488 c 128,-1,8
 0 510 0 510 0 554 c 0,9,10
 0 592 0 592 28 619 c 128,-1,0
 56 646 56 646 91 646 c 128,-1,1
91 598 m 0,11,12
 75 598 75 598 61.5 585 c 128,-1,13
 48 572 48 572 48 554 c 0,14,15
 48 514 48 514 91 514 c 128,-1,16
 134 514 134 514 134 554 c 0,17,18
 134 572 134 572 121 585 c 128,-1,19
 108 598 108 598 91 598 c 0,11,12
EndSplineSet
EndChar

StartChar: uni0653
Encoding: 87 1619 87
Width: 220
GlyphClass: 2
Flags: W
LayerCount: 2
Fore
SplineSet
-7 689 m 1,0,1
 21 713 21 713 45 719 c 128,-1,2
 69 725 69 725 87.5 719.5 c 128,-1,3
 106 714 106 714 124 707.5 c 128,-1,4
 142 701 142 701 168 703.5 c 128,-1,5
 194 706 194 706 224 725 c 1,6,-1
 224 675 l 1,7,8
 186 650 186 650 154.5 650 c 128,-1,9
 123 650 123 650 102.5 662 c 128,-1,10
 82 674 82 674 53 671 c 128,-1,11
 24 668 24 668 -7 637 c 1,12,-1
 -7 689 l 1,0,1
EndSplineSet
EndChar

StartChar: uni0654
Encoding: 88 1620 88
Width: 220
GlyphClass: 2
Flags: W
LayerCount: 2
Fore
SplineSet
187 667 m 1,0,-1
 19 667 l 1,1,-1
 19 712 l 1,2,-1
 51 712 l 1,3,4
 42 735 42 735 42 751 c 0,5,6
 42 791 42 791 70 812.5 c 128,-1,7
 98 834 98 834 137 834 c 0,8,9
 149 834 149 834 162.5 831 c 128,-1,10
 176 828 176 828 183 825 c 2,11,-1
 190 822 l 1,12,-1
 171 781 l 1,13,14
 152 789 152 789 135 789 c 0,15,16
 117 789 117 789 102 779.5 c 128,-1,17
 87 770 87 770 87 751 c 128,-1,18
 87 732 87 732 98 722 c 128,-1,19
 109 712 109 712 125 712 c 2,20,-1
 187 712 l 1,21,-1
 187 667 l 1,0,-1
EndSplineSet
EndChar

StartChar: uni0655
Encoding: 89 1621 89
Width: 220
GlyphClass: 2
Flags: W
LayerCount: 2
Fore
SplineSet
187 -206 m 1,0,-1
 19 -206 l 1,1,-1
 19 -161 l 1,2,-1
 51 -161 l 1,3,4
 42 -138 42 -138 42 -122 c 0,5,6
 42 -82 42 -82 70 -60.5 c 128,-1,7
 98 -39 98 -39 137 -39 c 0,8,9
 149 -39 149 -39 162.5 -42 c 128,-1,10
 176 -45 176 -45 183 -48 c 2,11,-1
 190 -51 l 1,12,-1
 171 -92 l 1,13,14
 152 -84 152 -84 135 -84 c 0,15,16
 117 -84 117 -84 102 -93.5 c 128,-1,17
 87 -103 87 -103 87 -122 c 128,-1,18
 87 -141 87 -141 98 -151 c 128,-1,19
 109 -161 109 -161 125 -161 c 2,20,-1
 187 -161 l 1,21,-1
 187 -206 l 1,0,-1
EndSplineSet
EndChar

StartChar: uni0660
Encoding: 90 1632 90
Width: 526
GlyphClass: 2
Flags: W
LayerCount: 2
Fore
SplineSet
483 310 m 0,0,1
 483 155 483 155 418.5 73.5 c 128,-1,2
 354 -8 354 -8 255 -8 c 0,3,4
 42 -8 42 -8 42 298 c 0,5,6
 42 453 42 453 105.5 534 c 128,-1,7
 169 615 169 615 269 615 c 0,8,9
 483 615 483 615 483 310 c 0,0,1
393 302 m 128,-1,11
 393 426 393 426 361 484.5 c 128,-1,12
 329 543 329 543 264 543 c 0,13,14
 132 543 132 543 132 305 c 0,15,16
 132 64 132 64 262 64 c 0,17,18
 322 64 322 64 357.5 121 c 128,-1,10
 393 178 393 178 393 302 c 128,-1,11
EndSplineSet
EndChar

StartChar: uni0661
Encoding: 91 1633 91
Width: 317
GlyphClass: 2
Flags: W
LayerCount: 2
Fore
SplineSet
236 0 m 1,0,-1
 148 0 l 1,1,-1
 148 521 l 1,2,-1
 35 476 l 1,3,-1
 21 555 l 1,4,-1
 167 607 l 1,5,-1
 236 607 l 1,6,-1
 236 0 l 1,0,-1
EndSplineSet
EndChar

StartChar: uni0662
Encoding: 92 1634 92
Width: 451
GlyphClass: 2
Flags: W
LayerCount: 2
Fore
SplineSet
408 0 m 1,0,-1
 52 0 l 1,1,-1
 52 69 l 1,2,-1
 167 200 l 2,3,4
 239 282 239 282 266.5 335.5 c 128,-1,5
 294 389 294 389 294 438 c 0,6,7
 294 483 294 483 267.5 511.5 c 128,-1,8
 241 540 241 540 191 540 c 0,9,10
 134 540 134 540 71 503 c 1,11,-1
 58 579 l 1,12,13
 132 616 132 616 211 616 c 0,14,15
 294 616 294 616 339.5 569.5 c 128,-1,16
 385 523 385 523 385 451 c 0,17,18
 385 389 385 389 351 323.5 c 128,-1,19
 317 258 317 258 239 168 c 2,20,-1
 162 77 l 1,21,22
 216 80 216 80 408 80 c 1,23,-1
 408 0 l 1,0,-1
EndSplineSet
EndChar

StartChar: uni0663
Encoding: 93 1635 93
Width: 440
GlyphClass: 2
Flags: W
LayerCount: 2
Fore
SplineSet
386 184 m 0,0,1
 386 100 386 100 320 46.5 c 128,-1,2
 254 -7 254 -7 150 -7 c 0,3,4
 84 -7 84 -7 50 3 c 1,5,-1
 59 80 l 1,6,7
 95 67 95 67 155 67 c 0,8,9
 219 67 219 67 257.5 99 c 128,-1,10
 296 131 296 131 296 179 c 128,-1,11
 296 227 296 227 256.5 254.5 c 128,-1,12
 217 282 217 282 140 282 c 0,13,14
 99 282 99 282 83 279 c 1,15,-1
 83 348 l 1,16,17
 273 344 273 344 273 458 c 0,18,19
 273 499 273 499 248 521 c 128,-1,20
 223 543 223 543 176 543 c 0,21,22
 117 543 117 543 69 516 c 1,23,-1
 62 589 l 1,24,25
 124 616 124 616 193 616 c 0,26,27
 276 616 276 616 319 576 c 128,-1,28
 362 536 362 536 362 473 c 0,29,30
 362 423 362 423 336.5 385.5 c 128,-1,31
 311 348 311 348 265 329 c 1,32,33
 319 314 319 314 352.5 275 c 128,-1,34
 386 236 386 236 386 184 c 0,0,1
EndSplineSet
EndChar

StartChar: uni0664
Encoding: 94 1636 94
Width: 490
GlyphClass: 2
Flags: W
LayerCount: 2
Fore
SplineSet
472 141 m 1,0,-1
 370 141 l 1,1,-1
 370 0 l 1,2,-1
 287 0 l 1,3,-1
 287 141 l 1,4,-1
 20 141 l 1,5,-1
 14 207 l 1,6,-1
 259 607 l 1,7,-1
 370 607 l 1,8,-1
 370 219 l 1,9,-1
 472 219 l 1,10,-1
 472 141 l 1,0,-1
288 218 m 1,11,-1
 287 522 l 1,12,-1
 98 217 l 1,13,14
 111 218 111 218 199 218 c 2,15,-1
 288 218 l 1,11,-1
EndSplineSet
EndChar

StartChar: uni0665
Encoding: 95 1637 95
Width: 416
GlyphClass: 2
Flags: W
LayerCount: 2
Fore
SplineSet
383 202 m 0,0,1
 383 108 383 108 315 50.5 c 128,-1,2
 247 -7 247 -7 140 -7 c 0,3,4
 89 -7 89 -7 48 2 c 1,5,-1
 57 80 l 1,6,7
 94 68 94 68 147 68 c 0,8,9
 215 68 215 68 255 101.5 c 128,-1,10
 295 135 295 135 295 192 c 0,11,12
 295 247 295 247 253.5 274 c 128,-1,13
 212 301 212 301 122 301 c 2,14,-1
 113 301 l 2,15,16
 83 301 83 301 69 299 c 1,17,-1
 69 607 l 1,18,-1
 351 607 l 1,19,-1
 351 527 l 1,20,-1
 150 527 l 1,21,-1
 150 372 l 1,22,23
 267 373 267 373 325 328.5 c 128,-1,24
 383 284 383 284 383 202 c 0,0,1
EndSplineSet
EndChar

StartChar: uni0666
Encoding: 96 1638 96
Width: 518
GlyphClass: 2
Flags: W
LayerCount: 2
Fore
SplineSet
475 203 m 0,0,1
 475 111 475 111 416 51 c 128,-1,2
 357 -9 357 -9 261 -9 c 0,3,4
 202 -9 202 -9 159.5 15.5 c 128,-1,5
 117 40 117 40 96 81 c 128,-1,6
 75 122 75 122 66 164 c 128,-1,7
 57 206 57 206 57 253 c 0,8,9
 57 432 57 432 143 523.5 c 128,-1,10
 229 615 229 615 364 615 c 0,11,12
 404 615 404 615 420 611 c 1,13,-1
 420 536 l 1,14,15
 401 540 401 540 360 540 c 0,16,17
 273 540 273 540 222.5 495.5 c 128,-1,18
 172 451 172 451 154 356 c 1,19,-1
 150 327 l 1,20,21
 197 384 197 384 291 384 c 0,22,23
 375 384 375 384 425 334.5 c 128,-1,24
 475 285 475 285 475 203 c 0,0,1
387 191 m 0,25,26
 387 248 387 248 357 281 c 128,-1,27
 327 314 327 314 271 314 c 0,28,29
 218 314 218 314 184.5 280 c 128,-1,30
 151 246 151 246 151 199 c 0,31,32
 151 137 151 137 182 100.5 c 128,-1,33
 213 64 213 64 268 64 c 0,34,35
 322 64 322 64 354.5 98 c 128,-1,36
 387 132 387 132 387 191 c 0,25,26
EndSplineSet
EndChar

StartChar: uni0667
Encoding: 97 1639 97
Width: 409
GlyphClass: 2
Flags: W
LayerCount: 2
Fore
SplineSet
383 607 m 1,0,-1
 383 535 l 1,1,2
 331 423 331 423 282 275.5 c 128,-1,3
 233 128 233 128 205 0 c 1,4,-1
 109 0 l 1,5,6
 143 136 143 136 194 284 c 128,-1,7
 245 432 245 432 288 527 c 1,8,9
 286 527 286 527 253 526.5 c 128,-1,10
 220 526 220 526 194 526 c 0,11,12
 136 525 136 525 21 525 c 1,13,-1
 21 607 l 1,14,-1
 383 607 l 1,0,-1
EndSplineSet
EndChar

StartChar: uni0668
Encoding: 98 1640 98
Width: 496
GlyphClass: 2
Flags: W
LayerCount: 2
Fore
SplineSet
444 157 m 0,0,1
 444 80 444 80 385 35.5 c 128,-1,2
 326 -9 326 -9 237 -9 c 128,-1,3
 148 -9 148 -9 98 33.5 c 128,-1,4
 48 76 48 76 48 144 c 0,5,6
 48 196 48 196 80 234 c 128,-1,7
 112 272 112 272 169 309 c 1,8,9
 58 372 58 372 58 458 c 0,10,11
 58 530 58 530 112 574.5 c 128,-1,12
 166 619 166 619 255 619 c 0,13,14
 336 619 336 619 383.5 578.5 c 128,-1,15
 431 538 431 538 431 474 c 0,16,17
 431 426 431 426 401 390 c 128,-1,18
 371 354 371 354 318 319 c 1,19,20
 379 283 379 283 411.5 245.5 c 128,-1,21
 444 208 444 208 444 157 c 0,0,1
343 467 m 0,22,23
 343 504 343 504 318.5 526.5 c 128,-1,24
 294 549 294 549 246 549 c 0,25,26
 200 549 200 549 172.5 527 c 128,-1,27
 145 505 145 505 145 467 c 0,28,29
 145 413 145 413 247 356 c 1,30,31
 343 414 343 414 343 467 c 0,22,23
354 149 m 0,32,33
 354 187 354 187 323 215.5 c 128,-1,34
 292 244 292 244 237 272 c 1,35,36
 190 243 190 243 164 215 c 128,-1,37
 138 187 138 187 138 152 c 0,38,39
 138 111 138 111 167 87 c 128,-1,40
 196 63 196 63 246 63 c 0,41,42
 293 63 293 63 323.5 85 c 128,-1,43
 354 107 354 107 354 149 c 0,32,33
EndSplineSet
EndChar

StartChar: uni0669
Encoding: 99 1641 99
Width: 524
GlyphClass: 2
Flags: W
LayerCount: 2
Fore
SplineSet
464 355 m 0,0,1
 464 176 464 176 382 84 c 128,-1,2
 300 -8 300 -8 157 -8 c 0,3,4
 115 -8 115 -8 82 -3 c 1,5,-1
 82 77 l 1,6,7
 116 67 116 67 166 67 c 0,8,9
 329 67 329 67 362 245 c 0,10,11
 362 246 362 246 363.5 251 c 128,-1,12
 365 256 365 256 366 260.5 c 128,-1,13
 367 265 367 265 367 269 c 0,14,15
 368 274 368 274 368 277 c 1,16,17
 323 220 323 220 230 220 c 0,18,19
 146 220 146 220 97 270 c 128,-1,20
 48 320 48 320 48 403 c 0,21,22
 48 494 48 494 106.5 555 c 128,-1,23
 165 616 165 616 259 616 c 0,24,25
 308 616 308 616 345.5 599 c 128,-1,26
 383 582 383 582 405 556 c 128,-1,27
 427 530 427 530 440.5 494 c 128,-1,28
 454 458 454 458 459 424.5 c 128,-1,29
 464 391 464 391 464 355 c 0,0,1
369 408 m 0,30,31
 369 471 369 471 338.5 507 c 128,-1,32
 308 543 308 543 252 543 c 0,33,34
 201 543 201 543 168 508 c 128,-1,35
 135 473 135 473 135 416 c 0,36,37
 135 360 135 360 165 326.5 c 128,-1,38
 195 293 195 293 250 293 c 0,39,40
 303 293 303 293 336 327.5 c 128,-1,41
 369 362 369 362 369 408 c 0,30,31
EndSplineSet
EndChar

StartChar: uni066A
Encoding: 100 1642 100
Width: 675
GlyphClass: 2
Flags: W
LayerCount: 2
Fore
SplineSet
634 139 m 0,0,1
 634 74 634 74 596.5 32.5 c 128,-1,2
 559 -9 559 -9 498 -9 c 0,3,4
 370 -9 370 -9 370 130 c 0,5,6
 370 193 370 193 407.5 234 c 128,-1,7
 445 275 445 275 506 275 c 0,8,9
 634 275 634 275 634 139 c 0,0,1
586 587 m 1,10,-1
 139 -20 l 1,11,-1
 84 20 l 1,12,-1
 532 626 l 1,13,-1
 586 587 l 1,10,-1
302 480 m 0,14,15
 302 414 302 414 265 373.5 c 128,-1,16
 228 333 228 333 166 333 c 0,17,18
 39 333 39 333 39 471 c 0,19,20
 39 535 39 535 76 575.5 c 128,-1,21
 113 616 113 616 175 616 c 0,22,23
 302 616 302 616 302 480 c 0,14,15
564 132 m 0,24,25
 564 177 564 177 549.5 197.5 c 128,-1,26
 535 218 535 218 502 218 c 0,27,28
 473 218 473 218 456.5 195.5 c 128,-1,29
 440 173 440 173 440 135 c 0,30,31
 440 50 440 50 505 50 c 0,32,33
 532 50 532 50 548 72 c 128,-1,34
 564 94 564 94 564 132 c 0,24,25
233 474 m 0,35,36
 233 518 233 518 218 538 c 128,-1,37
 203 558 203 558 170 558 c 0,38,39
 141 558 141 558 124.5 536.5 c 128,-1,40
 108 515 108 515 108 477 c 0,41,42
 108 390 108 390 173 390 c 0,43,44
 200 390 200 390 216.5 413 c 128,-1,45
 233 436 233 436 233 474 c 0,35,36
EndSplineSet
EndChar

StartChar: shaddadammatan
Encoding: 101 64606 101
Width: 0
GlyphClass: 3
Flags: W
LayerCount: 2
Fore
SplineSet
58 713 m 1,0,1
 78 664 78 664 120 653 c 1,2,-1
 120 666 l 2,3,4
 118 732 118 732 154.5 769 c 128,-1,5
 191 806 191 806 244 777 c 0,6,7
 319 733 319 733 282 664 c 0,8,9
 246 600 246 600 150 602 c 0,10,11
 119 602 119 602 87.5 614 c 128,-1,12
 56 626 56 626 42 647 c 1,13,-1
 5 622 l 1,14,-1
 -14 666 l 1,15,-1
 58 713 l 1,0,1
120 405 m 2,16,17
 92 401 92 401 73 408.5 c 128,-1,18
 54 416 54 416 46 431.5 c 128,-1,19
 38 447 38 447 35 461.5 c 128,-1,20
 32 476 32 476 32 494 c 2,21,-1
 32 546 l 1,22,-1
 80 554 l 1,23,-1
 80 494 l 2,24,25
 80 450 80 450 104 450 c 0,26,27
 108 450 108 450 120 452 c 1,28,-1
 120 546 l 1,29,-1
 168 554 l 1,30,-1
 168 486 l 2,31,32
 170 450 170 450 192 450 c 0,33,34
 196 450 196 450 208 452 c 1,35,-1
 208 546 l 1,36,-1
 256 554 l 1,37,-1
 256 438 l 2,38,39
 256 413 256 413 231 409 c 2,40,-1
 208 405 l 2,41,42
 174 401 174 401 153 412 c 1,43,-1
 143 409 l 1,44,-1
 120 405 l 2,16,17
221 735 m 0,45,46
 206 744 206 744 196.5 738.5 c 128,-1,47
 187 733 187 733 181 725.5 c 128,-1,48
 175 718 175 718 172.5 702.5 c 128,-1,49
 170 687 170 687 169 675.5 c 128,-1,50
 168 664 168 664 168 650 c 1,51,52
 223 653 223 653 239 686 c 0,53,54
 256 718 256 718 221 735 c 0,45,46
EndSplineSet
Ligature2: "'liga' Standard Ligatures in Arabic lookup 8 subtable" shadda dammatan
Ligature2: "'liga' Standard Ligatures in Arabic lookup 8 subtable" dammatan shadda
EndChar

StartChar: shaddakasratan
Encoding: 102 64607 102
Width: 0
GlyphClass: 3
Flags: W
LayerCount: 2
Fore
SplineSet
120 516 m 2,0,1
 92 512 92 512 73 519.5 c 128,-1,2
 54 527 54 527 46 543 c 128,-1,3
 38 559 38 559 35 573.5 c 128,-1,4
 32 588 32 588 32 606 c 2,5,-1
 32 657 l 1,6,-1
 80 665 l 1,7,-1
 80 606 l 2,8,9
 80 562 80 562 104 562 c 0,10,11
 114 562 114 562 120 563 c 1,12,-1
 120 657 l 1,13,-1
 168 665 l 1,14,-1
 168 606 l 2,15,16
 168 562 168 562 192 562 c 0,17,18
 202 562 202 562 208 563 c 1,19,-1
 208 657 l 1,20,-1
 256 665 l 1,21,-1
 256 549 l 2,22,23
 256 526 256 526 231 520 c 2,24,-1
 208 516 l 2,25,26
 174 512 174 512 153 523 c 1,27,-1
 143 520 l 1,28,-1
 120 516 l 2,0,1
238 486 m 1,29,-1
 238 438 l 1,30,-1
 50 408 l 1,31,-1
 50 456 l 1,32,-1
 238 486 l 1,29,-1
238 411 m 1,33,-1
 238 363 l 1,34,-1
 50 333 l 1,35,-1
 50 381 l 1,36,-1
 238 411 l 1,33,-1
EndSplineSet
Ligature2: "'liga' Standard Ligatures in Arabic lookup 8 subtable" shadda kasratan
Ligature2: "'liga' Standard Ligatures in Arabic lookup 8 subtable" kasratan shadda
EndChar

StartChar: shaddafatha
Encoding: 103 64608 103
Width: 0
GlyphClass: 3
Flags: W
LayerCount: 2
Fore
SplineSet
88 405 m 2,0,1
 60 401 60 401 41 408.5 c 128,-1,2
 22 416 22 416 14 431.5 c 128,-1,3
 6 447 6 447 3 461.5 c 128,-1,4
 0 476 0 476 0 494 c 2,5,-1
 0 546 l 1,6,-1
 48 554 l 1,7,-1
 48 494 l 2,8,9
 48 450 48 450 72 450 c 0,10,11
 76 450 76 450 88 452 c 1,12,-1
 88 546 l 1,13,-1
 136 554 l 1,14,-1
 136 494 l 2,15,16
 136 450 136 450 160 450 c 0,17,18
 164 450 164 450 176 452 c 1,19,-1
 176 546 l 1,20,-1
 224 554 l 1,21,-1
 224 438 l 2,22,23
 224 413 224 413 199 409 c 2,24,-1
 176 405 l 2,25,26
 142 401 142 401 121 412 c 1,27,-1
 111 409 l 1,28,-1
 88 405 l 2,0,1
206 660 m 1,29,-1
 206 612 l 1,30,-1
 18 582 l 1,31,-1
 18 630 l 1,32,-1
 206 660 l 1,29,-1
EndSplineSet
Ligature2: "'liga' Standard Ligatures in Arabic lookup 8 subtable" shadda fatha
Ligature2: "'liga' Standard Ligatures in Arabic lookup 8 subtable" fatha shadda
EndChar

StartChar: shaddadamma
Encoding: 104 64609 104
Width: 0
GlyphClass: 3
Flags: W
LayerCount: 2
Fore
SplineSet
6 642 m 1,0,-1
 29 684 l 1,1,2
 59 666 59 666 93 655 c 1,3,4
 87 729 87 729 126 766.5 c 128,-1,5
 165 804 165 804 217 776 c 0,6,7
 249 757 249 757 260.5 730.5 c 128,-1,8
 272 704 272 704 254 663 c 0,9,10
 244 645 244 645 222.5 630 c 128,-1,11
 201 615 201 615 170 606 c 128,-1,12
 139 597 139 597 95.5 605.5 c 128,-1,13
 52 614 52 614 6 642 c 1,0,-1
98 405 m 2,14,15
 70 401 70 401 51 408.5 c 128,-1,16
 32 416 32 416 24 431.5 c 128,-1,17
 16 447 16 447 13 461.5 c 128,-1,18
 10 476 10 476 10 494 c 2,19,-1
 10 546 l 1,20,-1
 58 554 l 1,21,-1
 58 494 l 2,22,23
 58 450 58 450 82 450 c 0,24,25
 86 450 86 450 98 452 c 1,26,-1
 98 546 l 1,27,-1
 146 554 l 1,28,-1
 146 494 l 2,29,30
 146 450 146 450 170 450 c 0,31,32
 174 450 174 450 186 452 c 1,33,-1
 186 546 l 1,34,-1
 234 554 l 1,35,-1
 234 438 l 2,36,37
 234 413 234 413 209 409 c 2,38,-1
 186 405 l 2,39,40
 152 401 152 401 131 412 c 1,41,-1
 121 409 l 1,42,-1
 98 405 l 2,14,15
212 686 m 0,43,44
 228 717 228 717 194 734 c 0,45,46
 167 747 167 747 154.5 723.5 c 128,-1,47
 142 700 142 700 141 650 c 1,48,49
 192 653 192 653 212 686 c 0,43,44
EndSplineSet
Ligature2: "'liga' Standard Ligatures in Arabic lookup 8 subtable" shadda damma
Ligature2: "'liga' Standard Ligatures in Arabic lookup 8 subtable" damma shadda
EndChar

StartChar: shaddakasra
Encoding: 105 64610 105
Width: 0
GlyphClass: 3
Flags: W
LayerCount: 2
Fore
SplineSet
88 516 m 2,0,1
 60 512 60 512 41 519.5 c 128,-1,2
 22 527 22 527 14 543 c 128,-1,3
 6 559 6 559 3 573.5 c 128,-1,4
 0 588 0 588 0 606 c 2,5,-1
 0 657 l 1,6,-1
 48 665 l 1,7,-1
 48 606 l 2,8,9
 48 562 48 562 72 562 c 0,10,11
 82 562 82 562 88 563 c 1,12,-1
 88 657 l 1,13,-1
 136 665 l 1,14,-1
 136 597 l 2,15,16
 138 562 138 562 160 562 c 0,17,18
 170 562 170 562 176 563 c 1,19,-1
 176 657 l 1,20,-1
 224 665 l 1,21,-1
 224 549 l 2,22,23
 224 526 224 526 199 520 c 2,24,-1
 176 516 l 2,25,26
 142 512 142 512 121 523 c 1,27,-1
 111 520 l 1,28,-1
 88 516 l 2,0,1
206 483 m 1,29,-1
 206 435 l 1,30,-1
 18 405 l 1,31,-1
 18 453 l 1,32,-1
 206 483 l 1,29,-1
EndSplineSet
Ligature2: "'liga' Standard Ligatures in Arabic lookup 8 subtable" shadda kasra
Ligature2: "'liga' Standard Ligatures in Arabic lookup 8 subtable" kasra shadda
EndChar

StartChar: aleffathatan.fin
Encoding: 106 64828 106
Width: 213
GlyphClass: 3
Flags: W
LayerCount: 2
Fore
SplineSet
189 724 m 1,0,-1
 189 676 l 1,1,-1
 0 611 l 1,2,-1
 0 659 l 1,3,-1
 189 724 l 1,0,-1
189 649 m 1,4,-1
 189 601 l 1,5,-1
 0 536 l 1,6,-1
 0 584 l 1,7,-1
 189 649 l 1,4,-1
40 501 m 1,8,-1
 130 533 l 1,9,-1
 130 150 l 2,10,11
 130 115 130 115 146 102.5 c 128,-1,12
 162 90 162 90 193 90 c 2,13,-1
 222 90 l 1,14,-1
 222 0 l 1,15,-1
 185 0 l 2,16,17
 40 0 40 0 40 138 c 2,18,-1
 40 501 l 1,8,-1
EndSplineSet
Ligature2: "'liga' Standard Ligatures in Arabic lookup 6 subtable" alef.fin fathatan
Ligature2: "'liga' Standard Ligatures in Arabic lookup 6 subtable" fathatan alef.fin
EndChar

StartChar: aleffathatan.iso
Encoding: 107 64829 107
Width: 170
GlyphClass: 3
Flags: W
LayerCount: 2
Fore
SplineSet
179 724 m 1,0,-1
 179 676 l 1,1,-1
 -10 611 l 1,2,-1
 -10 659 l 1,3,-1
 179 724 l 1,0,-1
179 649 m 1,4,-1
 179 601 l 1,5,-1
 -10 536 l 1,6,-1
 -10 584 l 1,7,-1
 179 649 l 1,4,-1
40 508 m 1,8,-1
 130 540 l 1,9,-1
 130 27 l 1,10,-1
 40 -6 l 1,11,-1
 40 508 l 1,8,-1
EndSplineSet
Ligature2: "'liga' Standard Ligatures in Arabic lookup 6 subtable" fathatan alef.iso
Ligature2: "'liga' Standard Ligatures in Arabic lookup 6 subtable" alef.iso fathatan
Substitution2: "'fina' Terminal Forms in Arabic lookup 5 subtable" aleffathatan.fin
Substitution2: "'aalt' Access All Alternates lookup 0 subtable" aleffathatan.fin
EndChar

StartChar: alefmaddaabove.fin
Encoding: 108 65154 108
Width: 213
GlyphClass: 5
Flags: W
LayerCount: 2
Fore
SplineSet
-14 611 m 1,0,1
 14 635 14 635 38 637.5 c 128,-1,2
 62 640 62 640 78 631 c 128,-1,3
 94 622 94 622 119 622.5 c 128,-1,4
 144 623 144 623 175 641 c 1,5,-1
 175 591 l 1,6,7
 150 574 150 574 128.5 571.5 c 128,-1,8
 107 569 107 569 91 575 c 128,-1,9
 75 581 75 581 59.5 586 c 128,-1,10
 44 591 44 591 25.5 586 c 128,-1,11
 7 581 7 581 -14 560 c 1,12,-1
 -14 611 l 1,0,1
40 508 m 1,13,-1
 130 540 l 1,14,-1
 130 150 l 2,15,16
 130 115 130 115 146 102.5 c 128,-1,17
 162 90 162 90 193 90 c 2,18,-1
 222 90 l 1,19,-1
 222 0 l 1,20,-1
 185 0 l 2,21,22
 40 0 40 0 40 138 c 2,23,-1
 40 508 l 1,13,-1
EndSplineSet
EndChar

StartChar: alefhamzaabove.fin
Encoding: 109 65156 109
Width: 213
GlyphClass: 5
Flags: W
LayerCount: 2
Fore
SplineSet
40 508 m 1,0,-1
 130 540 l 1,1,-1
 130 150 l 2,2,3
 130 115 130 115 146 102.5 c 128,-1,4
 162 90 162 90 193 90 c 2,5,-1
 222 90 l 1,6,-1
 222 0 l 1,7,-1
 185 0 l 2,8,9
 40 0 40 0 40 138 c 2,10,-1
 40 508 l 1,0,-1
149 578 m 1,11,-1
 4 578 l 1,12,-1
 4 628 l 1,13,-1
 26 628 l 1,14,15
 22 642 22 642 22 650 c 0,16,17
 22 685 22 685 45.5 703.5 c 128,-1,18
 69 722 69 722 102 722 c 0,19,20
 128 722 128 722 152 711 c 1,21,-1
 130 667 l 1,22,23
 112 674 112 674 101 674 c 0,24,25
 72 674 72 674 72 650 c 0,26,27
 72 628 72 628 93 628 c 2,28,-1
 149 628 l 1,29,-1
 149 578 l 1,11,-1
EndSplineSet
EndChar

StartChar: wawhamza.fin
Encoding: 110 65158 110
Width: 488
GlyphClass: 2
Flags: W
LayerCount: 2
Fore
SplineSet
282 453 m 1,0,-1
 137 453 l 1,1,-1
 137 503 l 1,2,-1
 159 503 l 1,3,4
 155 517 155 517 155 525 c 0,5,6
 155 560 155 560 178.5 578.5 c 128,-1,7
 202 597 202 597 235 597 c 0,8,9
 261 597 261 597 285 586 c 1,10,-1
 263 542 l 1,11,12
 246 549 246 549 234 549 c 0,13,14
 205 549 205 549 205 525 c 0,15,16
 205 503 205 503 226 503 c 2,17,-1
 282 503 l 1,18,-1
 282 453 l 1,0,-1
265 -222 m 1,19,-1
 162 -169 l 1,20,21
 316 -115 316 -115 316 -2 c 2,22,-1
 316 0 l 1,23,-1
 197 0 l 2,24,25
 128 0 128 0 79 66.5 c 128,-1,26
 30 133 30 133 30 209 c 0,27,28
 30 248 30 248 38 281.5 c 128,-1,29
 46 315 46 315 65 347 c 128,-1,30
 84 379 84 379 121.5 397 c 128,-1,31
 159 415 159 415 213 415 c 2,32,-1
 406 415 l 1,33,-1
 406 90 l 1,34,-1
 492 90 l 1,35,-1
 492 0 l 1,36,-1
 406 0 l 1,37,-1
 406 -2 l 2,38,39
 406 -144 406 -144 265 -222 c 1,19,-1
316 325 m 1,40,-1
 213 325 l 2,41,42
 120 325 120 325 120 209 c 0,43,44
 120 165 120 165 146.5 127.5 c 128,-1,45
 173 90 173 90 213 90 c 2,46,-1
 316 90 l 1,47,-1
 316 325 l 1,40,-1
EndSplineSet
EndChar

StartChar: alefhamzabelow.fin
Encoding: 111 65160 111
Width: 213
GlyphClass: 5
Flags: W
LayerCount: 2
Fore
SplineSet
160 -176 m 1,0,-1
 15 -176 l 1,1,-1
 15 -126 l 1,2,-1
 37 -126 l 1,3,4
 33 -112 33 -112 33 -104 c 0,5,6
 33 -69 33 -69 56.5 -50.5 c 128,-1,7
 80 -32 80 -32 113 -32 c 0,8,9
 139 -32 139 -32 163 -43 c 1,10,-1
 141 -87 l 1,11,12
 124 -80 124 -80 112 -80 c 0,13,14
 83 -80 83 -80 83 -104 c 0,15,16
 83 -126 83 -126 104 -126 c 2,17,-1
 160 -126 l 1,18,-1
 160 -176 l 1,0,-1
40 579 m 1,19,-1
 130 611 l 1,20,-1
 130 150 l 2,21,22
 130 115 130 115 146 102.5 c 128,-1,23
 162 90 162 90 193 90 c 2,24,-1
 222 90 l 1,25,-1
 222 0 l 1,26,-1
 185 0 l 2,27,28
 40 0 40 0 40 138 c 2,29,-1
 40 579 l 1,19,-1
EndSplineSet
EndChar

StartChar: yehhamza.fin
Encoding: 112 65162 112
Width: 727
GlyphClass: 2
Flags: W
LayerCount: 2
Fore
SplineSet
157 253 m 1,0,-1
 12 253 l 1,1,-1
 12 303 l 1,2,-1
 34 303 l 1,3,4
 30 317 30 317 30 325 c 0,5,6
 30 360 30 360 53.5 378.5 c 128,-1,7
 77 397 77 397 110 397 c 0,8,9
 136 397 136 397 160 386 c 1,10,-1
 138 342 l 1,11,12
 121 349 121 349 109 349 c 0,13,14
 80 349 80 349 80 325 c 0,15,16
 80 303 80 303 101 303 c 2,17,-1
 157 303 l 1,18,-1
 157 253 l 1,0,-1
500 243 m 1,19,-1
 590 275 l 1,20,-1
 590 208 l 2,21,22
 590 150 590 150 622.5 120 c 128,-1,23
 655 90 655 90 711 90 c 2,24,-1
 737 90 l 1,25,-1
 737 0 l 1,26,-1
 709 0 l 2,27,28
 638 0 638 0 590 27 c 1,29,-1
 590 -2 l 2,30,31
 590 -140 590 -140 444 -140 c 2,32,-1
 175 -140 l 2,33,34
 30 -140 30 -140 30 -2 c 2,35,-1
 30 171 l 1,36,-1
 120 203 l 1,37,-1
 120 10 l 2,38,39
 120 -25 120 -25 136 -37.5 c 128,-1,40
 152 -50 152 -50 183 -50 c 2,41,-1
 437 -50 l 2,42,43
 469 -50 469 -50 484.5 -38 c 128,-1,44
 500 -26 500 -26 500 10 c 2,45,-1
 500 243 l 1,19,-1
EndSplineSet
EndChar

StartChar: yehhamza.ini
Encoding: 113 65163 113
Width: 244
GlyphClass: 2
Flags: W
LayerCount: 2
Fore
SplineSet
187 415 m 1,0,-1
 187 138 l 2,1,2
 187 0 187 0 42 0 c 2,3,-1
 0 0 l 1,4,-1
 0 90 l 1,5,-1
 34 90 l 2,6,7
 66 90 66 90 81.5 101.5 c 128,-1,8
 97 113 97 113 97 149 c 2,9,-1
 97 383 l 1,10,-1
 187 415 l 1,0,-1
206 466 m 1,11,-1
 61 466 l 1,12,-1
 61 516 l 1,13,-1
 83 516 l 1,14,15
 79 530 79 530 79 538 c 0,16,17
 79 573 79 573 102.5 591.5 c 128,-1,18
 126 610 126 610 159 610 c 0,19,20
 185 610 185 610 209 599 c 1,21,-1
 187 555 l 1,22,23
 169 562 169 562 158 562 c 0,24,25
 129 562 129 562 129 538 c 0,26,27
 129 516 129 516 150 516 c 2,28,-1
 206 516 l 1,29,-1
 206 466 l 1,11,-1
EndSplineSet
EndChar

StartChar: yehhamza.med
Encoding: 114 65164 114
Width: 290
GlyphClass: 2
Flags: W
LayerCount: 2
Fore
SplineSet
190 415 m 1,0,-1
 190 143 l 2,1,2
 190 121 190 121 207 105.5 c 128,-1,3
 224 90 224 90 248 90 c 2,4,-1
 296 90 l 1,5,-1
 296 0 l 1,6,-1
 248 0 l 2,7,8
 187 0 187 0 145 42 c 1,9,10
 101 0 101 0 42 0 c 2,11,-1
 0 0 l 1,12,-1
 0 90 l 1,13,-1
 42 90 l 2,14,15
 65 90 65 90 82.5 105.5 c 128,-1,16
 100 121 100 121 100 143 c 2,17,-1
 100 383 l 1,18,-1
 190 415 l 1,0,-1
209 466 m 1,19,-1
 64 466 l 1,20,-1
 64 516 l 1,21,-1
 86 516 l 1,22,23
 82 530 82 530 82 538 c 0,24,25
 82 573 82 573 105.5 591.5 c 128,-1,26
 129 610 129 610 162 610 c 0,27,28
 188 610 188 610 212 599 c 1,29,-1
 190 555 l 1,30,31
 172 562 172 562 161 562 c 0,32,33
 132 562 132 562 132 538 c 0,34,35
 132 516 132 516 153 516 c 2,36,-1
 209 516 l 1,37,-1
 209 466 l 1,19,-1
EndSplineSet
EndChar

StartChar: alef.fin
Encoding: 115 65166 115
Width: 213
GlyphClass: 5
Flags: W
LayerCount: 2
Fore
SplineSet
40 579 m 1,0,-1
 130 611 l 1,1,-1
 130 150 l 2,2,3
 130 115 130 115 146 102.5 c 128,-1,4
 162 90 162 90 193 90 c 2,5,-1
 222 90 l 1,6,-1
 222 0 l 1,7,-1
 185 0 l 2,8,9
 40 0 40 0 40 138 c 2,10,-1
 40 579 l 1,0,-1
EndSplineSet
EndChar

StartChar: beh.fin
Encoding: 116 65168 116
Width: 763
GlyphClass: 2
Flags: W
LayerCount: 2
Fore
SplineSet
597 383 m 1,0,-1
 687 415 l 1,1,-1
 687 153 l 2,2,3
 687 127 687 127 704 108.5 c 128,-1,4
 721 90 721 90 746 90 c 2,5,-1
 770 90 l 1,6,-1
 770 0 l 1,7,-1
 746 0 l 2,8,9
 691 0 691 0 651 35 c 1,10,11
 614 0 614 0 541 0 c 2,12,-1
 175 0 l 2,13,14
 30 0 30 0 30 138 c 2,15,-1
 30 383 l 1,16,-1
 120 415 l 1,17,-1
 120 150 l 2,18,19
 120 115 120 115 136 102.5 c 128,-1,20
 152 90 152 90 183 90 c 2,21,-1
 534 90 l 2,22,23
 566 90 566 90 581.5 102 c 128,-1,24
 597 114 597 114 597 150 c 2,25,-1
 597 383 l 1,0,-1
358 -188 m 1,26,-1
 294 -124 l 1,27,-1
 358 -60 l 1,28,-1
 422 -124 l 1,29,-1
 358 -188 l 1,26,-1
EndSplineSet
EndChar

StartChar: beh.ini
Encoding: 117 65169 117
Width: 244
GlyphClass: 2
Flags: W
LayerCount: 2
Fore
SplineSet
187 415 m 1,0,-1
 187 138 l 2,1,2
 187 0 187 0 42 0 c 2,3,-1
 0 0 l 1,4,-1
 0 90 l 1,5,-1
 34 90 l 2,6,7
 66 90 66 90 81.5 101.5 c 128,-1,8
 97 113 97 113 97 149 c 2,9,-1
 97 383 l 1,10,-1
 187 415 l 1,0,-1
135 -188 m 1,11,-1
 71 -124 l 1,12,-1
 135 -60 l 1,13,-1
 199 -124 l 1,14,-1
 135 -188 l 1,11,-1
EndSplineSet
EndChar

StartChar: beh.med
Encoding: 118 65170 118
Width: 290
GlyphClass: 2
Flags: W
LayerCount: 2
Fore
SplineSet
138 -188 m 1,0,-1
 74 -124 l 1,1,-1
 138 -60 l 1,2,-1
 202 -124 l 1,3,-1
 138 -188 l 1,0,-1
190 415 m 1,4,-1
 190 143 l 2,5,6
 190 121 190 121 207 105.5 c 128,-1,7
 224 90 224 90 248 90 c 2,8,-1
 296 90 l 1,9,-1
 296 0 l 1,10,-1
 248 0 l 2,11,12
 187 0 187 0 145 42 c 1,13,14
 101 0 101 0 42 0 c 2,15,-1
 0 0 l 1,16,-1
 0 90 l 1,17,-1
 42 90 l 2,18,19
 65 90 65 90 82.5 105.5 c 128,-1,20
 100 121 100 121 100 143 c 2,21,-1
 100 383 l 1,22,-1
 190 415 l 1,4,-1
EndSplineSet
EndChar

StartChar: tehmarbuta.fin
Encoding: 119 65172 119
Width: 496
GlyphClass: 2
Flags: W
LayerCount: 2
Fore
SplineSet
196 483 m 1,0,-1
 132 547 l 1,1,-1
 196 611 l 1,2,-1
 260 547 l 1,3,-1
 196 483 l 1,0,-1
324 483 m 1,4,-1
 260 547 l 1,5,-1
 324 611 l 1,6,-1
 388 547 l 1,7,-1
 324 483 l 1,4,-1
256 0 m 1,8,-1
 197 0 l 2,9,10
 128 0 128 0 79 66.5 c 128,-1,11
 30 133 30 133 30 209 c 0,12,13
 30 248 30 248 38 281.5 c 128,-1,14
 46 315 46 315 65 347 c 128,-1,15
 84 379 84 379 121.5 397 c 128,-1,16
 159 415 159 415 213 415 c 2,17,-1
 406 415 l 1,18,-1
 406 90 l 1,19,-1
 505 90 l 1,20,-1
 505 0 l 1,21,-1
 316 0 l 1,22,-1
 316 60 l 1,23,-1
 256 0 l 1,8,-1
316 325 m 1,24,-1
 213 325 l 2,25,26
 120 325 120 325 120 209 c 0,27,28
 120 165 120 165 146.5 127.5 c 128,-1,29
 173 90 173 90 213 90 c 2,30,-1
 316 90 l 1,31,-1
 316 325 l 1,24,-1
EndSplineSet
EndChar

StartChar: teh.fin
Encoding: 120 65174 120
Width: 763
GlyphClass: 2
Flags: W
LayerCount: 2
Fore
SplineSet
597 383 m 1,0,-1
 687 415 l 1,1,-1
 687 148 l 2,2,3
 687 124 687 124 704.5 107 c 128,-1,4
 722 90 722 90 746 90 c 2,5,-1
 770 90 l 1,6,-1
 770 0 l 1,7,-1
 746 0 l 2,8,9
 691 0 691 0 651 35 c 1,10,11
 614 0 614 0 541 0 c 2,12,-1
 175 0 l 2,13,14
 30 0 30 0 30 138 c 2,15,-1
 30 383 l 1,16,-1
 120 415 l 1,17,-1
 120 150 l 2,18,19
 120 115 120 115 136 102.5 c 128,-1,20
 152 90 152 90 183 90 c 2,21,-1
 534 90 l 2,22,23
 565 90 565 90 580.5 101.5 c 128,-1,24
 596 113 596 113 597 147 c 2,25,-1
 597 383 l 1,0,-1
423 483 m 1,26,-1
 359 547 l 1,27,-1
 423 611 l 1,28,-1
 487 547 l 1,29,-1
 423 483 l 1,26,-1
295 483 m 1,30,-1
 231 547 l 1,31,-1
 295 611 l 1,32,-1
 359 547 l 1,33,-1
 295 483 l 1,30,-1
EndSplineSet
EndChar

StartChar: teh.ini
Encoding: 121 65175 121
Width: 244
GlyphClass: 2
Flags: W
LayerCount: 2
Fore
SplineSet
64 483 m 1,0,-1
 0 547 l 1,1,-1
 64 611 l 1,2,-1
 128 547 l 1,3,-1
 64 483 l 1,0,-1
192 483 m 1,4,-1
 128 547 l 1,5,-1
 192 611 l 1,6,-1
 256 547 l 1,7,-1
 192 483 l 1,4,-1
187 415 m 1,8,-1
 187 138 l 2,9,10
 187 0 187 0 42 0 c 2,11,-1
 0 0 l 1,12,-1
 0 90 l 1,13,-1
 34 90 l 2,14,15
 66 90 66 90 81.5 101.5 c 128,-1,16
 97 113 97 113 97 149 c 2,17,-1
 97 383 l 1,18,-1
 187 415 l 1,8,-1
EndSplineSet
EndChar

StartChar: teh.med
Encoding: 122 65176 122
Width: 290
GlyphClass: 2
Flags: W
LayerCount: 2
Fore
SplineSet
77 483 m 1,0,-1
 13 547 l 1,1,-1
 77 611 l 1,2,-1
 141 547 l 1,3,-1
 77 483 l 1,0,-1
205 483 m 1,4,-1
 141 547 l 1,5,-1
 205 611 l 1,6,-1
 269 547 l 1,7,-1
 205 483 l 1,4,-1
190 415 m 1,8,-1
 190 143 l 2,9,10
 190 121 190 121 207 105.5 c 128,-1,11
 224 90 224 90 248 90 c 2,12,-1
 296 90 l 1,13,-1
 296 0 l 1,14,-1
 248 0 l 2,15,16
 187 0 187 0 145 42 c 1,17,18
 101 0 101 0 42 0 c 2,19,-1
 0 0 l 1,20,-1
 0 90 l 1,21,-1
 42 90 l 2,22,23
 65 90 65 90 82.5 105.5 c 128,-1,24
 100 121 100 121 100 143 c 2,25,-1
 100 383 l 1,26,-1
 190 415 l 1,8,-1
EndSplineSet
EndChar

StartChar: theh.fin
Encoding: 123 65178 123
Width: 763
GlyphClass: 2
Flags: W
LayerCount: 2
Fore
SplineSet
597 383 m 1,0,-1
 687 415 l 1,1,-1
 687 148 l 2,2,3
 687 124 687 124 704.5 107 c 128,-1,4
 722 90 722 90 746 90 c 2,5,-1
 770 90 l 1,6,-1
 770 0 l 1,7,-1
 746 0 l 2,8,9
 691 0 691 0 651 35 c 1,10,11
 614 0 614 0 541 0 c 2,12,-1
 175 0 l 2,13,14
 30 0 30 0 30 138 c 2,15,-1
 30 383 l 1,16,-1
 120 415 l 1,17,-1
 120 150 l 2,18,19
 120 115 120 115 136 102.5 c 128,-1,20
 152 90 152 90 183 90 c 2,21,-1
 534 90 l 2,22,23
 566 90 566 90 581.5 102 c 128,-1,24
 597 114 597 114 597 150 c 2,25,-1
 597 383 l 1,0,-1
423 483 m 1,26,-1
 359 547 l 1,27,-1
 423 611 l 1,28,-1
 487 547 l 1,29,-1
 423 483 l 1,26,-1
295 483 m 1,30,-1
 231 547 l 1,31,-1
 295 611 l 1,32,-1
 359 547 l 1,33,-1
 295 483 l 1,30,-1
359 591 m 1,34,-1
 295 655 l 1,35,-1
 359 719 l 1,36,-1
 423 655 l 1,37,-1
 359 591 l 1,34,-1
EndSplineSet
EndChar

StartChar: theh.ini
Encoding: 124 65179 124
Width: 244
GlyphClass: 2
Flags: W
LayerCount: 2
Fore
SplineSet
128 591 m 1,0,-1
 64 655 l 1,1,-1
 128 719 l 1,2,-1
 192 655 l 1,3,-1
 128 591 l 1,0,-1
64 483 m 1,4,-1
 0 547 l 1,5,-1
 64 611 l 1,6,-1
 128 547 l 1,7,-1
 64 483 l 1,4,-1
192 483 m 1,8,-1
 128 547 l 1,9,-1
 192 611 l 1,10,-1
 256 547 l 1,11,-1
 192 483 l 1,8,-1
187 415 m 1,12,-1
 187 138 l 2,13,14
 187 0 187 0 42 0 c 2,15,-1
 0 0 l 1,16,-1
 0 90 l 1,17,-1
 34 90 l 2,18,19
 66 90 66 90 81.5 101.5 c 128,-1,20
 97 113 97 113 97 149 c 2,21,-1
 97 383 l 1,22,-1
 187 415 l 1,12,-1
EndSplineSet
EndChar

StartChar: theh.med
Encoding: 125 65180 125
Width: 290
GlyphClass: 2
Flags: W
LayerCount: 2
Fore
SplineSet
146 591 m 1,0,-1
 82 655 l 1,1,-1
 146 719 l 1,2,-1
 210 655 l 1,3,-1
 146 591 l 1,0,-1
82 483 m 1,4,-1
 18 547 l 1,5,-1
 82 611 l 1,6,-1
 146 547 l 1,7,-1
 82 483 l 1,4,-1
210 483 m 1,8,-1
 146 547 l 1,9,-1
 210 611 l 1,10,-1
 274 547 l 1,11,-1
 210 483 l 1,8,-1
190 415 m 1,12,-1
 190 143 l 2,13,14
 190 121 190 121 207 105.5 c 128,-1,15
 224 90 224 90 248 90 c 2,16,-1
 296 90 l 1,17,-1
 296 0 l 1,18,-1
 248 0 l 2,19,20
 187 0 187 0 145 42 c 1,21,22
 101 0 101 0 42 0 c 2,23,-1
 0 0 l 1,24,-1
 0 90 l 1,25,-1
 42 90 l 2,26,27
 65 90 65 90 82.5 105.5 c 128,-1,28
 100 121 100 121 100 143 c 2,29,-1
 100 383 l 1,30,-1
 190 415 l 1,12,-1
EndSplineSet
EndChar

StartChar: jeem.fin
Encoding: 126 65182 126
Width: 600
GlyphClass: 2
Flags: W
LayerCount: 2
Fore
SplineSet
319 -188 m 1,0,-1
 255 -124 l 1,1,-1
 319 -60 l 1,2,-1
 383 -124 l 1,3,-1
 319 -188 l 1,0,-1
30 -126 m 0,4,5
 30 -31 30 -31 93 29.5 c 128,-1,6
 156 90 156 90 246 90 c 2,7,-1
 422 90 l 1,8,9
 401 128 401 128 377 216 c 0,10,11
 369 248 369 248 356 270 c 128,-1,12
 343 292 343 292 331 303 c 128,-1,13
 319 314 319 314 298 319.5 c 128,-1,14
 277 325 277 325 263 326 c 128,-1,15
 249 327 249 327 221 327 c 2,16,-1
 154 327 l 1,17,18
 160 342 160 342 170 369.5 c 128,-1,19
 180 397 180 397 186 415 c 1,20,-1
 251 415 l 2,21,22
 286 415 286 415 314.5 408 c 128,-1,23
 343 401 343 401 362.5 392.5 c 128,-1,24
 382 384 382 384 398.5 366 c 128,-1,25
 415 348 415 348 424 336 c 128,-1,26
 433 324 433 324 442.5 299 c 128,-1,27
 452 274 452 274 455.5 262.5 c 128,-1,28
 459 251 459 251 466 224 c 0,29,30
 475 188 475 188 480.5 170.5 c 128,-1,31
 486 153 486 153 496 131 c 128,-1,32
 506 109 506 109 519 99.5 c 128,-1,33
 532 90 532 90 550 90 c 2,34,-1
 607 90 l 1,35,-1
 607 0 l 1,36,-1
 246 0 l 2,37,38
 190 0 190 0 155 -34.5 c 128,-1,39
 120 -69 120 -69 120 -126 c 0,40,41
 120 -184 120 -184 155.5 -222 c 128,-1,42
 191 -260 191 -260 246 -260 c 2,43,-1
 396 -260 l 1,44,-1
 355 -350 l 1,45,-1
 246 -350 l 2,46,47
 153 -350 153 -350 91.5 -287 c 128,-1,48
 30 -224 30 -224 30 -126 c 0,4,5
EndSplineSet
EndChar

StartChar: jeem.ini
Encoding: 127 65183 127
Width: 511
GlyphClass: 2
Flags: W
LayerCount: 2
Fore
SplineSet
203 -188 m 1,0,-1
 139 -124 l 1,1,-1
 203 -60 l 1,2,-1
 267 -124 l 1,3,-1
 203 -188 l 1,0,-1
480 0 m 1,4,-1
 0 0 l 1,5,-1
 0 90 l 1,6,-1
 352 90 l 1,7,8
 331 128 331 128 307 216 c 0,9,10
 299 248 299 248 286 270 c 128,-1,11
 273 292 273 292 261 303 c 128,-1,12
 249 314 249 314 228 319.5 c 128,-1,13
 207 325 207 325 193 326 c 128,-1,14
 179 327 179 327 151 327 c 2,15,-1
 84 327 l 1,16,17
 90 342 90 342 100 369.5 c 128,-1,18
 110 397 110 397 116 415 c 1,19,-1
 181 415 l 2,20,21
 216 415 216 415 244.5 408 c 128,-1,22
 273 401 273 401 292.5 392.5 c 128,-1,23
 312 384 312 384 328.5 366 c 128,-1,24
 345 348 345 348 354 336 c 128,-1,25
 363 324 363 324 372.5 299 c 128,-1,26
 382 274 382 274 385.5 262.5 c 128,-1,27
 389 251 389 251 396 224 c 0,28,29
 412 161 412 161 429.5 129.5 c 128,-1,30
 447 98 447 98 480 90 c 1,31,-1
 480 0 l 1,4,-1
EndSplineSet
EndChar

StartChar: jeem.med
Encoding: 128 65184 128
Width: 535
GlyphClass: 2
Flags: W
LayerCount: 2
Fore
SplineSet
203 -188 m 1,0,-1
 139 -124 l 1,1,-1
 203 -60 l 1,2,-1
 267 -124 l 1,3,-1
 203 -188 l 1,0,-1
545 0 m 1,4,-1
 0 0 l 1,5,-1
 0 90 l 1,6,-1
 360 90 l 1,7,8
 339 128 339 128 315 216 c 0,9,10
 307 248 307 248 294 270 c 128,-1,11
 281 292 281 292 269 303 c 128,-1,12
 257 314 257 314 236 319.5 c 128,-1,13
 215 325 215 325 201 326 c 128,-1,14
 187 327 187 327 159 327 c 2,15,-1
 92 327 l 1,16,17
 98 342 98 342 108 369.5 c 128,-1,18
 118 397 118 397 124 415 c 1,19,-1
 189 415 l 2,20,21
 224 415 224 415 252.5 408 c 128,-1,22
 281 401 281 401 300.5 392.5 c 128,-1,23
 320 384 320 384 336.5 366 c 128,-1,24
 353 348 353 348 362 336 c 128,-1,25
 371 324 371 324 380.5 299 c 128,-1,26
 390 274 390 274 393.5 262.5 c 128,-1,27
 397 251 397 251 404 224 c 0,28,29
 421 159 421 159 441 124.5 c 128,-1,30
 461 90 461 90 494 90 c 2,31,-1
 545 90 l 1,32,-1
 545 0 l 1,4,-1
EndSplineSet
EndChar

StartChar: hah.fin
Encoding: 129 65186 129
Width: 600
GlyphClass: 2
Flags: W
LayerCount: 2
Fore
SplineSet
30 -126 m 0,0,1
 30 -31 30 -31 93 29.5 c 128,-1,2
 156 90 156 90 246 90 c 2,3,-1
 422 90 l 1,4,5
 401 128 401 128 377 216 c 0,6,7
 369 248 369 248 356 270 c 128,-1,8
 343 292 343 292 331 303 c 128,-1,9
 319 314 319 314 298 319.5 c 128,-1,10
 277 325 277 325 263 326 c 128,-1,11
 249 327 249 327 221 327 c 2,12,-1
 154 327 l 1,13,14
 160 342 160 342 170 369.5 c 128,-1,15
 180 397 180 397 186 415 c 1,16,-1
 251 415 l 2,17,18
 286 415 286 415 314.5 408 c 128,-1,19
 343 401 343 401 362.5 392.5 c 128,-1,20
 382 384 382 384 398.5 366 c 128,-1,21
 415 348 415 348 424 336 c 128,-1,22
 433 324 433 324 442.5 299 c 128,-1,23
 452 274 452 274 455.5 262.5 c 128,-1,24
 459 251 459 251 466 224 c 0,25,26
 475 188 475 188 480.5 170.5 c 128,-1,27
 486 153 486 153 496 131 c 128,-1,28
 506 109 506 109 519 99.5 c 128,-1,29
 532 90 532 90 550 90 c 2,30,-1
 607 90 l 1,31,-1
 607 0 l 1,32,-1
 246 0 l 2,33,34
 190 0 190 0 155 -34.5 c 128,-1,35
 120 -69 120 -69 120 -126 c 0,36,37
 120 -184 120 -184 155.5 -222 c 128,-1,38
 191 -260 191 -260 246 -260 c 2,39,-1
 396 -260 l 1,40,-1
 355 -350 l 1,41,-1
 246 -350 l 2,42,43
 153 -350 153 -350 91.5 -287 c 128,-1,44
 30 -224 30 -224 30 -126 c 0,0,1
EndSplineSet
EndChar

StartChar: hah.ini
Encoding: 130 65187 130
Width: 511
GlyphClass: 2
Flags: W
LayerCount: 2
Fore
SplineSet
480 0 m 1,0,-1
 0 0 l 1,1,-1
 0 90 l 1,2,-1
 352 90 l 1,3,4
 331 128 331 128 307 216 c 0,5,6
 299 248 299 248 286 270 c 128,-1,7
 273 292 273 292 261 303 c 128,-1,8
 249 314 249 314 228 319.5 c 128,-1,9
 207 325 207 325 193 326 c 128,-1,10
 179 327 179 327 151 327 c 2,11,-1
 84 327 l 1,12,13
 90 342 90 342 100 369.5 c 128,-1,14
 110 397 110 397 116 415 c 1,15,-1
 181 415 l 2,16,17
 216 415 216 415 244.5 408 c 128,-1,18
 273 401 273 401 292.5 392.5 c 128,-1,19
 312 384 312 384 328.5 366 c 128,-1,20
 345 348 345 348 354 336 c 128,-1,21
 363 324 363 324 372.5 299 c 128,-1,22
 382 274 382 274 385.5 262.5 c 128,-1,23
 389 251 389 251 396 224 c 0,24,25
 412 161 412 161 429.5 129.5 c 128,-1,26
 447 98 447 98 480 90 c 1,27,-1
 480 0 l 1,0,-1
EndSplineSet
EndChar

StartChar: hah.med
Encoding: 131 65188 131
Width: 535
GlyphClass: 2
Flags: W
LayerCount: 2
Fore
SplineSet
545 0 m 1,0,-1
 0 0 l 1,1,-1
 0 90 l 1,2,-1
 360 90 l 1,3,4
 339 128 339 128 315 216 c 0,5,6
 307 248 307 248 294 270 c 128,-1,7
 281 292 281 292 269 303 c 128,-1,8
 257 314 257 314 236 319.5 c 128,-1,9
 215 325 215 325 201 326 c 128,-1,10
 187 327 187 327 159 327 c 2,11,-1
 92 327 l 1,12,13
 98 342 98 342 108 369.5 c 128,-1,14
 118 397 118 397 124 415 c 1,15,-1
 189 415 l 2,16,17
 224 415 224 415 252.5 408 c 128,-1,18
 281 401 281 401 300.5 392.5 c 128,-1,19
 320 384 320 384 336.5 366 c 128,-1,20
 353 348 353 348 362 336 c 128,-1,21
 371 324 371 324 380.5 299 c 128,-1,22
 390 274 390 274 393.5 262.5 c 128,-1,23
 397 251 397 251 404 224 c 0,24,25
 421 159 421 159 441 124.5 c 128,-1,26
 461 90 461 90 494 90 c 2,27,-1
 545 90 l 1,28,-1
 545 0 l 1,0,-1
EndSplineSet
EndChar

StartChar: khah.fin
Encoding: 132 65190 132
Width: 600
GlyphClass: 2
Flags: W
LayerCount: 2
Fore
SplineSet
297 476 m 1,0,-1
 233 540 l 1,1,-1
 297 604 l 1,2,-1
 361 540 l 1,3,-1
 297 476 l 1,0,-1
30 -126 m 0,4,5
 30 -31 30 -31 93 29.5 c 128,-1,6
 156 90 156 90 246 90 c 2,7,-1
 422 90 l 1,8,9
 401 128 401 128 377 216 c 0,10,11
 369 248 369 248 356 270 c 128,-1,12
 343 292 343 292 331 303 c 128,-1,13
 319 314 319 314 298 319.5 c 128,-1,14
 277 325 277 325 263 326 c 128,-1,15
 249 327 249 327 221 327 c 2,16,-1
 154 327 l 1,17,18
 160 342 160 342 170 369.5 c 128,-1,19
 180 397 180 397 186 415 c 1,20,-1
 251 415 l 2,21,22
 286 415 286 415 314.5 408 c 128,-1,23
 343 401 343 401 362.5 392.5 c 128,-1,24
 382 384 382 384 398.5 366 c 128,-1,25
 415 348 415 348 424 336 c 128,-1,26
 433 324 433 324 442.5 299 c 128,-1,27
 452 274 452 274 455.5 262.5 c 128,-1,28
 459 251 459 251 466 224 c 0,29,30
 475 188 475 188 480.5 170.5 c 128,-1,31
 486 153 486 153 496 131 c 128,-1,32
 506 109 506 109 519 99.5 c 128,-1,33
 532 90 532 90 550 90 c 2,34,-1
 607 90 l 1,35,-1
 607 0 l 1,36,-1
 246 0 l 2,37,38
 190 0 190 0 155 -34.5 c 128,-1,39
 120 -69 120 -69 120 -126 c 0,40,41
 120 -184 120 -184 155.5 -222 c 128,-1,42
 191 -260 191 -260 246 -260 c 2,43,-1
 396 -260 l 1,44,-1
 355 -350 l 1,45,-1
 246 -350 l 2,46,47
 153 -350 153 -350 91.5 -287 c 128,-1,48
 30 -224 30 -224 30 -126 c 0,4,5
EndSplineSet
EndChar

StartChar: khah.ini
Encoding: 133 65191 133
Width: 511
GlyphClass: 2
Flags: W
LayerCount: 2
Fore
SplineSet
201 476 m 1,0,-1
 137 540 l 1,1,-1
 201 604 l 1,2,-1
 265 540 l 1,3,-1
 201 476 l 1,0,-1
480 0 m 1,4,-1
 0 0 l 1,5,-1
 0 90 l 1,6,-1
 352 90 l 1,7,8
 331 128 331 128 307 216 c 0,9,10
 299 248 299 248 286 270 c 128,-1,11
 273 292 273 292 261 303 c 128,-1,12
 249 314 249 314 228 319.5 c 128,-1,13
 207 325 207 325 193 326 c 128,-1,14
 179 327 179 327 151 327 c 2,15,-1
 84 327 l 1,16,17
 90 342 90 342 100 369.5 c 128,-1,18
 110 397 110 397 116 415 c 1,19,-1
 181 415 l 2,20,21
 216 415 216 415 244.5 408 c 128,-1,22
 273 401 273 401 292.5 392.5 c 128,-1,23
 312 384 312 384 328.5 366 c 128,-1,24
 345 348 345 348 354 336 c 128,-1,25
 363 324 363 324 372.5 299 c 128,-1,26
 382 274 382 274 385.5 262.5 c 128,-1,27
 389 251 389 251 396 224 c 0,28,29
 412 161 412 161 429.5 129.5 c 128,-1,30
 447 98 447 98 480 90 c 1,31,-1
 480 0 l 1,4,-1
EndSplineSet
EndChar

StartChar: khah.med
Encoding: 134 65192 134
Width: 535
GlyphClass: 2
Flags: W
LayerCount: 2
Fore
SplineSet
201 476 m 1,0,-1
 137 540 l 1,1,-1
 201 604 l 1,2,-1
 265 540 l 1,3,-1
 201 476 l 1,0,-1
545 0 m 1,4,-1
 0 0 l 1,5,-1
 0 90 l 1,6,-1
 360 90 l 1,7,8
 339 128 339 128 315 216 c 0,9,10
 307 248 307 248 294 270 c 128,-1,11
 281 292 281 292 269 303 c 128,-1,12
 257 314 257 314 236 319.5 c 128,-1,13
 215 325 215 325 201 326 c 128,-1,14
 187 327 187 327 159 327 c 2,15,-1
 92 327 l 1,16,17
 98 342 98 342 108 369.5 c 128,-1,18
 118 397 118 397 124 415 c 1,19,-1
 189 415 l 2,20,21
 224 415 224 415 252.5 408 c 128,-1,22
 281 401 281 401 300.5 392.5 c 128,-1,23
 320 384 320 384 336.5 366 c 128,-1,24
 353 348 353 348 362 336 c 128,-1,25
 371 324 371 324 380.5 299 c 128,-1,26
 390 274 390 274 393.5 262.5 c 128,-1,27
 397 251 397 251 404 224 c 0,28,29
 421 159 421 159 441 124.5 c 128,-1,30
 461 90 461 90 494 90 c 2,31,-1
 545 90 l 1,32,-1
 545 0 l 1,4,-1
EndSplineSet
EndChar

StartChar: dal.fin
Encoding: 135 65194 135
Width: 478
GlyphClass: 2
Flags: W
LayerCount: 2
Fore
SplineSet
484 0 m 1,0,-1
 30 0 l 1,1,-1
 30 90 l 1,2,-1
 316 90 l 1,3,-1
 316 200 l 2,4,5
 316 268 316 268 287.5 296.5 c 128,-1,6
 259 325 259 325 171 325 c 2,7,-1
 72 325 l 1,8,-1
 72 415 l 1,9,-1
 172 415 l 2,10,11
 220 415 220 415 257.5 408.5 c 128,-1,12
 295 402 295 402 320 392 c 128,-1,13
 345 382 345 382 362 364.5 c 128,-1,14
 379 347 379 347 388 331.5 c 128,-1,15
 397 316 397 316 401.5 290.5 c 128,-1,16
 406 265 406 265 407 247 c 128,-1,17
 408 229 408 229 408 200 c 2,18,-1
 408 90 l 1,19,-1
 484 90 l 1,20,-1
 484 0 l 1,0,-1
EndSplineSet
EndChar

StartChar: thal.fin
Encoding: 136 65196 136
Width: 478
GlyphClass: 2
Flags: W
LayerCount: 2
Fore
SplineSet
171 476 m 1,0,-1
 107 540 l 1,1,-1
 171 604 l 1,2,-1
 235 540 l 1,3,-1
 171 476 l 1,0,-1
484 0 m 1,4,-1
 30 0 l 1,5,-1
 30 90 l 1,6,-1
 316 90 l 1,7,-1
 316 200 l 2,8,9
 316 268 316 268 287.5 296.5 c 128,-1,10
 259 325 259 325 171 325 c 2,11,-1
 72 325 l 1,12,-1
 72 415 l 1,13,-1
 172 415 l 2,14,15
 220 415 220 415 257.5 408.5 c 128,-1,16
 295 402 295 402 320 392 c 128,-1,17
 345 382 345 382 362 364.5 c 128,-1,18
 379 347 379 347 388 331.5 c 128,-1,19
 397 316 397 316 401.5 290.5 c 128,-1,20
 406 265 406 265 407 247 c 128,-1,21
 408 229 408 229 408 200 c 2,22,-1
 408 90 l 1,23,-1
 484 90 l 1,24,-1
 484 0 l 1,4,-1
EndSplineSet
EndChar

StartChar: reh.fin
Encoding: 137 65198 137
Width: 250
GlyphClass: 2
Flags: W
LayerCount: 2
Fore
SplineSet
80 2 m 2,0,-1
 80 383 l 1,1,-1
 170 415 l 1,2,-1
 170 90 l 1,3,-1
 254 90 l 1,4,-1
 254 0 l 1,5,-1
 170 0 l 1,6,-1
 170 -18 l 2,7,8
 170 -69 170 -69 146 -123 c 128,-1,9
 122 -177 122 -177 64 -214 c 1,10,-1
 -23 -169 l 1,11,12
 6 -157 6 -157 26.5 -138.5 c 128,-1,13
 47 -120 47 -120 57.5 -103.5 c 128,-1,14
 68 -87 68 -87 73 -64.5 c 128,-1,15
 78 -42 78 -42 79 -29.5 c 128,-1,16
 80 -17 80 -17 80 2 c 2,0,-1
EndSplineSet
EndChar

StartChar: zain.fin
Encoding: 138 65200 138
Width: 250
GlyphClass: 2
Flags: W
LayerCount: 2
Fore
SplineSet
80 2 m 2,0,-1
 80 383 l 1,1,-1
 170 415 l 1,2,-1
 170 90 l 1,3,-1
 254 90 l 1,4,-1
 254 0 l 1,5,-1
 170 0 l 1,6,-1
 170 -18 l 2,7,8
 170 -69 170 -69 146 -123 c 128,-1,9
 122 -177 122 -177 64 -214 c 1,10,-1
 -23 -169 l 1,11,12
 6 -157 6 -157 26.5 -138.5 c 128,-1,13
 47 -120 47 -120 57.5 -103.5 c 128,-1,14
 68 -87 68 -87 73 -64.5 c 128,-1,15
 78 -42 78 -42 79 -29.5 c 128,-1,16
 80 -17 80 -17 80 2 c 2,0,-1
125 476 m 1,17,-1
 61 540 l 1,18,-1
 125 604 l 1,19,-1
 189 540 l 1,20,-1
 125 476 l 1,17,-1
EndSplineSet
EndChar

StartChar: seen.fin
Encoding: 139 65202 139
Width: 1037
GlyphClass: 2
Flags: W
LayerCount: 2
Fore
SplineSet
958 415 m 1,0,-1
 958 143 l 2,1,2
 958 121 958 121 975 105.5 c 128,-1,3
 992 90 992 90 1016 90 c 2,4,-1
 1046 90 l 1,5,-1
 1046 0 l 1,6,-1
 1016 0 l 2,7,8
 955 0 955 0 913 42 c 1,9,10
 869 0 869 0 810 0 c 2,11,-1
 798 0 l 2,12,13
 737 0 737 0 695 42 c 1,14,15
 651 0 651 0 592 0 c 2,16,-1
 580 0 l 2,17,18
 545 0 545 0 518 13 c 1,19,20
 505 -54 505 -54 445 -100 c 128,-1,21
 385 -146 385 -146 276 -146 c 0,22,23
 151 -146 151 -146 90.5 -87 c 128,-1,24
 30 -28 30 -28 30 50 c 2,25,-1
 30 243 l 1,26,-1
 120 275 l 1,27,-1
 120 56 l 2,28,29
 120 -49 120 -49 276 -49 c 128,-1,30
 432 -49 432 -49 432 56 c 2,31,-1
 432 383 l 1,32,-1
 522 415 l 1,33,-1
 522 138 l 2,34,35
 522 118 522 118 539.5 104 c 128,-1,36
 557 90 557 90 580 90 c 2,37,-1
 592 90 l 2,38,39
 615 90 615 90 632.5 105.5 c 128,-1,40
 650 121 650 121 650 143 c 2,41,-1
 650 383 l 1,42,-1
 740 415 l 1,43,-1
 740 143 l 2,44,45
 740 121 740 121 757 105.5 c 128,-1,46
 774 90 774 90 798 90 c 2,47,-1
 810 90 l 2,48,49
 833 90 833 90 850.5 105.5 c 128,-1,50
 868 121 868 121 868 143 c 2,51,-1
 868 383 l 1,52,-1
 958 415 l 1,0,-1
EndSplineSet
EndChar

StartChar: seen.ini
Encoding: 140 65203 140
Width: 672
GlyphClass: 2
Flags: W
LayerCount: 2
Fore
SplineSet
614 415 m 1,0,-1
 614 143 l 2,1,2
 614 89 614 89 573 44.5 c 128,-1,3
 532 0 532 0 466 0 c 2,4,-1
 454 0 l 2,5,6
 393 0 393 0 351 42 c 1,7,8
 307 0 307 0 248 0 c 2,9,-1
 236 0 l 2,10,11
 175 0 175 0 133 42 c 1,12,13
 89 0 89 0 30 0 c 2,14,-1
 0 0 l 1,15,-1
 0 90 l 1,16,-1
 30 90 l 2,17,18
 53 90 53 90 70.5 105.5 c 128,-1,19
 88 121 88 121 88 143 c 2,20,-1
 88 383 l 1,21,-1
 178 415 l 1,22,-1
 178 143 l 2,23,24
 178 121 178 121 195 105.5 c 128,-1,25
 212 90 212 90 236 90 c 2,26,-1
 248 90 l 2,27,28
 271 90 271 90 288.5 105.5 c 128,-1,29
 306 121 306 121 306 143 c 2,30,-1
 306 383 l 1,31,-1
 396 415 l 1,32,-1
 396 143 l 2,33,34
 396 121 396 121 413 105.5 c 128,-1,35
 430 90 430 90 454 90 c 2,36,-1
 466 90 l 2,37,38
 489 90 489 90 506.5 105.5 c 128,-1,39
 524 121 524 121 524 143 c 2,40,-1
 524 383 l 1,41,-1
 614 415 l 1,0,-1
EndSplineSet
EndChar

StartChar: seen.med
Encoding: 141 65204 141
Width: 672
GlyphClass: 2
Flags: W
LayerCount: 2
Fore
SplineSet
599 415 m 1,0,-1
 599 143 l 2,1,2
 599 121 599 121 616 105.5 c 128,-1,3
 633 90 633 90 657 90 c 2,4,-1
 677 90 l 1,5,-1
 677 0 l 1,6,-1
 657 0 l 2,7,8
 596 0 596 0 554 42 c 1,9,10
 510 0 510 0 451 0 c 2,11,-1
 439 0 l 2,12,13
 378 0 378 0 336 42 c 1,14,15
 292 0 292 0 233 0 c 2,16,-1
 221 0 l 2,17,18
 160 0 160 0 118 42 c 1,19,20
 74 0 74 0 15 0 c 2,21,-1
 0 0 l 1,22,-1
 0 90 l 1,23,-1
 15 90 l 2,24,25
 38 90 38 90 55.5 105.5 c 128,-1,26
 73 121 73 121 73 143 c 2,27,-1
 73 383 l 1,28,-1
 163 415 l 1,29,-1
 163 143 l 2,30,31
 163 121 163 121 180 105.5 c 128,-1,32
 197 90 197 90 221 90 c 2,33,-1
 233 90 l 2,34,35
 256 90 256 90 273.5 105.5 c 128,-1,36
 291 121 291 121 291 143 c 2,37,-1
 291 383 l 1,38,-1
 381 415 l 1,39,-1
 381 143 l 2,40,41
 381 121 381 121 398 105.5 c 128,-1,42
 415 90 415 90 439 90 c 2,43,-1
 451 90 l 2,44,45
 474 90 474 90 491.5 105.5 c 128,-1,46
 509 121 509 121 509 143 c 2,47,-1
 509 383 l 1,48,-1
 599 415 l 1,0,-1
EndSplineSet
EndChar

StartChar: sheen.fin
Encoding: 142 65206 142
Width: 1037
GlyphClass: 2
Flags: W
LayerCount: 2
Fore
SplineSet
695 591 m 5,0,-1
 631 655 l 5,1,-1
 695 719 l 5,2,-1
 759 655 l 5,3,-1
 695 591 l 5,0,-1
631 483 m 5,4,-1
 567 547 l 5,5,-1
 631 611 l 5,6,-1
 695 547 l 5,7,-1
 631 483 l 5,4,-1
759 483 m 5,8,-1
 695 547 l 5,9,-1
 759 611 l 5,10,-1
 823 547 l 5,11,-1
 759 483 l 5,8,-1
958 415 m 1,12,-1
 958 143 l 2,13,14
 958 121 958 121 975 105.5 c 128,-1,15
 992 90 992 90 1016 90 c 2,16,-1
 1046 90 l 1,17,-1
 1046 0 l 1,18,-1
 1016 0 l 2,19,20
 955 0 955 0 913 42 c 1,21,22
 869 0 869 0 810 0 c 2,23,-1
 798 0 l 2,24,25
 737 0 737 0 695 42 c 1,26,27
 651 0 651 0 592 0 c 2,28,-1
 580 0 l 2,29,30
 545 0 545 0 518 13 c 1,31,32
 505 -54 505 -54 445 -100 c 128,-1,33
 385 -146 385 -146 276 -146 c 0,34,35
 151 -146 151 -146 90.5 -87 c 128,-1,36
 30 -28 30 -28 30 50 c 2,37,-1
 30 243 l 1,38,-1
 120 275 l 1,39,-1
 120 56 l 2,40,41
 120 -49 120 -49 276 -49 c 128,-1,42
 432 -49 432 -49 432 56 c 2,43,-1
 432 383 l 1,44,-1
 522 415 l 1,45,-1
 522 138 l 2,46,47
 522 118 522 118 539.5 104 c 128,-1,48
 557 90 557 90 580 90 c 2,49,-1
 592 90 l 2,50,51
 615 90 615 90 632.5 105.5 c 128,-1,52
 650 121 650 121 650 143 c 2,53,-1
 650 383 l 1,54,-1
 740 415 l 1,55,-1
 740 143 l 2,56,57
 740 121 740 121 757 105.5 c 128,-1,58
 774 90 774 90 798 90 c 2,59,-1
 810 90 l 2,60,61
 833 90 833 90 850.5 105.5 c 128,-1,62
 868 121 868 121 868 143 c 2,63,-1
 868 383 l 1,64,-1
 958 415 l 1,12,-1
EndSplineSet
EndChar

StartChar: sheen.ini
Encoding: 143 65207 143
Width: 672
GlyphClass: 2
Flags: W
LayerCount: 2
Fore
SplineSet
351 591 m 1,0,-1
 287 655 l 1,1,-1
 351 719 l 1,2,-1
 415 655 l 1,3,-1
 351 591 l 1,0,-1
287 483 m 1,4,-1
 223 547 l 1,5,-1
 287 611 l 1,6,-1
 351 547 l 1,7,-1
 287 483 l 1,4,-1
415 483 m 1,8,-1
 351 547 l 1,9,-1
 415 611 l 1,10,-1
 479 547 l 1,11,-1
 415 483 l 1,8,-1
614 415 m 1,12,-1
 614 143 l 2,13,14
 614 89 614 89 573 44.5 c 128,-1,15
 532 0 532 0 466 0 c 2,16,-1
 454 0 l 2,17,18
 393 0 393 0 351 42 c 1,19,20
 307 0 307 0 248 0 c 2,21,-1
 236 0 l 2,22,23
 175 0 175 0 133 42 c 1,24,25
 89 0 89 0 30 0 c 2,26,-1
 0 0 l 1,27,-1
 0 90 l 1,28,-1
 30 90 l 2,29,30
 53 90 53 90 70.5 105.5 c 128,-1,31
 88 121 88 121 88 143 c 2,32,-1
 88 383 l 1,33,-1
 178 415 l 1,34,-1
 178 143 l 2,35,36
 178 121 178 121 195 105.5 c 128,-1,37
 212 90 212 90 236 90 c 2,38,-1
 248 90 l 2,39,40
 271 90 271 90 288.5 105.5 c 128,-1,41
 306 121 306 121 306 143 c 2,42,-1
 306 383 l 1,43,-1
 396 415 l 1,44,-1
 396 143 l 2,45,46
 396 121 396 121 413 105.5 c 128,-1,47
 430 90 430 90 454 90 c 2,48,-1
 466 90 l 2,49,50
 489 90 489 90 506.5 105.5 c 128,-1,51
 524 121 524 121 524 143 c 2,52,-1
 524 383 l 1,53,-1
 614 415 l 1,12,-1
EndSplineSet
EndChar

StartChar: sheen.med
Encoding: 144 65208 144
Width: 672
GlyphClass: 2
Flags: W
LayerCount: 2
Fore
SplineSet
336 591 m 1,0,-1
 272 655 l 1,1,-1
 336 719 l 1,2,-1
 400 655 l 1,3,-1
 336 591 l 1,0,-1
272 483 m 1,4,-1
 208 547 l 1,5,-1
 272 611 l 1,6,-1
 336 547 l 1,7,-1
 272 483 l 1,4,-1
400 483 m 1,8,-1
 336 547 l 1,9,-1
 400 611 l 1,10,-1
 464 547 l 1,11,-1
 400 483 l 1,8,-1
599 415 m 1,12,-1
 599 143 l 2,13,14
 599 121 599 121 616 105.5 c 128,-1,15
 633 90 633 90 657 90 c 2,16,-1
 677 90 l 1,17,-1
 677 0 l 1,18,-1
 657 0 l 2,19,20
 596 0 596 0 554 42 c 1,21,22
 510 0 510 0 451 0 c 2,23,-1
 439 0 l 2,24,25
 378 0 378 0 336 42 c 1,26,27
 292 0 292 0 233 0 c 2,28,-1
 221 0 l 2,29,30
 160 0 160 0 118 42 c 1,31,32
 74 0 74 0 15 0 c 2,33,-1
 0 0 l 1,34,-1
 0 90 l 1,35,-1
 15 90 l 2,36,37
 38 90 38 90 55.5 105.5 c 128,-1,38
 73 121 73 121 73 143 c 2,39,-1
 73 383 l 1,40,-1
 163 415 l 1,41,-1
 163 143 l 2,42,43
 163 121 163 121 180 105.5 c 128,-1,44
 197 90 197 90 221 90 c 2,45,-1
 233 90 l 2,46,47
 256 90 256 90 273.5 105.5 c 128,-1,48
 291 121 291 121 291 143 c 2,49,-1
 291 383 l 1,50,-1
 381 415 l 1,51,-1
 381 143 l 2,52,53
 381 121 381 121 398 105.5 c 128,-1,54
 415 90 415 90 439 90 c 2,55,-1
 451 90 l 2,56,57
 474 90 474 90 491.5 105.5 c 128,-1,58
 509 121 509 121 509 143 c 2,59,-1
 509 383 l 1,60,-1
 599 415 l 1,12,-1
EndSplineSet
EndChar

StartChar: sad.fin
Encoding: 145 65210 145
Width: 999
GlyphClass: 2
Flags: W
LayerCount: 2
Fore
SplineSet
276 -146 m 0,0,1
 151 -146 151 -146 90.5 -87 c 128,-1,2
 30 -28 30 -28 30 50 c 2,3,-1
 30 243 l 1,4,-1
 120 275 l 1,5,-1
 120 56 l 2,6,7
 120 -49 120 -49 276 -49 c 128,-1,8
 432 -49 432 -49 432 56 c 2,9,-1
 432 415 l 1,10,-1
 522 415 l 1,11,-1
 522 327 l 1,12,13
 676 416 676 416 751 416 c 0,14,15
 773 416 773 416 793 412 c 128,-1,16
 813 408 813 408 836.5 395.5 c 128,-1,17
 860 383 860 383 877 362.5 c 128,-1,18
 894 342 894 342 905.5 306 c 128,-1,19
 917 270 917 270 917 223 c 2,20,-1
 917 138 l 2,21,22
 918 117 918 117 935 103.5 c 128,-1,23
 952 90 952 90 975 90 c 2,24,-1
 1005 90 l 1,25,-1
 1005 0 l 1,26,-1
 975 0 l 2,27,28
 920 0 920 0 880 34 c 1,29,30
 844 0 844 0 772 0 c 2,31,-1
 515 0 l 1,32,33
 498 -63 498 -63 439 -104.5 c 128,-1,34
 380 -146 380 -146 276 -146 c 0,0,1
751 326 m 0,35,36
 713 326 713 326 641.5 290 c 128,-1,37
 570 254 570 254 522 219 c 1,38,-1
 522 90 l 1,39,-1
 772 90 l 2,40,41
 827 90 827 90 827 138 c 2,42,-1
 827 223 l 2,43,44
 827 281 827 281 804 303.5 c 128,-1,45
 781 326 781 326 751 326 c 0,35,36
EndSplineSet
EndChar

StartChar: sad.ini
Encoding: 146 65211 146
Width: 630
GlyphClass: 2
Flags: W
LayerCount: 2
Fore
SplineSet
195 415 m 1,0,-1
 195 327 l 1,1,2
 349 416 349 416 424 416 c 0,3,4
 446 416 446 416 466 412 c 128,-1,5
 486 408 486 408 509.5 395.5 c 128,-1,6
 533 383 533 383 550 362.5 c 128,-1,7
 567 342 567 342 578.5 306 c 128,-1,8
 590 270 590 270 590 223 c 2,9,-1
 590 138 l 2,10,11
 590 0 590 0 445 0 c 2,12,-1
 0 0 l 1,13,-1
 0 90 l 1,14,-1
 105 90 l 1,15,-1
 105 415 l 1,16,-1
 195 415 l 1,0,-1
424 326 m 0,17,18
 386 326 386 326 314.5 290 c 128,-1,19
 243 254 243 254 195 219 c 1,20,-1
 195 90 l 1,21,-1
 445 90 l 2,22,23
 500 90 500 90 500 138 c 2,24,-1
 500 223 l 2,25,26
 500 281 500 281 477 303.5 c 128,-1,27
 454 326 454 326 424 326 c 0,17,18
EndSplineSet
EndChar

StartChar: sad.med
Encoding: 147 65212 147
Width: 620
GlyphClass: 2
Flags: W
LayerCount: 2
Fore
SplineSet
160 415 m 1,0,-1
 160 327 l 1,1,2
 314 416 314 416 389 416 c 0,3,4
 411 416 411 416 431 412 c 128,-1,5
 451 408 451 408 474.5 395.5 c 128,-1,6
 498 383 498 383 515 362.5 c 128,-1,7
 532 342 532 342 543.5 306 c 128,-1,8
 555 270 555 270 555 223 c 2,9,-1
 555 138 l 2,10,11
 556 117 556 117 573 103.5 c 128,-1,12
 590 90 590 90 613 90 c 2,13,-1
 627 90 l 1,14,-1
 627 0 l 1,15,-1
 613 0 l 2,16,17
 558 0 558 0 518 34 c 1,18,19
 482 0 482 0 410 0 c 2,20,-1
 0 0 l 1,21,-1
 0 90 l 1,22,-1
 70 90 l 1,23,-1
 70 415 l 1,24,-1
 160 415 l 1,0,-1
389 326 m 0,25,26
 351 326 351 326 279.5 290 c 128,-1,27
 208 254 208 254 160 219 c 1,28,-1
 160 90 l 1,29,-1
 410 90 l 2,30,31
 465 90 465 90 465 138 c 2,32,-1
 465 223 l 2,33,34
 465 281 465 281 442 303.5 c 128,-1,35
 419 326 419 326 389 326 c 0,25,26
EndSplineSet
EndChar

StartChar: dad.fin
Encoding: 148 65214 148
Width: 999
GlyphClass: 2
Flags: W
LayerCount: 2
Fore
SplineSet
726 476 m 1,0,-1
 662 540 l 1,1,-1
 726 604 l 1,2,-1
 790 540 l 1,3,-1
 726 476 l 1,0,-1
276 -146 m 0,4,5
 151 -146 151 -146 90.5 -87 c 128,-1,6
 30 -28 30 -28 30 50 c 2,7,-1
 30 243 l 1,8,-1
 120 275 l 1,9,-1
 120 56 l 2,10,11
 120 -49 120 -49 276 -49 c 128,-1,12
 432 -49 432 -49 432 56 c 2,13,-1
 432 415 l 1,14,-1
 522 415 l 1,15,-1
 522 327 l 1,16,17
 676 416 676 416 751 416 c 0,18,19
 773 416 773 416 793 412 c 128,-1,20
 813 408 813 408 836.5 395.5 c 128,-1,21
 860 383 860 383 877 362.5 c 128,-1,22
 894 342 894 342 905.5 306 c 128,-1,23
 917 270 917 270 917 223 c 2,24,-1
 917 138 l 2,25,26
 918 117 918 117 935 103.5 c 128,-1,27
 952 90 952 90 975 90 c 2,28,-1
 1005 90 l 1,29,-1
 1005 0 l 1,30,-1
 975 0 l 2,31,32
 920 0 920 0 880 34 c 1,33,34
 844 0 844 0 772 0 c 2,35,-1
 515 0 l 1,36,37
 498 -63 498 -63 439 -104.5 c 128,-1,38
 380 -146 380 -146 276 -146 c 0,4,5
751 326 m 0,39,40
 713 326 713 326 641.5 290 c 128,-1,41
 570 254 570 254 522 219 c 1,42,-1
 522 90 l 1,43,-1
 772 90 l 2,44,45
 827 90 827 90 827 138 c 2,46,-1
 827 223 l 2,47,48
 827 281 827 281 804 303.5 c 128,-1,49
 781 326 781 326 751 326 c 0,39,40
EndSplineSet
EndChar

StartChar: dad.ini
Encoding: 149 65215 149
Width: 630
GlyphClass: 2
Flags: W
LayerCount: 2
Fore
SplineSet
374 476 m 1,0,-1
 310 540 l 1,1,-1
 374 604 l 1,2,-1
 438 540 l 1,3,-1
 374 476 l 1,0,-1
195 415 m 1,4,-1
 195 327 l 1,5,6
 349 416 349 416 424 416 c 0,7,8
 446 416 446 416 466 412 c 128,-1,9
 486 408 486 408 509.5 395.5 c 128,-1,10
 533 383 533 383 550 362.5 c 128,-1,11
 567 342 567 342 578.5 306 c 128,-1,12
 590 270 590 270 590 223 c 2,13,-1
 590 138 l 2,14,15
 590 0 590 0 445 0 c 2,16,-1
 0 0 l 1,17,-1
 0 90 l 1,18,-1
 105 90 l 1,19,-1
 105 415 l 1,20,-1
 195 415 l 1,4,-1
424 326 m 0,21,22
 386 326 386 326 314.5 290 c 128,-1,23
 243 254 243 254 195 219 c 1,24,-1
 195 90 l 1,25,-1
 445 90 l 2,26,27
 500 90 500 90 500 138 c 2,28,-1
 500 223 l 2,29,30
 500 281 500 281 477 303.5 c 128,-1,31
 454 326 454 326 424 326 c 0,21,22
EndSplineSet
EndChar

StartChar: dad.med
Encoding: 150 65216 150
Width: 620
GlyphClass: 2
Flags: W
LayerCount: 2
Fore
SplineSet
339 476 m 1,0,-1
 275 540 l 1,1,-1
 339 604 l 1,2,-1
 403 540 l 1,3,-1
 339 476 l 1,0,-1
160 415 m 1,4,-1
 160 327 l 1,5,6
 314 416 314 416 389 416 c 0,7,8
 411 416 411 416 431 412 c 128,-1,9
 451 408 451 408 474.5 395.5 c 128,-1,10
 498 383 498 383 515 362.5 c 128,-1,11
 532 342 532 342 543.5 306 c 128,-1,12
 555 270 555 270 555 223 c 2,13,-1
 555 138 l 2,14,15
 556 117 556 117 573 103.5 c 128,-1,16
 590 90 590 90 613 90 c 2,17,-1
 627 90 l 1,18,-1
 627 0 l 1,19,-1
 613 0 l 2,20,21
 558 0 558 0 518 34 c 1,22,23
 482 0 482 0 410 0 c 2,24,-1
 0 0 l 1,25,-1
 0 90 l 1,26,-1
 70 90 l 1,27,-1
 70 415 l 1,28,-1
 160 415 l 1,4,-1
389 326 m 0,29,30
 351 326 351 326 279.5 290 c 128,-1,31
 208 254 208 254 160 219 c 1,32,-1
 160 90 l 1,33,-1
 410 90 l 2,34,35
 465 90 465 90 465 138 c 2,36,-1
 465 223 l 2,37,38
 465 281 465 281 442 303.5 c 128,-1,39
 419 326 419 326 389 326 c 0,29,30
EndSplineSet
EndChar

StartChar: tah.fin
Encoding: 151 65218 151
Width: 693
GlyphClass: 2
Flags: W
LayerCount: 2
Fore
SplineSet
124 537 m 1,0,-1
 214 569 l 1,1,-1
 214 327 l 1,2,3
 368 416 368 416 443 416 c 0,4,5
 465 416 465 416 485 412 c 128,-1,6
 505 408 505 408 528.5 395.5 c 128,-1,7
 552 383 552 383 569 362.5 c 128,-1,8
 586 342 586 342 597.5 306 c 128,-1,9
 609 270 609 270 609 223 c 2,10,-1
 609 143 l 2,11,12
 609 121 609 121 626 105.5 c 128,-1,13
 643 90 643 90 667 90 c 2,14,-1
 697 90 l 1,15,-1
 697 0 l 1,16,-1
 667 0 l 2,17,18
 612 0 612 0 572 34 c 1,19,20
 536 0 536 0 464 0 c 2,21,-1
 214 0 l 1,22,-1
 214 -41 l 1,23,-1
 124 -74 l 1,24,-1
 124 0 l 1,25,-1
 30 0 l 1,26,-1
 30 90 l 1,27,-1
 124 90 l 1,28,-1
 124 537 l 1,0,-1
443 326 m 0,29,30
 405 326 405 326 333.5 290 c 128,-1,31
 262 254 262 254 214 219 c 1,32,-1
 214 90 l 1,33,-1
 464 90 l 2,34,35
 519 90 519 90 519 138 c 2,36,-1
 519 223 l 2,37,38
 519 281 519 281 496 303.5 c 128,-1,39
 473 326 473 326 443 326 c 0,29,30
EndSplineSet
EndChar

StartChar: tah.ini
Encoding: 152 65219 152
Width: 619
GlyphClass: 2
Flags: W
LayerCount: 2
Fore
SplineSet
94 537 m 1,0,-1
 184 569 l 1,1,-1
 184 327 l 1,2,3
 338 416 338 416 413 416 c 0,4,5
 435 416 435 416 455 412 c 128,-1,6
 475 408 475 408 498.5 395.5 c 128,-1,7
 522 383 522 383 539 362.5 c 128,-1,8
 556 342 556 342 567.5 306 c 128,-1,9
 579 270 579 270 579 223 c 2,10,-1
 579 138 l 2,11,12
 579 0 579 0 434 0 c 2,13,-1
 184 0 l 1,14,-1
 184 -41 l 1,15,-1
 94 -74 l 1,16,-1
 94 0 l 1,17,-1
 0 0 l 1,18,-1
 0 90 l 1,19,-1
 94 90 l 1,20,-1
 94 537 l 1,0,-1
413 326 m 0,21,22
 375 326 375 326 303.5 290 c 128,-1,23
 232 254 232 254 184 219 c 1,24,-1
 184 90 l 1,25,-1
 434 90 l 2,26,27
 489 90 489 90 489 138 c 2,28,-1
 489 223 l 2,29,30
 489 281 489 281 466 303.5 c 128,-1,31
 443 326 443 326 413 326 c 0,21,22
EndSplineSet
EndChar

StartChar: tah.med
Encoding: 153 65220 153
Width: 638
GlyphClass: 2
Flags: W
LayerCount: 2
Fore
SplineSet
84 537 m 1,0,-1
 174 569 l 1,1,-1
 174 327 l 1,2,3
 328 416 328 416 403 416 c 0,4,5
 425 416 425 416 445 412 c 128,-1,6
 465 408 465 408 488.5 395.5 c 128,-1,7
 512 383 512 383 529 362.5 c 128,-1,8
 546 342 546 342 557.5 306 c 128,-1,9
 569 270 569 270 569 223 c 2,10,-1
 569 143 l 2,11,12
 569 121 569 121 586 105.5 c 128,-1,13
 603 90 603 90 627 90 c 2,14,-1
 645 90 l 1,15,-1
 645 0 l 1,16,-1
 627 0 l 2,17,18
 572 0 572 0 532 34 c 1,19,20
 496 0 496 0 424 0 c 2,21,-1
 174 0 l 1,22,-1
 174 -41 l 1,23,-1
 84 -74 l 1,24,-1
 84 0 l 1,25,-1
 0 0 l 1,26,-1
 0 90 l 1,27,-1
 84 90 l 1,28,-1
 84 537 l 1,0,-1
403 326 m 0,29,30
 365 326 365 326 293.5 290 c 128,-1,31
 222 254 222 254 174 219 c 1,32,-1
 174 90 l 1,33,-1
 424 90 l 2,34,35
 479 90 479 90 479 138 c 2,36,-1
 479 223 l 2,37,38
 479 281 479 281 456 303.5 c 128,-1,39
 433 326 433 326 403 326 c 0,29,30
EndSplineSet
EndChar

StartChar: zah.fin
Encoding: 154 65222 154
Width: 693
GlyphClass: 2
Flags: W
LayerCount: 2
Fore
SplineSet
418 476 m 1,0,-1
 354 540 l 1,1,-1
 418 604 l 1,2,-1
 482 540 l 1,3,-1
 418 476 l 1,0,-1
124 537 m 1,4,-1
 214 569 l 1,5,-1
 214 327 l 1,6,7
 368 416 368 416 443 416 c 0,8,9
 465 416 465 416 485 412 c 128,-1,10
 505 408 505 408 528.5 395.5 c 128,-1,11
 552 383 552 383 569 362.5 c 128,-1,12
 586 342 586 342 597.5 306 c 128,-1,13
 609 270 609 270 609 223 c 2,14,-1
 609 143 l 2,15,16
 609 121 609 121 626 105.5 c 128,-1,17
 643 90 643 90 667 90 c 2,18,-1
 697 90 l 1,19,-1
 697 0 l 1,20,-1
 667 0 l 2,21,22
 612 0 612 0 572 34 c 1,23,24
 536 0 536 0 464 0 c 2,25,-1
 214 0 l 1,26,-1
 214 -41 l 1,27,-1
 124 -74 l 1,28,-1
 124 0 l 1,29,-1
 30 0 l 1,30,-1
 30 90 l 1,31,-1
 124 90 l 1,32,-1
 124 537 l 1,4,-1
443 326 m 0,33,34
 405 326 405 326 333.5 290 c 128,-1,35
 262 254 262 254 214 219 c 1,36,-1
 214 90 l 1,37,-1
 464 90 l 2,38,39
 519 90 519 90 519 138 c 2,40,-1
 519 223 l 2,41,42
 519 281 519 281 496 303.5 c 128,-1,43
 473 326 473 326 443 326 c 0,33,34
EndSplineSet
EndChar

StartChar: zah.ini
Encoding: 155 65223 155
Width: 619
GlyphClass: 2
Flags: W
LayerCount: 2
Fore
SplineSet
388 476 m 1,0,-1
 324 540 l 1,1,-1
 388 604 l 1,2,-1
 452 540 l 1,3,-1
 388 476 l 1,0,-1
94 537 m 1,4,-1
 184 569 l 1,5,-1
 184 327 l 1,6,7
 338 416 338 416 413 416 c 0,8,9
 435 416 435 416 455 412 c 128,-1,10
 475 408 475 408 498.5 395.5 c 128,-1,11
 522 383 522 383 539 362.5 c 128,-1,12
 556 342 556 342 567.5 306 c 128,-1,13
 579 270 579 270 579 223 c 2,14,-1
 579 138 l 2,15,16
 579 0 579 0 434 0 c 2,17,-1
 184 0 l 1,18,-1
 184 -41 l 1,19,-1
 94 -74 l 1,20,-1
 94 0 l 1,21,-1
 0 0 l 1,22,-1
 0 90 l 1,23,-1
 94 90 l 1,24,-1
 94 537 l 1,4,-1
413 326 m 0,25,26
 375 326 375 326 303.5 290 c 128,-1,27
 232 254 232 254 184 219 c 1,28,-1
 184 90 l 1,29,-1
 434 90 l 2,30,31
 489 90 489 90 489 138 c 2,32,-1
 489 223 l 2,33,34
 489 281 489 281 466 303.5 c 128,-1,35
 443 326 443 326 413 326 c 0,25,26
EndSplineSet
EndChar

StartChar: zah.med
Encoding: 156 65224 156
Width: 638
GlyphClass: 2
Flags: W
LayerCount: 2
Fore
SplineSet
388 476 m 1,0,-1
 324 540 l 1,1,-1
 388 604 l 1,2,-1
 452 540 l 1,3,-1
 388 476 l 1,0,-1
84 537 m 1,4,-1
 174 569 l 1,5,-1
 174 327 l 1,6,7
 328 416 328 416 403 416 c 0,8,9
 425 416 425 416 445 412 c 128,-1,10
 465 408 465 408 488.5 395.5 c 128,-1,11
 512 383 512 383 529 362.5 c 128,-1,12
 546 342 546 342 557.5 306 c 128,-1,13
 569 270 569 270 569 223 c 2,14,-1
 569 143 l 2,15,16
 569 121 569 121 586 105.5 c 128,-1,17
 603 90 603 90 627 90 c 2,18,-1
 645 90 l 1,19,-1
 645 0 l 1,20,-1
 627 0 l 2,21,22
 572 0 572 0 532 34 c 1,23,24
 496 0 496 0 424 0 c 2,25,-1
 174 0 l 1,26,-1
 174 -41 l 1,27,-1
 84 -74 l 1,28,-1
 84 0 l 1,29,-1
 0 0 l 1,30,-1
 0 90 l 1,31,-1
 84 90 l 1,32,-1
 84 537 l 1,4,-1
403 326 m 0,33,34
 365 326 365 326 293.5 290 c 128,-1,35
 222 254 222 254 174 219 c 1,36,-1
 174 90 l 1,37,-1
 424 90 l 2,38,39
 479 90 479 90 479 138 c 2,40,-1
 479 223 l 2,41,42
 479 281 479 281 456 303.5 c 128,-1,43
 433 326 433 326 403 326 c 0,33,34
EndSplineSet
EndChar

StartChar: ain.fin
Encoding: 157 65226 157
Width: 569
GlyphClass: 2
Flags: W
LayerCount: 2
Fore
SplineSet
119 -126 m 0,0,1
 119 -184 119 -184 154.5 -222 c 128,-1,2
 190 -260 190 -260 245 -260 c 2,3,-1
 395 -260 l 1,4,-1
 354 -350 l 1,5,-1
 245 -350 l 2,6,7
 152 -350 152 -350 90.5 -286.5 c 128,-1,8
 29 -223 29 -223 29 -125 c 0,9,10
 29 -42 29 -42 71.5 8.5 c 128,-1,11
 114 59 114 59 190 97 c 1,12,13
 105 176 105 176 73 315 c 1,14,-1
 135 394 l 1,15,16
 217 434 217 434 301 434 c 0,17,18
 329 434 329 434 350.5 432.5 c 128,-1,19
 372 431 372 431 403.5 422 c 128,-1,20
 435 413 435 413 455.5 398 c 128,-1,21
 476 383 476 383 491.5 352 c 128,-1,22
 507 321 507 321 507 279 c 0,23,24
 507 170 507 170 392 96 c 1,25,26
 428 90 428 90 473 90 c 2,27,-1
 577 90 l 1,28,-1
 577 0 l 1,29,-1
 478 0 l 2,30,31
 364 0 364 0 281 37 c 1,32,33
 242 18 242 18 218.5 5 c 128,-1,34
 195 -8 195 -8 169 -28.5 c 128,-1,35
 143 -49 143 -49 131 -73 c 128,-1,36
 119 -97 119 -97 119 -126 c 0,0,1
168 306 m 1,37,38
 217 187 217 187 281 139 c 1,39,40
 348 170 348 170 383 203 c 128,-1,41
 418 236 418 236 418 288 c 0,42,43
 418 344 418 344 301 344 c 0,44,45
 267 344 267 344 234 334.5 c 128,-1,46
 201 325 201 325 184 316 c 2,47,-1
 168 306 l 1,37,38
EndSplineSet
EndChar

StartChar: ain.ini
Encoding: 158 65227 158
Width: 479
GlyphClass: 2
Flags: W
LayerCount: 2
Fore
SplineSet
0 0 m 1,0,-1
 0 90 l 1,1,-1
 115 90 l 1,2,3
 91 141 91 141 91 211 c 0,4,5
 91 289 91 289 142.5 352 c 128,-1,6
 194 415 194 415 274 415 c 2,7,-1
 375 415 l 1,8,-1
 416 325 l 1,9,-1
 274 325 l 2,10,11
 233 325 233 325 207 290 c 128,-1,12
 181 255 181 255 181 211 c 0,13,14
 181 90 181 90 274 90 c 2,15,-1
 439 90 l 1,16,-1
 439 0 l 1,17,-1
 0 0 l 1,0,-1
EndSplineSet
EndChar

StartChar: ain.med
Encoding: 159 65228 159
Width: 498
GlyphClass: 2
Flags: W
LayerCount: 2
Fore
SplineSet
447 278 m 0,0,1
 447 165 447 165 356 94 c 1,2,3
 385 90 385 90 430 90 c 2,4,-1
 505 90 l 1,5,-1
 505 0 l 1,6,-1
 435 0 l 2,7,8
 326 0 326 0 244 36 c 1,9,10
 143 0 143 0 19 0 c 2,11,-1
 0 0 l 1,12,-1
 0 90 l 1,13,-1
 30 90 l 2,14,15
 92 90 92 90 146 99 c 1,16,17
 63 176 63 176 30 314 c 1,18,-1
 92 393 l 1,19,20
 184 434 184 434 251 434 c 0,21,22
 279 434 279 434 299.5 432.5 c 128,-1,23
 320 431 320 431 350 422 c 128,-1,24
 380 413 380 413 399 397.5 c 128,-1,25
 418 382 418 382 432.5 351.5 c 128,-1,26
 447 321 447 321 447 278 c 0,0,1
125 305 m 1,27,28
 176 178 176 178 251 131 c 1,29,30
 358 184 358 184 358 286 c 0,31,32
 358 316 358 316 333 330 c 128,-1,33
 308 344 308 344 251 344 c 0,34,35
 217 344 217 344 185.5 334 c 128,-1,36
 154 324 154 324 140 314 c 2,37,-1
 125 305 l 1,27,28
EndSplineSet
EndChar

StartChar: ghain.fin
Encoding: 160 65230 160
Width: 569
GlyphClass: 2
Flags: W
LayerCount: 2
Fore
SplineSet
325 476 m 1,0,-1
 261 540 l 1,1,-1
 325 604 l 1,2,-1
 389 540 l 1,3,-1
 325 476 l 1,0,-1
119 -126 m 0,4,5
 119 -184 119 -184 154.5 -222 c 128,-1,6
 190 -260 190 -260 245 -260 c 2,7,-1
 395 -260 l 1,8,-1
 354 -350 l 1,9,-1
 245 -350 l 2,10,11
 152 -350 152 -350 90.5 -286.5 c 128,-1,12
 29 -223 29 -223 29 -125 c 0,13,14
 29 -42 29 -42 71.5 8.5 c 128,-1,15
 114 59 114 59 190 97 c 1,16,17
 105 176 105 176 73 315 c 1,18,-1
 135 394 l 1,19,20
 217 434 217 434 301 434 c 0,21,22
 329 434 329 434 350.5 432.5 c 128,-1,23
 372 431 372 431 403.5 422 c 128,-1,24
 435 413 435 413 455.5 398 c 128,-1,25
 476 383 476 383 491.5 352 c 128,-1,26
 507 321 507 321 507 279 c 0,27,28
 507 170 507 170 392 96 c 1,29,30
 428 90 428 90 473 90 c 2,31,-1
 577 90 l 1,32,-1
 577 0 l 1,33,-1
 478 0 l 2,34,35
 364 0 364 0 281 37 c 1,36,37
 242 18 242 18 218.5 5 c 128,-1,38
 195 -8 195 -8 169 -28.5 c 128,-1,39
 143 -49 143 -49 131 -73 c 128,-1,40
 119 -97 119 -97 119 -126 c 0,4,5
168 306 m 1,41,42
 217 187 217 187 281 139 c 1,43,44
 348 170 348 170 383 203 c 128,-1,45
 418 236 418 236 418 288 c 0,46,47
 418 344 418 344 301 344 c 0,48,49
 267 344 267 344 234 334.5 c 128,-1,50
 201 325 201 325 184 316 c 2,51,-1
 168 306 l 1,41,42
EndSplineSet
EndChar

StartChar: ghain.ini
Encoding: 161 65231 161
Width: 479
GlyphClass: 2
Flags: W
LayerCount: 2
Fore
SplineSet
311 476 m 1,0,-1
 247 540 l 1,1,-1
 311 604 l 1,2,-1
 375 540 l 1,3,-1
 311 476 l 1,0,-1
0 0 m 1,4,-1
 0 90 l 1,5,-1
 115 90 l 1,6,7
 91 141 91 141 91 211 c 0,8,9
 91 289 91 289 142.5 352 c 128,-1,10
 194 415 194 415 274 415 c 2,11,-1
 375 415 l 1,12,-1
 416 325 l 1,13,-1
 274 325 l 2,14,15
 233 325 233 325 207 290 c 128,-1,16
 181 255 181 255 181 211 c 0,17,18
 181 90 181 90 274 90 c 2,19,-1
 439 90 l 1,20,-1
 439 0 l 1,21,-1
 0 0 l 1,4,-1
EndSplineSet
EndChar

StartChar: ghain.med
Encoding: 162 65232 162
Width: 498
GlyphClass: 2
Flags: W
LayerCount: 2
Fore
SplineSet
447 278 m 0,0,1
 447 165 447 165 356 94 c 1,2,3
 385 90 385 90 430 90 c 2,4,-1
 505 90 l 1,5,-1
 505 0 l 1,6,-1
 435 0 l 2,7,8
 326 0 326 0 244 36 c 1,9,10
 143 0 143 0 19 0 c 2,11,-1
 0 0 l 1,12,-1
 0 90 l 1,13,-1
 30 90 l 2,14,15
 92 90 92 90 146 99 c 1,16,17
 63 176 63 176 30 314 c 1,18,-1
 92 393 l 1,19,20
 184 434 184 434 251 434 c 0,21,22
 279 434 279 434 299.5 432.5 c 128,-1,23
 320 431 320 431 350 422 c 128,-1,24
 380 413 380 413 399 397.5 c 128,-1,25
 418 382 418 382 432.5 351.5 c 128,-1,26
 447 321 447 321 447 278 c 0,0,1
125 305 m 1,27,28
 176 178 176 178 251 131 c 1,29,30
 358 184 358 184 358 286 c 0,31,32
 358 316 358 316 333 330 c 128,-1,33
 308 344 308 344 251 344 c 0,34,35
 217 344 217 344 185.5 334 c 128,-1,36
 154 324 154 324 140 314 c 2,37,-1
 125 305 l 1,27,28
254 476 m 1,38,-1
 190 540 l 1,39,-1
 254 604 l 1,40,-1
 318 540 l 1,41,-1
 254 476 l 1,38,-1
EndSplineSet
EndChar

StartChar: feh.fin
Encoding: 163 65234 163
Width: 946
GlyphClass: 2
Flags: W
LayerCount: 2
Fore
SplineSet
868 415 m 1,0,-1
 868 143 l 2,1,2
 868 121 868 121 885 105.5 c 128,-1,3
 902 90 902 90 926 90 c 2,4,-1
 953 90 l 1,5,-1
 953 0 l 1,6,-1
 926 0 l 2,7,8
 871 0 871 0 832 33 c 1,9,10
 801 0 801 0 736 0 c 2,11,-1
 175 0 l 2,12,13
 30 0 30 0 30 138 c 2,14,-1
 30 383 l 1,15,-1
 120 415 l 1,16,-1
 120 150 l 2,17,18
 120 115 120 115 136 102.5 c 128,-1,19
 152 90 152 90 183 90 c 2,20,-1
 493 90 l 1,21,-1
 493 278 l 2,22,23
 493 415 493 415 639 415 c 2,24,-1
 868 415 l 1,0,-1
778 325 m 1,25,-1
 646 325 l 2,26,27
 614 325 614 325 598.5 313 c 128,-1,28
 583 301 583 301 583 265 c 2,29,-1
 583 90 l 1,30,-1
 714 90 l 2,31,32
 747 90 747 90 762.5 101.5 c 128,-1,33
 778 113 778 113 778 150 c 2,34,-1
 778 325 l 1,25,-1
690 476 m 1,35,-1
 626 540 l 1,36,-1
 690 604 l 1,37,-1
 754 540 l 1,38,-1
 690 476 l 1,35,-1
EndSplineSet
EndChar

StartChar: feh.ini
Encoding: 164 65235 164
Width: 525
GlyphClass: 2
Flags: W
LayerCount: 2
Fore
SplineSet
475 415 m 1,0,-1
 475 138 l 2,1,2
 475 0 475 0 343 0 c 2,3,-1
 0 0 l 1,4,-1
 0 90 l 1,5,-1
 100 90 l 1,6,-1
 100 278 l 2,7,8
 100 415 100 415 246 415 c 2,9,-1
 475 415 l 1,0,-1
385 325 m 1,10,-1
 253 325 l 2,11,12
 221 325 221 325 205.5 313 c 128,-1,13
 190 301 190 301 190 265 c 2,14,-1
 190 90 l 1,15,-1
 321 90 l 2,16,17
 354 90 354 90 369.5 101.5 c 128,-1,18
 385 113 385 113 385 150 c 2,19,-1
 385 325 l 1,10,-1
297 476 m 1,20,-1
 233 540 l 1,21,-1
 297 604 l 1,22,-1
 361 540 l 1,23,-1
 297 476 l 1,20,-1
EndSplineSet
EndChar

StartChar: feh.med
Encoding: 165 65236 165
Width: 535
GlyphClass: 2
Flags: W
LayerCount: 2
Fore
SplineSet
365 90 m 1,0,-1
 365 265 l 2,1,2
 365 301 365 301 349.5 313 c 128,-1,3
 334 325 334 325 302 325 c 2,4,-1
 233 325 l 2,5,6
 201 325 201 325 185.5 313 c 128,-1,7
 170 301 170 301 170 265 c 2,8,-1
 170 90 l 1,9,-1
 365 90 l 1,0,-1
268 476 m 1,10,-1
 204 540 l 1,11,-1
 268 604 l 1,12,-1
 332 540 l 1,13,-1
 268 476 l 1,10,-1
545 0 m 1,14,-1
 0 0 l 1,15,-1
 0 90 l 1,16,-1
 80 90 l 1,17,-1
 80 278 l 2,18,19
 80 415 80 415 226 415 c 2,20,-1
 309 415 l 2,21,22
 455 415 455 415 455 278 c 2,23,-1
 455 90 l 1,24,-1
 545 90 l 1,25,-1
 545 0 l 1,14,-1
EndSplineSet
EndChar

StartChar: qaf.fin
Encoding: 166 65238 166
Width: 802
GlyphClass: 2
Flags: W
LayerCount: 2
Fore
SplineSet
626 483 m 1,0,-1
 562 547 l 1,1,-1
 626 611 l 1,2,-1
 690 547 l 1,3,-1
 626 483 l 1,0,-1
498 483 m 1,4,-1
 434 547 l 1,5,-1
 498 611 l 1,6,-1
 562 547 l 1,7,-1
 498 483 l 1,4,-1
642 0 m 1,8,-1
 523 0 l 2,9,10
 454 0 454 0 405 66.5 c 128,-1,11
 356 133 356 133 356 209 c 0,12,13
 356 248 356 248 364 281.5 c 128,-1,14
 372 315 372 315 391 347 c 128,-1,15
 410 379 410 379 447.5 397 c 128,-1,16
 485 415 485 415 539 415 c 2,17,-1
 732 415 l 1,18,-1
 732 90 l 1,19,-1
 813 90 l 1,20,-1
 813 0 l 1,21,-1
 732 0 l 1,22,-1
 732 -63 l 2,23,24
 732 -201 732 -201 586 -201 c 2,25,-1
 175 -201 l 2,26,27
 30 -201 30 -201 30 -63 c 2,28,-1
 30 182 l 1,29,-1
 120 214 l 1,30,-1
 120 -51 l 2,31,32
 120 -86 120 -86 136 -98.5 c 128,-1,33
 152 -111 152 -111 183 -111 c 2,34,-1
 579 -111 l 2,35,36
 611 -111 611 -111 626.5 -99 c 128,-1,37
 642 -87 642 -87 642 -51 c 2,38,-1
 642 0 l 1,8,-1
642 325 m 1,39,-1
 539 325 l 2,40,41
 446 325 446 325 446 209 c 0,42,43
 446 165 446 165 472.5 127.5 c 128,-1,44
 499 90 499 90 539 90 c 2,45,-1
 642 90 l 1,46,-1
 642 325 l 1,39,-1
EndSplineSet
EndChar

StartChar: qaf.ini
Encoding: 167 65239 167
Width: 525
GlyphClass: 2
Flags: W
LayerCount: 2
Fore
SplineSet
475 415 m 1,0,-1
 475 138 l 2,1,2
 475 0 475 0 343 0 c 2,3,-1
 0 0 l 1,4,-1
 0 90 l 1,5,-1
 100 90 l 1,6,-1
 100 278 l 2,7,8
 100 415 100 415 246 415 c 2,9,-1
 475 415 l 1,0,-1
385 325 m 1,10,-1
 253 325 l 2,11,12
 221 325 221 325 205.5 313 c 128,-1,13
 190 301 190 301 190 265 c 2,14,-1
 190 90 l 1,15,-1
 321 90 l 2,16,17
 354 90 354 90 369.5 101.5 c 128,-1,18
 385 113 385 113 385 150 c 2,19,-1
 385 325 l 1,10,-1
233 476 m 1,20,-1
 169 540 l 1,21,-1
 233 604 l 1,22,-1
 297 540 l 1,23,-1
 233 476 l 1,20,-1
361 476 m 1,24,-1
 297 540 l 1,25,-1
 361 604 l 1,26,-1
 425 540 l 1,27,-1
 361 476 l 1,24,-1
EndSplineSet
EndChar

StartChar: qaf.med
Encoding: 168 65240 168
Width: 535
GlyphClass: 2
Flags: W
LayerCount: 2
Fore
SplineSet
365 90 m 1,0,-1
 365 265 l 2,1,2
 365 301 365 301 349.5 313 c 128,-1,3
 334 325 334 325 302 325 c 2,4,-1
 233 325 l 2,5,6
 201 325 201 325 185.5 313 c 128,-1,7
 170 301 170 301 170 265 c 2,8,-1
 170 90 l 1,9,-1
 365 90 l 1,0,-1
547 0 m 1,10,-1
 0 0 l 1,11,-1
 0 90 l 1,12,-1
 80 90 l 1,13,-1
 80 278 l 2,14,15
 80 415 80 415 226 415 c 2,16,-1
 309 415 l 2,17,18
 455 415 455 415 455 278 c 2,19,-1
 455 90 l 1,20,-1
 547 90 l 1,21,-1
 547 0 l 1,10,-1
204 476 m 1,22,-1
 140 540 l 1,23,-1
 204 604 l 1,24,-1
 268 540 l 1,25,-1
 204 476 l 1,22,-1
332 476 m 1,26,-1
 268 540 l 1,27,-1
 332 604 l 1,28,-1
 396 540 l 1,29,-1
 332 476 l 1,26,-1
EndSplineSet
EndChar

StartChar: kaf.fin
Encoding: 169 65242 169
Width: 743
GlyphClass: 2
Flags: W
LayerCount: 2
Fore
SplineSet
597 579 m 1,0,-1
 687 611 l 1,1,-1
 687 138 l 2,2,3
 687 118 687 118 704.5 104 c 128,-1,4
 722 90 722 90 745 90 c 2,5,-1
 773 90 l 1,6,-1
 773 0 l 1,7,-1
 745 0 l 2,8,9
 692 0 692 0 650 34 c 1,10,11
 613 0 613 0 541 0 c 2,12,-1
 175 0 l 2,13,14
 30 0 30 0 30 138 c 2,15,-1
 30 243 l 1,16,-1
 120 275 l 1,17,-1
 120 150 l 2,18,19
 120 115 120 115 136 102.5 c 128,-1,20
 152 90 152 90 183 90 c 2,21,-1
 534 90 l 2,22,23
 566 90 566 90 581.5 102 c 128,-1,24
 597 114 597 114 597 150 c 2,25,-1
 597 579 l 1,0,-1
444 336 m 1,26,-1
 279 336 l 1,27,-1
 279 386 l 1,28,-1
 311 386 l 1,29,30
 307 400 307 400 307 408 c 0,31,32
 307 443 307 443 330.5 461.5 c 128,-1,33
 354 480 354 480 387 480 c 0,34,35
 413 480 413 480 437 469 c 1,36,-1
 415 425 l 1,37,38
 398 432 398 432 386 432 c 0,39,40
 357 432 357 432 357 408 c 0,41,42
 357 386 357 386 378 386 c 2,43,-1
 444 386 l 1,44,-1
 444 336 l 1,26,-1
EndSplineSet
EndChar

StartChar: kaf.ini
Encoding: 170 65243 170
Width: 463
GlyphClass: 2
Flags: W
LayerCount: 2
Fore
SplineSet
443 604 m 1,0,-1
 443 513 l 1,1,-1
 213 406 l 1,2,3
 316 372 316 372 366.5 308.5 c 128,-1,4
 417 245 417 245 417 178 c 0,5,6
 417 101 417 101 373.5 50.5 c 128,-1,7
 330 0 330 0 255 0 c 2,8,-1
 1 0 l 1,9,-1
 1 90 l 1,10,-1
 255 90 l 2,11,12
 288 90 288 90 307.5 115 c 128,-1,13
 327 140 327 140 327 178 c 0,14,15
 327 221 327 221 283.5 261.5 c 128,-1,16
 240 302 240 302 151 330 c 2,17,-1
 90 349 l 1,18,-1
 62 419 l 1,19,-1
 443 604 l 1,0,-1
EndSplineSet
EndChar

StartChar: kaf.med
Encoding: 171 65244 171
Width: 533
GlyphClass: 2
Flags: W
LayerCount: 2
Fore
SplineSet
255 0 m 2,0,-1
 1 0 l 1,1,-1
 1 90 l 1,2,-1
 255 90 l 2,3,4
 286 90 286 90 305.5 112.5 c 128,-1,5
 325 135 325 135 327 170 c 2,6,-1
 327 178 l 2,7,8
 327 223 327 223 283.5 265 c 128,-1,9
 240 307 240 307 151 330 c 1,10,-1
 90 349 l 1,11,-1
 62 419 l 1,12,-1
 456 610 l 1,13,-1
 456 519 l 1,14,-1
 213 406 l 1,15,16
 316 372 316 372 366.5 308.5 c 128,-1,17
 417 245 417 245 417 178 c 2,18,-1
 417 170 l 2,19,20
 419 135 419 135 438 112.5 c 128,-1,21
 457 90 457 90 489 90 c 2,22,-1
 541 90 l 1,23,-1
 541 0 l 1,24,-1
 489 0 l 2,25,26
 415 0 415 0 372 49 c 1,27,28
 328 0 328 0 255 0 c 2,0,-1
EndSplineSet
EndChar

StartChar: lam.fin
Encoding: 172 65246 172
Width: 593
GlyphClass: 2
Flags: W
LayerCount: 2
Fore
SplineSet
276 -156 m 0,0,1
 151 -156 151 -156 90.5 -97 c 128,-1,2
 30 -38 30 -38 30 40 c 2,3,-1
 30 243 l 1,4,-1
 120 275 l 1,5,-1
 120 46 l 2,6,7
 120 9 120 9 138.5 -15.5 c 128,-1,8
 157 -40 157 -40 186 -50 c 128,-1,9
 215 -60 215 -60 235.5 -63 c 128,-1,10
 256 -66 256 -66 276 -66 c 128,-1,11
 296 -66 296 -66 316.5 -63 c 128,-1,12
 337 -60 337 -60 366 -50 c 128,-1,13
 395 -40 395 -40 413.5 -15.5 c 128,-1,14
 432 9 432 9 432 46 c 2,15,-1
 432 579 l 1,16,-1
 522 611 l 1,17,-1
 522 138 l 2,18,19
 522 118 522 118 539.5 104 c 128,-1,20
 557 90 557 90 580 90 c 2,21,-1
 601 90 l 1,22,-1
 601 0 l 1,23,-1
 580 0 l 2,24,25
 547 0 547 0 520 12 c 1,26,27
 510 -58 510 -58 450 -107 c 128,-1,28
 390 -156 390 -156 276 -156 c 0,0,1
EndSplineSet
EndChar

StartChar: lam.ini
Encoding: 173 65247 173
Width: 218
GlyphClass: 5
Flags: W
LayerCount: 2
Fore
SplineSet
88 579 m 1,0,-1
 178 611 l 1,1,-1
 178 138 l 2,2,3
 178 0 178 0 33 0 c 2,4,-1
 0 0 l 1,5,-1
 0 90 l 1,6,-1
 25 90 l 2,7,8
 56 90 56 90 72 102.5 c 128,-1,9
 88 115 88 115 88 150 c 2,10,-1
 88 579 l 1,0,-1
EndSplineSet
EndChar

StartChar: lam.med
Encoding: 174 65248 174
Width: 270
GlyphClass: 5
Flags: W
LayerCount: 2
Fore
SplineSet
180 610 m 1,0,-1
 180 143 l 2,1,2
 180 121 180 121 197 105.5 c 128,-1,3
 214 90 214 90 238 90 c 2,4,-1
 280 90 l 1,5,-1
 280 0 l 1,6,-1
 238 0 l 2,7,8
 177 0 177 0 135 42 c 1,9,10
 91 0 91 0 32 0 c 2,11,-1
 0 0 l 1,12,-1
 0 90 l 1,13,-1
 32 90 l 2,14,15
 55 90 55 90 72.5 105.5 c 128,-1,16
 90 121 90 121 90 143 c 2,17,-1
 90 578 l 1,18,-1
 180 610 l 1,0,-1
EndSplineSet
EndChar

StartChar: meem.fin
Encoding: 175 65250 175
Width: 625
GlyphClass: 2
Flags: W
LayerCount: 2
Fore
SplineSet
30 -338 m 1,0,-1
 30 -48 l 2,1,2
 30 90 30 90 175 90 c 2,3,-1
 190 90 l 1,4,-1
 190 278 l 2,5,6
 190 415 190 415 336 415 c 2,7,-1
 565 415 l 1,8,-1
 565 90 l 1,9,-1
 637 90 l 1,10,-1
 637 0 l 1,11,-1
 183 0 l 2,12,13
 151 0 151 0 135.5 -11.5 c 128,-1,14
 120 -23 120 -23 120 -59 c 2,15,-1
 120 -306 l 1,16,-1
 30 -338 l 1,0,-1
475 325 m 1,17,-1
 343 325 l 2,18,19
 311 325 311 325 295.5 313 c 128,-1,20
 280 301 280 301 280 265 c 2,21,-1
 280 90 l 1,22,-1
 475 90 l 1,23,-1
 475 325 l 1,17,-1
EndSplineSet
EndChar

StartChar: meem.ini
Encoding: 176 65251 176
Width: 515
GlyphClass: 2
Flags: W
LayerCount: 2
Fore
SplineSet
100 143 m 2,0,-1
 100 278 l 2,1,2
 100 415 100 415 246 415 c 2,3,-1
 475 415 l 1,4,-1
 475 138 l 2,5,6
 475 0 475 0 343 0 c 2,7,-1
 246 0 l 2,8,9
 174 0 174 0 137 34 c 1,10,11
 97 0 97 0 42 0 c 2,12,-1
 0 0 l 1,13,-1
 0 90 l 1,14,-1
 42 90 l 2,15,16
 66 90 66 90 83 105.5 c 128,-1,17
 100 121 100 121 100 143 c 2,0,-1
385 325 m 1,18,-1
 253 325 l 2,19,20
 221 325 221 325 205.5 313 c 128,-1,21
 190 301 190 301 190 265 c 2,22,-1
 190 150 l 2,23,24
 190 113 190 113 205.5 101.5 c 128,-1,25
 221 90 221 90 253 90 c 2,26,-1
 321 90 l 2,27,28
 354 90 354 90 369.5 101.5 c 128,-1,29
 385 113 385 113 385 150 c 2,30,-1
 385 325 l 1,18,-1
EndSplineSet
EndChar

StartChar: meem.med
Encoding: 177 65252 177
Width: 535
GlyphClass: 2
Flags: W
LayerCount: 2
Fore
SplineSet
80 143 m 2,0,-1
 80 278 l 2,1,2
 80 415 80 415 226 415 c 2,3,-1
 455 415 l 1,4,-1
 455 90 l 1,5,-1
 547 90 l 1,6,-1
 547 0 l 1,7,-1
 226 0 l 2,8,9
 154 0 154 0 117 34 c 1,10,11
 77 0 77 0 22 0 c 2,12,-1
 0 0 l 1,13,-1
 0 90 l 1,14,-1
 22 90 l 2,15,16
 46 90 46 90 63 105.5 c 128,-1,17
 80 121 80 121 80 143 c 2,0,-1
365 325 m 1,18,-1
 233 325 l 2,19,20
 201 325 201 325 185.5 313 c 128,-1,21
 170 301 170 301 170 265 c 2,22,-1
 170 150 l 2,23,24
 170 113 170 113 185.5 101.5 c 128,-1,25
 201 90 201 90 233 90 c 2,26,-1
 365 90 l 1,27,-1
 365 325 l 1,18,-1
EndSplineSet
EndChar

StartChar: noon.fin
Encoding: 178 65254 178
Width: 592
GlyphClass: 2
Flags: W
LayerCount: 2
Fore
SplineSet
522 332 m 1,0,-1
 522 143 l 2,1,2
 522 121 522 121 539 105.5 c 128,-1,3
 556 90 556 90 580 90 c 2,4,-1
 599 90 l 1,5,-1
 599 0 l 1,6,-1
 580 0 l 2,7,8
 545 0 545 0 518 13 c 1,9,10
 505 -54 505 -54 445 -100 c 128,-1,11
 385 -146 385 -146 276 -146 c 0,12,13
 151 -146 151 -146 90.5 -87 c 128,-1,14
 30 -28 30 -28 30 50 c 2,15,-1
 30 243 l 1,16,-1
 120 275 l 1,17,-1
 120 56 l 2,18,19
 120 -49 120 -49 276 -49 c 128,-1,20
 432 -49 432 -49 432 56 c 2,21,-1
 432 300 l 1,22,-1
 522 332 l 1,0,-1
276 389 m 5,23,-1
 212 453 l 5,24,-1
 276 517 l 5,25,-1
 340 453 l 5,26,-1
 276 389 l 5,23,-1
EndSplineSet
EndChar

StartChar: noon.ini
Encoding: 179 65255 179
Width: 244
GlyphClass: 2
Flags: W
LayerCount: 2
Fore
SplineSet
142 483 m 1,0,-1
 78 547 l 1,1,-1
 142 611 l 1,2,-1
 206 547 l 1,3,-1
 142 483 l 1,0,-1
187 415 m 1,4,-1
 187 138 l 2,5,6
 187 0 187 0 42 0 c 2,7,-1
 0 0 l 1,8,-1
 0 90 l 1,9,-1
 34 90 l 2,10,11
 66 90 66 90 81.5 101.5 c 128,-1,12
 97 113 97 113 97 149 c 2,13,-1
 97 383 l 1,14,-1
 187 415 l 1,4,-1
EndSplineSet
EndChar

StartChar: noon.med
Encoding: 180 65256 180
Width: 290
GlyphClass: 2
Flags: W
LayerCount: 2
Fore
SplineSet
145 483 m 1,0,-1
 81 547 l 1,1,-1
 145 611 l 1,2,-1
 209 547 l 1,3,-1
 145 483 l 1,0,-1
190 415 m 1,4,-1
 190 143 l 2,5,6
 190 121 190 121 207 105.5 c 128,-1,7
 224 90 224 90 248 90 c 2,8,-1
 296 90 l 1,9,-1
 296 0 l 1,10,-1
 248 0 l 2,11,12
 187 0 187 0 145 42 c 1,13,14
 101 0 101 0 42 0 c 2,15,-1
 0 0 l 1,16,-1
 0 90 l 1,17,-1
 42 90 l 2,18,19
 65 90 65 90 82.5 105.5 c 128,-1,20
 100 121 100 121 100 143 c 2,21,-1
 100 383 l 1,22,-1
 190 415 l 1,4,-1
EndSplineSet
EndChar

StartChar: heh.iso
Encoding: 181 65257 181
Width: 445
GlyphClass: 2
Flags: W
LayerCount: 2
Fore
SplineSet
405 415 m 1,0,-1
 405 138 l 2,1,2
 405 0 405 0 273 0 c 2,3,-1
 176 0 l 2,4,5
 30 0 30 0 30 138 c 2,6,-1
 30 278 l 2,7,8
 30 415 30 415 176 415 c 2,9,-1
 405 415 l 1,0,-1
315 325 m 1,10,-1
 183 325 l 2,11,12
 151 325 151 325 135.5 313 c 128,-1,13
 120 301 120 301 120 265 c 2,14,-1
 120 150 l 2,15,16
 120 113 120 113 135.5 101.5 c 128,-1,17
 151 90 151 90 183 90 c 2,18,-1
 251 90 l 2,19,20
 284 90 284 90 299.5 101.5 c 128,-1,21
 315 113 315 113 315 150 c 2,22,-1
 315 325 l 1,10,-1
EndSplineSet
EndChar

StartChar: heh.fin
Encoding: 182 65258 182
Width: 496
GlyphClass: 2
Flags: W
LayerCount: 2
Fore
SplineSet
256 0 m 1,0,-1
 197 0 l 2,1,2
 128 0 128 0 79 66.5 c 128,-1,3
 30 133 30 133 30 209 c 0,4,5
 30 248 30 248 38 281.5 c 128,-1,6
 46 315 46 315 65 347 c 128,-1,7
 84 379 84 379 121.5 397 c 128,-1,8
 159 415 159 415 213 415 c 2,9,-1
 406 415 l 1,10,-1
 406 90 l 1,11,-1
 505 90 l 1,12,-1
 505 0 l 1,13,-1
 316 0 l 1,14,-1
 316 60 l 1,15,-1
 256 0 l 1,0,-1
316 325 m 1,16,-1
 213 325 l 2,17,18
 120 325 120 325 120 209 c 0,19,20
 120 165 120 165 146.5 127.5 c 128,-1,21
 173 90 173 90 213 90 c 2,22,-1
 316 90 l 1,23,-1
 316 325 l 1,16,-1
EndSplineSet
EndChar

StartChar: heh.med
Encoding: 183 65260 183
Width: 491
GlyphClass: 2
Flags: W
LayerCount: 2
Fore
SplineSet
496 0 m 1,0,-1
 468 0 l 2,1,2
 415 0 415 0 395.5 -18 c 128,-1,3
 376 -36 376 -36 376 -77 c 0,4,5
 376 -123 376 -123 341.5 -164 c 128,-1,6
 307 -205 307 -205 232 -205 c 2,7,-1
 60 -205 l 1,8,-1
 60 0 l 1,9,-1
 0 0 l 1,10,-1
 0 90 l 1,11,-1
 60 90 l 1,12,-1
 60 277 l 2,13,14
 60 415 60 415 192 415 c 2,15,-1
 214 415 l 2,16,17
 268 415 268 415 305.5 397 c 128,-1,18
 343 379 343 379 362 347 c 128,-1,19
 381 315 381 315 389 281.5 c 128,-1,20
 397 248 397 248 397 209 c 0,21,22
 397 134 397 134 364 75 c 1,23,24
 403 90 403 90 468 90 c 2,25,-1
 496 90 l 1,26,-1
 496 0 l 1,0,-1
150 265 m 2,27,-1
 150 90 l 1,28,-1
 236 90 l 2,29,30
 275 90 275 90 291 125 c 128,-1,31
 307 160 307 160 307 209 c 0,32,33
 307 325 307 325 214 325 c 0,34,35
 181 325 181 325 165.5 313.5 c 128,-1,36
 150 302 150 302 150 265 c 2,27,-1
286 -77 m 0,37,38
 286 -23 286 -23 297 9 c 1,39,40
 276 0 276 0 252 0 c 2,41,-1
 150 0 l 1,42,-1
 150 -115 l 1,43,-1
 232 -115 l 2,44,45
 260 -115 260 -115 273 -103 c 128,-1,46
 286 -91 286 -91 286 -77 c 0,37,38
EndSplineSet
EndChar

StartChar: waw.fin
Encoding: 184 65262 184
Width: 486
GlyphClass: 2
Flags: W
LayerCount: 2
Fore
SplineSet
265 -222 m 1,0,-1
 162 -169 l 1,1,2
 316 -115 316 -115 316 -2 c 2,3,-1
 316 0 l 1,4,-1
 197 0 l 2,5,6
 128 0 128 0 79 66.5 c 128,-1,7
 30 133 30 133 30 209 c 0,8,9
 30 248 30 248 38 281.5 c 128,-1,10
 46 315 46 315 65 347 c 128,-1,11
 84 379 84 379 121.5 397 c 128,-1,12
 159 415 159 415 213 415 c 2,13,-1
 406 415 l 1,14,-1
 406 90 l 1,15,-1
 492 90 l 1,16,-1
 492 0 l 1,17,-1
 406 0 l 1,18,-1
 406 -2 l 2,19,20
 406 -144 406 -144 265 -222 c 1,0,-1
316 325 m 1,21,-1
 213 325 l 2,22,23
 120 325 120 325 120 209 c 0,24,25
 120 165 120 165 146.5 127.5 c 128,-1,26
 173 90 173 90 213 90 c 2,27,-1
 316 90 l 1,28,-1
 316 325 l 1,21,-1
EndSplineSet
EndChar

StartChar: alefmaksura.fin
Encoding: 185 65264 185
Width: 727
GlyphClass: 2
Flags: W
LayerCount: 2
Fore
SplineSet
500 243 m 1,0,-1
 590 275 l 1,1,-1
 590 208 l 2,2,3
 590 150 590 150 622.5 120 c 128,-1,4
 655 90 655 90 711 90 c 2,5,-1
 737 90 l 1,6,-1
 737 0 l 1,7,-1
 709 0 l 2,8,9
 638 0 638 0 590 27 c 1,10,-1
 590 -2 l 2,11,12
 590 -140 590 -140 444 -140 c 2,13,-1
 175 -140 l 2,14,15
 30 -140 30 -140 30 -2 c 2,16,-1
 30 171 l 1,17,-1
 120 203 l 1,18,-1
 120 10 l 2,19,20
 120 -25 120 -25 136 -37.5 c 128,-1,21
 152 -50 152 -50 183 -50 c 2,22,-1
 437 -50 l 2,23,24
 469 -50 469 -50 484.5 -38 c 128,-1,25
 500 -26 500 -26 500 10 c 2,26,-1
 500 243 l 1,0,-1
EndSplineSet
EndChar

StartChar: yeh.fin
Encoding: 186 65266 186
Width: 727
GlyphClass: 2
Flags: W
LayerCount: 2
Fore
SplineSet
246 -322 m 1,0,-1
 182 -258 l 1,1,-1
 246 -194 l 1,2,-1
 310 -258 l 1,3,-1
 246 -322 l 1,0,-1
374 -322 m 1,4,-1
 310 -258 l 1,5,-1
 374 -194 l 1,6,-1
 438 -258 l 1,7,-1
 374 -322 l 1,4,-1
500 243 m 1,8,-1
 590 275 l 1,9,-1
 590 208 l 2,10,11
 590 150 590 150 622.5 120 c 128,-1,12
 655 90 655 90 711 90 c 2,13,-1
 737 90 l 1,14,-1
 737 0 l 1,15,-1
 709 0 l 2,16,17
 638 0 638 0 590 27 c 1,18,-1
 590 -2 l 2,19,20
 590 -140 590 -140 444 -140 c 2,21,-1
 175 -140 l 2,22,23
 30 -140 30 -140 30 -2 c 2,24,-1
 30 171 l 1,25,-1
 120 203 l 1,26,-1
 120 10 l 2,27,28
 120 -25 120 -25 136 -37.5 c 128,-1,29
 152 -50 152 -50 183 -50 c 2,30,-1
 437 -50 l 2,31,32
 469 -50 469 -50 484.5 -38 c 128,-1,33
 500 -26 500 -26 500 10 c 2,34,-1
 500 243 l 1,8,-1
EndSplineSet
EndChar

StartChar: yeh.ini
Encoding: 187 65267 187
Width: 274
GlyphClass: 2
Flags: W
LayerCount: 2
Fore
SplineSet
64 -188 m 1,0,-1
 0 -124 l 1,1,-1
 64 -60 l 1,2,-1
 128 -124 l 1,3,-1
 64 -188 l 1,0,-1
192 -188 m 1,4,-1
 128 -124 l 1,5,-1
 192 -60 l 1,6,-1
 256 -124 l 1,7,-1
 192 -188 l 1,4,-1
217 415 m 1,8,-1
 217 138 l 2,9,10
 217 0 217 0 72 0 c 2,11,-1
 0 0 l 1,12,-1
 0 90 l 1,13,-1
 64 90 l 2,14,15
 96 90 96 90 111.5 101.5 c 128,-1,16
 127 113 127 113 127 149 c 2,17,-1
 127 383 l 1,18,-1
 217 415 l 1,8,-1
EndSplineSet
EndChar

StartChar: yeh.med
Encoding: 188 65268 188
Width: 290
GlyphClass: 2
Flags: W
LayerCount: 2
Fore
SplineSet
82 -188 m 1,0,-1
 18 -124 l 1,1,-1
 82 -60 l 1,2,-1
 146 -124 l 1,3,-1
 82 -188 l 1,0,-1
210 -188 m 1,4,-1
 146 -124 l 1,5,-1
 210 -60 l 1,6,-1
 274 -124 l 1,7,-1
 210 -188 l 1,4,-1
190 415 m 1,8,-1
 190 143 l 2,9,10
 190 121 190 121 207 105.5 c 128,-1,11
 224 90 224 90 248 90 c 2,12,-1
 296 90 l 1,13,-1
 296 0 l 1,14,-1
 248 0 l 2,15,16
 187 0 187 0 145 42 c 1,17,18
 101 0 101 0 42 0 c 2,19,-1
 0 0 l 1,20,-1
 0 90 l 1,21,-1
 42 90 l 2,22,23
 65 90 65 90 82.5 105.5 c 128,-1,24
 100 121 100 121 100 143 c 2,25,-1
 100 383 l 1,26,-1
 190 415 l 1,8,-1
EndSplineSet
EndChar

StartChar: lamalefmaddaabove.iso
Encoding: 189 65269 189
Width: 489
GlyphClass: 3
Flags: W
LayerCount: 2
Fore
SplineSet
6 611 m 1,0,1
 34 635 34 635 58 637.5 c 128,-1,2
 82 640 82 640 98 631 c 128,-1,3
 114 622 114 622 139 622.5 c 128,-1,4
 164 623 164 623 195 641 c 1,5,-1
 195 591 l 1,6,7
 170 574 170 574 148.5 571.5 c 128,-1,8
 127 569 127 569 111 575 c 128,-1,9
 95 581 95 581 79.5 586 c 128,-1,10
 64 591 64 591 45.5 586 c 128,-1,11
 27 581 27 581 6 560 c 1,12,-1
 6 611 l 1,0,1
359 579 m 1,13,-1
 449 611 l 1,14,-1
 449 138 l 2,15,16
 449 0 449 0 304 0 c 2,17,-1
 30 0 l 1,18,-1
 30 90 l 1,19,-1
 59 90 l 2,20,21
 132 90 132 90 156.5 144 c 128,-1,22
 181 198 181 198 150 269 c 2,23,-1
 51 513 l 1,24,-1
 137 543 l 1,25,-1
 234 304 l 2,26,27
 283 180 283 180 231 90 c 1,28,-1
 296 90 l 2,29,30
 327 90 327 90 343 102.5 c 128,-1,31
 359 115 359 115 359 150 c 2,32,-1
 359 579 l 1,13,-1
EndSplineSet
Ligature2: "'liga' Standard Ligatures in Arabic lookup 7 subtable" lam.ini alefmaddaabove.fin
EndChar

StartChar: lamalefmaddaabove.fin
Encoding: 190 65270 190
Width: 515
GlyphClass: 3
Flags: W
LayerCount: 2
Fore
SplineSet
6 611 m 1,0,1
 34 635 34 635 58 637.5 c 128,-1,2
 82 640 82 640 98 631 c 128,-1,3
 114 622 114 622 139 622.5 c 128,-1,4
 164 623 164 623 195 641 c 1,5,-1
 195 591 l 1,6,7
 170 574 170 574 148.5 571.5 c 128,-1,8
 127 569 127 569 111 575 c 128,-1,9
 95 581 95 581 79.5 586 c 128,-1,10
 64 591 64 591 45.5 586 c 128,-1,11
 27 581 27 581 6 560 c 1,12,-1
 6 611 l 1,0,1
359 579 m 1,13,-1
 449 611 l 1,14,-1
 449 138 l 2,15,16
 450 117 450 117 467 103.5 c 128,-1,17
 484 90 484 90 507 90 c 2,18,-1
 518 90 l 1,19,-1
 518 0 l 1,20,-1
 507 0 l 2,21,22
 454 0 454 0 412 34 c 1,23,24
 376 0 376 0 304 0 c 2,25,-1
 30 0 l 1,26,-1
 30 90 l 1,27,-1
 59 90 l 2,28,29
 132 90 132 90 156.5 144 c 128,-1,30
 181 198 181 198 150 269 c 2,31,-1
 51 513 l 1,32,-1
 137 543 l 1,33,-1
 234 304 l 2,34,35
 283 180 283 180 231 90 c 1,36,-1
 296 90 l 2,37,38
 327 90 327 90 343 102.5 c 128,-1,39
 359 115 359 115 359 150 c 2,40,-1
 359 579 l 1,13,-1
EndSplineSet
Ligature2: "'liga' Standard Ligatures in Arabic lookup 7 subtable" lam.med alefmaddaabove.fin
EndChar

StartChar: lamalefhamzaabove.iso
Encoding: 191 65271 191
Width: 489
GlyphClass: 3
Flags: W
LayerCount: 2
Fore
SplineSet
169 578 m 1,0,-1
 24 578 l 1,1,-1
 24 628 l 1,2,-1
 46 628 l 1,3,4
 42 642 42 642 42 650 c 0,5,6
 42 685 42 685 65.5 703.5 c 128,-1,7
 89 722 89 722 122 722 c 0,8,9
 148 722 148 722 172 711 c 1,10,-1
 150 667 l 1,11,12
 132 674 132 674 121 674 c 0,13,14
 92 674 92 674 92 650 c 0,15,16
 92 628 92 628 113 628 c 2,17,-1
 169 628 l 1,18,-1
 169 578 l 1,0,-1
359 579 m 1,19,-1
 449 611 l 1,20,-1
 449 138 l 2,21,22
 449 0 449 0 304 0 c 2,23,-1
 30 0 l 1,24,-1
 30 90 l 1,25,-1
 59 90 l 2,26,27
 132 90 132 90 156.5 144 c 128,-1,28
 181 198 181 198 150 269 c 2,29,-1
 51 513 l 1,30,-1
 137 543 l 1,31,-1
 234 304 l 2,32,33
 283 180 283 180 231 90 c 1,34,-1
 296 90 l 2,35,36
 327 90 327 90 343 102.5 c 128,-1,37
 359 115 359 115 359 150 c 2,38,-1
 359 579 l 1,19,-1
EndSplineSet
Ligature2: "'liga' Standard Ligatures in Arabic lookup 7 subtable" lam.ini alefhamzaabove.fin
EndChar

StartChar: lamalefhamzaabove.fin
Encoding: 192 65272 192
Width: 515
GlyphClass: 3
Flags: W
LayerCount: 2
Fore
SplineSet
169 578 m 1,0,-1
 24 578 l 1,1,-1
 24 628 l 1,2,-1
 46 628 l 1,3,4
 42 642 42 642 42 650 c 0,5,6
 42 685 42 685 65.5 703.5 c 128,-1,7
 89 722 89 722 122 722 c 0,8,9
 148 722 148 722 172 711 c 1,10,-1
 150 667 l 1,11,12
 132 674 132 674 121 674 c 0,13,14
 92 674 92 674 92 650 c 0,15,16
 92 628 92 628 113 628 c 2,17,-1
 169 628 l 1,18,-1
 169 578 l 1,0,-1
359 579 m 1,19,-1
 449 611 l 1,20,-1
 449 138 l 2,21,22
 450 117 450 117 467 103.5 c 128,-1,23
 484 90 484 90 507 90 c 2,24,-1
 518 90 l 1,25,-1
 518 0 l 1,26,-1
 507 0 l 2,27,28
 454 0 454 0 412 34 c 1,29,30
 376 0 376 0 304 0 c 2,31,-1
 30 0 l 1,32,-1
 30 90 l 1,33,-1
 59 90 l 2,34,35
 132 90 132 90 156.5 144 c 128,-1,36
 181 198 181 198 150 269 c 2,37,-1
 51 513 l 1,38,-1
 137 543 l 1,39,-1
 234 304 l 2,40,41
 283 180 283 180 231 90 c 1,42,-1
 296 90 l 2,43,44
 327 90 327 90 343 102.5 c 128,-1,45
 359 115 359 115 359 150 c 2,46,-1
 359 579 l 1,19,-1
EndSplineSet
Ligature2: "'liga' Standard Ligatures in Arabic lookup 7 subtable" lam.med alefhamzaabove.fin
EndChar

StartChar: lamalefhamzabelow.iso
Encoding: 193 65273 193
Width: 489
GlyphClass: 3
Flags: W
LayerCount: 2
Fore
SplineSet
248 -186 m 1,0,-1
 103 -186 l 1,1,-1
 103 -136 l 1,2,-1
 125 -136 l 1,3,4
 121 -122 121 -122 121 -114 c 0,5,6
 121 -79 121 -79 144.5 -60.5 c 128,-1,7
 168 -42 168 -42 201 -42 c 0,8,9
 227 -42 227 -42 251 -53 c 1,10,-1
 229 -97 l 1,11,12
 212 -90 212 -90 200 -90 c 0,13,14
 171 -90 171 -90 171 -114 c 0,15,16
 171 -136 171 -136 192 -136 c 2,17,-1
 248 -136 l 1,18,-1
 248 -186 l 1,0,-1
359 579 m 1,19,-1
 449 611 l 1,20,-1
 449 138 l 2,21,22
 449 0 449 0 304 0 c 2,23,-1
 30 0 l 1,24,-1
 30 90 l 1,25,-1
 59 90 l 2,26,27
 132 90 132 90 156.5 144 c 128,-1,28
 181 198 181 198 150 269 c 2,29,-1
 51 513 l 1,30,-1
 137 543 l 1,31,-1
 234 304 l 2,32,33
 283 180 283 180 231 90 c 1,34,-1
 296 90 l 2,35,36
 327 90 327 90 343 102.5 c 128,-1,37
 359 115 359 115 359 150 c 2,38,-1
 359 579 l 1,19,-1
EndSplineSet
Ligature2: "'liga' Standard Ligatures in Arabic lookup 7 subtable" lam.ini alefhamzabelow.fin
EndChar

StartChar: lamalefhamzabelow.fin
Encoding: 194 65274 194
Width: 515
GlyphClass: 3
Flags: W
LayerCount: 2
Fore
SplineSet
248 -186 m 1,0,-1
 103 -186 l 1,1,-1
 103 -136 l 1,2,-1
 125 -136 l 1,3,4
 121 -122 121 -122 121 -114 c 0,5,6
 121 -79 121 -79 144.5 -60.5 c 128,-1,7
 168 -42 168 -42 201 -42 c 0,8,9
 227 -42 227 -42 251 -53 c 1,10,-1
 229 -97 l 1,11,12
 212 -90 212 -90 200 -90 c 0,13,14
 171 -90 171 -90 171 -114 c 0,15,16
 171 -136 171 -136 192 -136 c 2,17,-1
 248 -136 l 1,18,-1
 248 -186 l 1,0,-1
359 579 m 1,19,-1
 449 611 l 1,20,-1
 449 138 l 2,21,22
 450 117 450 117 467 103.5 c 128,-1,23
 484 90 484 90 507 90 c 2,24,-1
 518 90 l 1,25,-1
 518 0 l 1,26,-1
 507 0 l 2,27,28
 454 0 454 0 412 34 c 1,29,30
 376 0 376 0 304 0 c 2,31,-1
 30 0 l 1,32,-1
 30 90 l 1,33,-1
 59 90 l 2,34,35
 132 90 132 90 156.5 144 c 128,-1,36
 181 198 181 198 150 269 c 2,37,-1
 51 513 l 1,38,-1
 137 543 l 1,39,-1
 234 304 l 2,40,41
 283 180 283 180 231 90 c 1,42,-1
 296 90 l 2,43,44
 327 90 327 90 343 102.5 c 128,-1,45
 359 115 359 115 359 150 c 2,46,-1
 359 579 l 1,19,-1
EndSplineSet
Ligature2: "'liga' Standard Ligatures in Arabic lookup 7 subtable" lam.med alefhamzabelow.fin
EndChar

StartChar: lamalef.iso
Encoding: 195 65275 195
Width: 489
GlyphClass: 3
Flags: W
LayerCount: 2
Fore
SplineSet
359 579 m 1,0,-1
 449 611 l 1,1,-1
 449 138 l 2,2,3
 449 0 449 0 304 0 c 2,4,-1
 30 0 l 1,5,-1
 30 90 l 1,6,-1
 59 90 l 2,7,8
 132 90 132 90 156.5 144 c 128,-1,9
 181 198 181 198 150 269 c 2,10,-1
 51 513 l 1,11,-1
 137 543 l 1,12,-1
 234 304 l 2,13,14
 283 180 283 180 231 90 c 1,15,-1
 296 90 l 2,16,17
 327 90 327 90 343 102.5 c 128,-1,18
 359 115 359 115 359 150 c 2,19,-1
 359 579 l 1,0,-1
EndSplineSet
Ligature2: "'liga' Standard Ligatures in Arabic lookup 7 subtable" lam.ini alef.fin
EndChar

StartChar: lamalef.fin
Encoding: 196 65276 196
Width: 515
GlyphClass: 3
Flags: W
LayerCount: 2
Fore
SplineSet
359 579 m 1,0,-1
 449 611 l 1,1,-1
 449 138 l 2,2,3
 450 117 450 117 467 103.5 c 128,-1,4
 484 90 484 90 507 90 c 2,5,-1
 518 90 l 1,6,-1
 518 0 l 1,7,-1
 507 0 l 2,8,9
 454 0 454 0 412 34 c 1,10,11
 376 0 376 0 304 0 c 2,12,-1
 30 0 l 1,13,-1
 30 90 l 1,14,-1
 59 90 l 2,15,16
 132 90 132 90 156.5 144 c 128,-1,17
 181 198 181 198 150 269 c 2,18,-1
 51 513 l 1,19,-1
 137 543 l 1,20,-1
 234 304 l 2,21,22
 283 180 283 180 231 90 c 1,23,-1
 296 90 l 2,24,25
 327 90 327 90 343 102.5 c 128,-1,26
 359 115 359 115 359 150 c 2,27,-1
 359 579 l 1,0,-1
EndSplineSet
Ligature2: "'liga' Standard Ligatures in Arabic lookup 7 subtable" lam.med alef.fin
EndChar

StartChar: _868
Encoding: 197 -1 197
Width: 170
GlyphClass: 2
Flags: W
LayerCount: 2
Fore
SplineSet
40 508 m 1,0,-1
 130 540 l 1,1,-1
 130 27 l 1,2,-1
 40 -6 l 1,3,-1
 40 508 l 1,0,-1
149 578 m 1,4,-1
 4 578 l 1,5,-1
 4 628 l 1,6,-1
 26 628 l 1,7,8
 22 642 22 642 22 650 c 0,9,10
 22 685 22 685 45.5 703.5 c 128,-1,11
 69 722 69 722 102 722 c 0,12,13
 128 722 128 722 152 711 c 1,14,-1
 130 667 l 1,15,16
 112 674 112 674 101 674 c 0,17,18
 72 674 72 674 72 650 c 0,19,20
 72 628 72 628 93 628 c 2,21,-1
 149 628 l 1,22,-1
 149 578 l 1,4,-1
EndSplineSet
EndChar

StartChar: uni06a9
Encoding: 198 1705 198
Width: 727
Flags: W
LayerCount: 2
Fore
SplineSet
687 603.99609375 m 1,0,-1
 687 512.99609375 l 1,1,-1
 457 405.99609375 l 1,2,3
 560.000488281 371.995605469 560.000488281 371.995605469 610.5 308.49609375 c 128,-1,4
 661.000488281 244.996582031 661.000488281 244.996582031 661 177.99609375 c 0,5,6
 661 100.996582031 661 100.996582031 617.5 50.49609375 c 128,-1,7
 574 -0.00439453125 574 -0.00439453125 499 -0.00390625 c 2,8,-1
 245 -0.00390625 l 1,9,-1
 175 0 l 2,10,11
 29.9995117188 0 29.9995117188 0 30 138 c 2,12,-1
 30 243 l 1,13,-1
 120 275 l 1,14,-1
 120 150 l 2,15,16
 120 115.000488281 120 115.000488281 136 102.5 c 128,-1,17
 152.000488281 90.0004882812 152.000488281 90.0004882812 183 90 c 2,18,-1
 499.080078125 90 l 2,19,20
 532.021484375 90.0307617188 532.021484375 90.0307617188 551.5 114.99609375 c 128,-1,21
 571 139.996582031 571 139.996582031 571 177.99609375 c 0,22,23
 571 220.996582031 571 220.996582031 527.5 261.49609375 c 128,-1,24
 484 301.99609375 484 301.99609375 395 329.99609375 c 2,25,-1
 334 348.99609375 l 1,26,-1
 306 418.99609375 l 1,27,-1
 687 603.99609375 l 1,0,-1
EndSplineSet
Substitution2: "'fina' Terminal Forms in Arabic lookup 5 subtable" uniFB8F
Substitution2: "'medi' Medial Forms in Arabic lookup 4 subtable" uniFB91
Substitution2: "'init' Initial Forms in Arabic lookup 3 subtable" uniFB90
EndChar

StartChar: uniFB8F
Encoding: 199 64399 199
Width: 743
Flags: W
LayerCount: 2
Fore
SplineSet
688.943359375 609.974609375 m 1,0,-1
 688.943359375 518.974609375 l 1,1,-1
 445.943359375 405.974609375 l 1,2,3
 548.943847656 371.974121094 548.943847656 371.974121094 599.443359375 308.474609375 c 128,-1,4
 649.943847656 244.975097656 649.943847656 244.975097656 649.943359375 177.974609375 c 2,5,-1
 649.943359375 169.974609375 l 2,6,7
 651.942871094 134.975097656 651.942871094 134.975097656 670.943359375 112.474609375 c 128,-1,8
 689.943847656 89.974609375 689.943847656 89.974609375 721.943359375 89.974609375 c 2,9,-1
 773.943359375 89.974609375 l 1,10,-1
 773.943359375 -0.025390625 l 1,11,-1
 721.943359375 -0.025390625 l 2,12,13
 647.943847656 -0.025390625 647.943847656 -0.025390625 604.943359375 48.974609375 c 1,14,15
 561.565463281 0.667406906657 561.565463281 0.667406906657 489.75 0.052734375 c 0,16,-1
 488.533203125 0 l 2,17,18
 488.434678629 -0.000478274250129 488.434678629 -0.000478274250129 488.240264598 -0.0129344496251 c 0,19,-1
 233.943359375 -0.025390625 l 1,20,-1
 175 0 l 2,21,22
 29.9995117188 0 29.9995117188 0 30 138 c 2,23,-1
 30 243 l 1,24,-1
 120 275 l 1,25,-1
 120 150 l 2,26,27
 120 115.000488281 120 115.000488281 136 102.5 c 128,-1,28
 152.000488281 90.0004882812 152.000488281 90.0004882812 183 90 c 2,29,-1
 488.490234375 90 l 2,30,31
 519.138788425 90.2008923929 519.138788425 90.2008923929 538.443359375 112.474609375 c 0,32,33
 557.943359375 134.974609375 557.943359375 134.974609375 559.943359375 169.974609375 c 2,34,-1
 559.943359375 177.974609375 l 2,35,36
 559.943359375 222.974609375 559.943359375 222.974609375 516.443359375 264.974609375 c 128,-1,37
 472.943359375 306.974609375 472.943359375 306.974609375 383.943359375 329.974609375 c 1,38,-1
 322.943359375 348.974609375 l 1,39,-1
 294.943359375 418.974609375 l 1,40,-1
 688.943359375 609.974609375 l 1,0,-1
EndSplineSet
EndChar

StartChar: uniFB90
Encoding: 200 64400 200
Width: 463
Flags: W
LayerCount: 2
Fore
SplineSet
443 604 m 1,0,-1
 443 513 l 1,1,-1
 213 406 l 1,2,3
 316 372 316 372 366.5 308.5 c 128,-1,4
 417 245 417 245 417 178 c 0,5,6
 417 101 417 101 373.5 50.5 c 128,-1,7
 330 0 330 0 255 0 c 2,8,-1
 1 0 l 1,9,-1
 1 90 l 1,10,-1
 255 90 l 2,11,12
 288 90 288 90 307.5 115 c 128,-1,13
 327 140 327 140 327 178 c 0,14,15
 327 221 327 221 283.5 261.5 c 128,-1,16
 240 302 240 302 151 330 c 2,17,-1
 90 349 l 1,18,-1
 62 419 l 1,19,-1
 443 604 l 1,0,-1
EndSplineSet
EndChar

StartChar: uniFB91
Encoding: 201 64401 201
Width: 533
Flags: W
LayerCount: 2
Fore
SplineSet
255 0 m 2,0,-1
 1 0 l 1,1,-1
 1 90 l 1,2,-1
 255 90 l 2,3,4
 286 90 286 90 305.5 112.5 c 128,-1,5
 325 135 325 135 327 170 c 2,6,-1
 327 178 l 2,7,8
 327 223 327 223 283.5 265 c 128,-1,9
 240 307 240 307 151 330 c 1,10,-1
 90 349 l 1,11,-1
 62 419 l 1,12,-1
 456 610 l 1,13,-1
 456 519 l 1,14,-1
 213 406 l 1,15,16
 316 372 316 372 366.5 308.5 c 128,-1,17
 417 245 417 245 417 178 c 2,18,-1
 417 170 l 2,19,20
 419 135 419 135 438 112.5 c 128,-1,21
 457 90 457 90 489 90 c 2,22,-1
 541 90 l 1,23,-1
 541 0 l 1,24,-1
 489 0 l 2,25,26
 415 0 415 0 372 49 c 1,27,28
 328 0 328 0 255 0 c 2,0,-1
EndSplineSet
EndChar

StartChar: uni0762
Encoding: 202 1890 202
Width: 727
Flags: W
LayerCount: 2
Fore
SplineSet
372 525 m 5,0,-1
 308 589 l 5,1,-1
 372 653 l 5,2,-1
 436 589 l 5,3,-1
 372 525 l 5,0,-1
687 603.99609375 m 1,4,-1
 687 512.99609375 l 1,5,-1
 457 405.99609375 l 1,6,7
 560.000488281 371.995605469 560.000488281 371.995605469 610.5 308.49609375 c 128,-1,8
 661.000488281 244.996582031 661.000488281 244.996582031 661 177.99609375 c 0,9,10
 661 100.996582031 661 100.996582031 617.5 50.49609375 c 128,-1,11
 574 -0.00439453125 574 -0.00439453125 499 -0.00390625 c 2,12,-1
 245 -0.00390625 l 1,13,-1
 175 0 l 2,14,15
 29.9995117188 0 29.9995117188 0 30 138 c 2,16,-1
 30 243 l 1,17,-1
 120 275 l 1,18,-1
 120 150 l 2,19,20
 120 115.000488281 120 115.000488281 136 102.5 c 128,-1,21
 152.000488281 90.0004882812 152.000488281 90.0004882812 183 90 c 2,22,-1
 499.080078125 90 l 2,23,24
 532.021484375 90.0307617188 532.021484375 90.0307617188 551.5 114.99609375 c 128,-1,25
 571 139.996582031 571 139.996582031 571 177.99609375 c 0,26,27
 571 220.996582031 571 220.996582031 527.5 261.49609375 c 128,-1,28
 484 301.99609375 484 301.99609375 395 329.99609375 c 2,29,-1
 334 348.99609375 l 1,30,-1
 306 418.99609375 l 1,31,-1
 687 603.99609375 l 1,4,-1
EndSplineSet
Substitution2: "'fina' Terminal Forms in Arabic lookup 5 subtable" uni0762.fina
Substitution2: "'medi' Medial Forms in Arabic lookup 4 subtable" uni0762.medi
Substitution2: "'init' Initial Forms in Arabic lookup 3 subtable" uni0762.init
EndChar

StartChar: uni0762.fina
Encoding: 203 -1 203
Width: 743
Flags: W
LayerCount: 2
Fore
SplineSet
372 525 m 5,0,-1
 308 589 l 5,1,-1
 372 653 l 5,2,-1
 436 589 l 5,3,-1
 372 525 l 5,0,-1
688.943359375 609.974609375 m 1,4,-1
 688.943359375 518.974609375 l 1,5,-1
 445.943359375 405.974609375 l 1,6,7
 548.943847656 371.974121094 548.943847656 371.974121094 599.443359375 308.474609375 c 128,-1,8
 649.943847656 244.975097656 649.943847656 244.975097656 649.943359375 177.974609375 c 2,9,-1
 649.943359375 169.974609375 l 2,10,11
 651.942871094 134.975097656 651.942871094 134.975097656 670.943359375 112.474609375 c 128,-1,12
 689.943847656 89.974609375 689.943847656 89.974609375 721.943359375 89.974609375 c 2,13,-1
 773.943359375 89.974609375 l 1,14,-1
 773.943359375 -0.025390625 l 1,15,-1
 721.943359375 -0.025390625 l 2,16,17
 647.943847656 -0.025390625 647.943847656 -0.025390625 604.943359375 48.974609375 c 1,18,19
 561.565463281 0.667406906657 561.565463281 0.667406906657 489.75 0.052734375 c 0,20,-1
 488.533203125 0 l 2,21,22
 488.434678629 -0.000478274250129 488.434678629 -0.000478274250129 488.240264598 -0.0129344496251 c 0,23,-1
 233.943359375 -0.025390625 l 1,24,-1
 175 0 l 2,25,26
 29.9995117188 0 29.9995117188 0 30 138 c 2,27,-1
 30 243 l 1,28,-1
 120 275 l 1,29,-1
 120 150 l 2,30,31
 120 115.000488281 120 115.000488281 136 102.5 c 128,-1,32
 152.000488281 90.0004882812 152.000488281 90.0004882812 183 90 c 2,33,-1
 488.490234375 90 l 2,34,35
 519.138788425 90.2008923929 519.138788425 90.2008923929 538.443359375 112.474609375 c 0,36,37
 557.943359375 134.974609375 557.943359375 134.974609375 559.943359375 169.974609375 c 2,38,-1
 559.943359375 177.974609375 l 2,39,40
 559.943359375 222.974609375 559.943359375 222.974609375 516.443359375 264.974609375 c 128,-1,41
 472.943359375 306.974609375 472.943359375 306.974609375 383.943359375 329.974609375 c 1,42,-1
 322.943359375 348.974609375 l 1,43,-1
 294.943359375 418.974609375 l 1,44,-1
 688.943359375 609.974609375 l 1,4,-1
EndSplineSet
EndChar

StartChar: uni0762.init
Encoding: 204 -1 204
Width: 463
Flags: W
LayerCount: 2
Fore
SplineSet
137 525 m 5,0,-1
 73 589 l 5,1,-1
 137 653 l 5,2,-1
 201 589 l 5,3,-1
 137 525 l 5,0,-1
443 604 m 1,4,-1
 443 513 l 1,5,-1
 213 406 l 1,6,7
 316 372 316 372 366.5 308.5 c 128,-1,8
 417 245 417 245 417 178 c 0,9,10
 417 101 417 101 373.5 50.5 c 128,-1,11
 330 0 330 0 255 0 c 2,12,-1
 1 0 l 1,13,-1
 1 90 l 1,14,-1
 255 90 l 2,15,16
 288 90 288 90 307.5 115 c 128,-1,17
 327 140 327 140 327 178 c 0,18,19
 327 221 327 221 283.5 261.5 c 128,-1,20
 240 302 240 302 151 330 c 2,21,-1
 90 349 l 1,22,-1
 62 419 l 1,23,-1
 443 604 l 1,4,-1
EndSplineSet
EndChar

StartChar: uni0762.medi
Encoding: 205 -1 205
Width: 533
Flags: W
LayerCount: 2
Fore
SplineSet
148 534 m 5,0,-1
 84 598 l 5,1,-1
 148 662 l 5,2,-1
 212 598 l 5,3,-1
 148 534 l 5,0,-1
255 0 m 2,4,-1
 1 0 l 1,5,-1
 1 90 l 1,6,-1
 255 90 l 2,7,8
 286 90 286 90 305.5 112.5 c 128,-1,9
 325 135 325 135 327 170 c 2,10,-1
 327 178 l 2,11,12
 327 223 327 223 283.5 265 c 128,-1,13
 240 307 240 307 151 330 c 1,14,-1
 90 349 l 1,15,-1
 62 419 l 1,16,-1
 456 610 l 1,17,-1
 456 519 l 1,18,-1
 213 406 l 1,19,20
 316 372 316 372 366.5 308.5 c 128,-1,21
 417 245 417 245 417 178 c 2,22,-1
 417 170 l 2,23,24
 419 135 419 135 438 112.5 c 128,-1,25
 457 90 457 90 489 90 c 2,26,-1
 541 90 l 1,27,-1
 541 0 l 1,28,-1
 489 0 l 2,29,30
 415 0 415 0 372 49 c 1,31,32
 328 0 328 0 255 0 c 2,4,-1
EndSplineSet
EndChar

StartChar: uni06cf
Encoding: 206 1743 206
Width: 446
Flags: W
LayerCount: 2
Fore
SplineSet
216 443 m 5,0,-1
 152 507 l 5,1,-1
 216 571 l 5,2,-1
 280 507 l 5,3,-1
 216 443 l 5,0,-1
256 0 m 1,4,-1
 197 0 l 2,5,6
 128 0 128 0 79 66.5 c 128,-1,7
 30 133 30 133 30 209 c 0,8,9
 30 248 30 248 38 281.5 c 128,-1,10
 46 315 46 315 65 347 c 128,-1,11
 84 379 84 379 121.5 397 c 128,-1,12
 159 415 159 415 213 415 c 2,13,-1
 406 415 l 1,14,-1
 406 -2 l 2,15,16
 406 -144 406 -144 265 -222 c 1,17,-1
 162 -169 l 1,18,19
 316 -115 316 -115 316 -2 c 2,20,-1
 316 60 l 1,21,-1
 256 0 l 1,4,-1
316 325 m 1,22,-1
 213 325 l 2,23,24
 120 325 120 325 120 209 c 0,25,26
 120 165 120 165 146.5 127.5 c 128,-1,27
 173 90 173 90 213 90 c 2,28,-1
 316 90 l 1,29,-1
 316 325 l 1,22,-1
EndSplineSet
Substitution2: "'fina' Terminal Forms in Arabic lookup 5 subtable" uni06cf.fina
EndChar

StartChar: uni06cf.fina
Encoding: 207 -1 207
Width: 488
Flags: W
LayerCount: 2
Fore
SplineSet
216 443 m 5,0,-1
 152 507 l 5,1,-1
 216 571 l 5,2,-1
 280 507 l 5,3,-1
 216 443 l 5,0,-1
265 -222 m 1,4,-1
 162 -169 l 1,5,6
 316 -115 316 -115 316 -2 c 2,7,-1
 316 0 l 1,8,-1
 197 0 l 2,9,10
 128 0 128 0 79 66.5 c 128,-1,11
 30 133 30 133 30 209 c 0,12,13
 30 248 30 248 38 281.5 c 128,-1,14
 46 315 46 315 65 347 c 128,-1,15
 84 379 84 379 121.5 397 c 128,-1,16
 159 415 159 415 213 415 c 2,17,-1
 406 415 l 1,18,-1
 406 90 l 1,19,-1
 492 90 l 1,20,-1
 492 0 l 1,21,-1
 406 0 l 1,22,-1
 406 -2 l 2,23,24
 406 -144 406 -144 265 -222 c 1,4,-1
316 325 m 1,25,-1
 213 325 l 2,26,27
 120 325 120 325 120 209 c 0,28,29
 120 165 120 165 146.5 127.5 c 128,-1,30
 173 90 173 90 213 90 c 2,31,-1
 316 90 l 1,32,-1
 316 325 l 1,25,-1
EndSplineSet
EndChar

StartChar: uni06a4
Encoding: 208 1700 208
Width: 908
Flags: W
LayerCount: 2
Fore
SplineSet
695 591 m 5,0,-1
 631 655 l 5,1,-1
 695 719 l 5,2,-1
 759 655 l 5,3,-1
 695 591 l 5,0,-1
631 483 m 5,4,-1
 567 547 l 5,5,-1
 631 611 l 5,6,-1
 695 547 l 5,7,-1
 631 483 l 5,4,-1
759 483 m 5,8,-1
 695 547 l 5,9,-1
 759 611 l 5,10,-1
 823 547 l 5,11,-1
 759 483 l 5,8,-1
868 415 m 1,12,-1
 868 138 l 2,13,14
 868 0 868 0 736 0 c 2,15,-1
 175 0 l 2,16,17
 30 0 30 0 30 138 c 2,18,-1
 30 383 l 1,19,-1
 120 415 l 1,20,-1
 120 150 l 2,21,22
 120 115 120 115 136 102.5 c 128,-1,23
 152 90 152 90 183 90 c 2,24,-1
 493 90 l 1,25,-1
 493 278 l 2,26,27
 493 415 493 415 639 415 c 2,28,-1
 868 415 l 1,12,-1
778 325 m 1,29,-1
 646 325 l 2,30,31
 614 325 614 325 598.5 313 c 128,-1,32
 583 301 583 301 583 265 c 2,33,-1
 583 90 l 1,34,-1
 714 90 l 2,35,36
 747 90 747 90 762.5 101.5 c 128,-1,37
 778 113 778 113 778 150 c 2,38,-1
 778 325 l 1,29,-1
EndSplineSet
Substitution2: "'fina' Terminal Forms in Arabic lookup 5 subtable" uni06a4.fina
Substitution2: "'medi' Medial Forms in Arabic lookup 4 subtable" uni06a4.medi
Substitution2: "'init' Initial Forms in Arabic lookup 3 subtable" uni06a4.init
EndChar

StartChar: uni06a4.fina
Encoding: 209 -1 209
Width: 946
Flags: W
LayerCount: 2
Fore
SplineSet
695 591 m 5,0,-1
 631 655 l 5,1,-1
 695 719 l 5,2,-1
 759 655 l 5,3,-1
 695 591 l 5,0,-1
631 483 m 5,4,-1
 567 547 l 5,5,-1
 631 611 l 5,6,-1
 695 547 l 5,7,-1
 631 483 l 5,4,-1
759 483 m 5,8,-1
 695 547 l 5,9,-1
 759 611 l 5,10,-1
 823 547 l 5,11,-1
 759 483 l 5,8,-1
868 415 m 1,12,-1
 868 143 l 2,13,14
 868 121 868 121 885 105.5 c 128,-1,15
 902 90 902 90 926 90 c 2,16,-1
 953 90 l 1,17,-1
 953 0 l 1,18,-1
 926 0 l 2,19,20
 871 0 871 0 832 33 c 1,21,22
 801 0 801 0 736 0 c 2,23,-1
 175 0 l 2,24,25
 30 0 30 0 30 138 c 2,26,-1
 30 383 l 1,27,-1
 120 415 l 1,28,-1
 120 150 l 2,29,30
 120 115 120 115 136 102.5 c 128,-1,31
 152 90 152 90 183 90 c 2,32,-1
 493 90 l 1,33,-1
 493 278 l 2,34,35
 493 415 493 415 639 415 c 2,36,-1
 868 415 l 1,12,-1
778 325 m 1,37,-1
 646 325 l 2,38,39
 614 325 614 325 598.5 313 c 128,-1,40
 583 301 583 301 583 265 c 2,41,-1
 583 90 l 1,42,-1
 714 90 l 2,43,44
 747 90 747 90 762.5 101.5 c 128,-1,45
 778 113 778 113 778 150 c 2,46,-1
 778 325 l 1,37,-1
EndSplineSet
EndChar

StartChar: uni06a4.init
Encoding: 210 -1 210
Width: 525
Flags: W
LayerCount: 2
Fore
SplineSet
286 591 m 5,0,-1
 222 655 l 5,1,-1
 286 719 l 5,2,-1
 350 655 l 5,3,-1
 286 591 l 5,0,-1
222 483 m 5,4,-1
 158 547 l 5,5,-1
 222 611 l 5,6,-1
 286 547 l 5,7,-1
 222 483 l 5,4,-1
350 483 m 5,8,-1
 286 547 l 5,9,-1
 350 611 l 5,10,-1
 414 547 l 5,11,-1
 350 483 l 5,8,-1
475 415 m 1,12,-1
 475 138 l 2,13,14
 475 0 475 0 343 0 c 2,15,-1
 0 0 l 1,16,-1
 0 90 l 1,17,-1
 100 90 l 1,18,-1
 100 278 l 2,19,20
 100 415 100 415 246 415 c 2,21,-1
 475 415 l 1,12,-1
385 325 m 1,22,-1
 253 325 l 2,23,24
 221 325 221 325 205.5 313 c 128,-1,25
 190 301 190 301 190 265 c 2,26,-1
 190 90 l 1,27,-1
 321 90 l 2,28,29
 354 90 354 90 369.5 101.5 c 128,-1,30
 385 113 385 113 385 150 c 2,31,-1
 385 325 l 1,22,-1
EndSplineSet
EndChar

StartChar: uni06a4.medi
Encoding: 211 -1 211
Width: 535
Flags: W
LayerCount: 2
Fore
SplineSet
269 591 m 5,0,-1
 205 655 l 5,1,-1
 269 719 l 5,2,-1
 333 655 l 5,3,-1
 269 591 l 5,0,-1
205 483 m 5,4,-1
 141 547 l 5,5,-1
 205 611 l 5,6,-1
 269 547 l 5,7,-1
 205 483 l 5,4,-1
333 483 m 5,8,-1
 269 547 l 5,9,-1
 333 611 l 5,10,-1
 397 547 l 5,11,-1
 333 483 l 5,8,-1
365 90 m 1,12,-1
 365 265 l 2,13,14
 365 301 365 301 349.5 313 c 128,-1,15
 334 325 334 325 302 325 c 2,16,-1
 233 325 l 2,17,18
 201 325 201 325 185.5 313 c 128,-1,19
 170 301 170 301 170 265 c 2,20,-1
 170 90 l 1,21,-1
 365 90 l 1,12,-1
545 0 m 1,22,-1
 0 0 l 1,23,-1
 0 90 l 1,24,-1
 80 90 l 1,25,-1
 80 278 l 2,26,27
 80 415 80 415 226 415 c 2,28,-1
 309 415 l 2,29,30
 455 415 455 415 455 278 c 2,31,-1
 455 90 l 1,32,-1
 545 90 l 1,33,-1
 545 0 l 1,22,-1
EndSplineSet
EndChar

StartChar: uni06a0.fina
Encoding: 213 -1 212
Width: 569
Flags: W
LayerCount: 2
Fore
SplineSet
353 591 m 5,0,-1
 289 655 l 5,1,-1
 353 719 l 5,2,-1
 417 655 l 5,3,-1
 353 591 l 5,0,-1
289 483 m 5,4,-1
 225 547 l 5,5,-1
 289 611 l 5,6,-1
 353 547 l 5,7,-1
 289 483 l 5,4,-1
417 483 m 5,8,-1
 353 547 l 5,9,-1
 417 611 l 5,10,-1
 481 547 l 5,11,-1
 417 483 l 5,8,-1
119 -126 m 0,12,13
 119 -184 119 -184 154.5 -222 c 128,-1,14
 190 -260 190 -260 245 -260 c 2,15,-1
 395 -260 l 1,16,-1
 354 -350 l 1,17,-1
 245 -350 l 2,18,19
 152 -350 152 -350 90.5 -286.5 c 128,-1,20
 29 -223 29 -223 29 -125 c 0,21,22
 29 -42 29 -42 71.5 8.5 c 128,-1,23
 114 59 114 59 190 97 c 1,24,25
 105 176 105 176 73 315 c 1,26,-1
 135 394 l 1,27,28
 217 434 217 434 301 434 c 0,29,30
 329 434 329 434 350.5 432.5 c 128,-1,31
 372 431 372 431 403.5 422 c 128,-1,32
 435 413 435 413 455.5 398 c 128,-1,33
 476 383 476 383 491.5 352 c 128,-1,34
 507 321 507 321 507 279 c 0,35,36
 507 170 507 170 392 96 c 1,37,38
 428 90 428 90 473 90 c 2,39,-1
 577 90 l 1,40,-1
 577 0 l 1,41,-1
 478 0 l 2,42,43
 364 0 364 0 281 37 c 1,44,45
 242 18 242 18 218.5 5 c 128,-1,46
 195 -8 195 -8 169 -28.5 c 128,-1,47
 143 -49 143 -49 131 -73 c 128,-1,48
 119 -97 119 -97 119 -126 c 0,12,13
168 306 m 1,49,50
 217 187 217 187 281 139 c 1,51,52
 348 170 348 170 383 203 c 128,-1,53
 418 236 418 236 418 288 c 0,54,55
 418 344 418 344 301 344 c 0,56,57
 267 344 267 344 234 334.5 c 128,-1,58
 201 325 201 325 184 316 c 2,59,-1
 168 306 l 1,49,50
EndSplineSet
EndChar

StartChar: uni06a0.init
Encoding: 214 -1 213
Width: 479
Flags: W
LayerCount: 2
Fore
SplineSet
285 584 m 5,0,-1
 221 648 l 5,1,-1
 285 712 l 5,2,-1
 349 648 l 5,3,-1
 285 584 l 5,0,-1
221 476 m 5,4,-1
 157 540 l 5,5,-1
 221 604 l 5,6,-1
 285 540 l 5,7,-1
 221 476 l 5,4,-1
349 476 m 5,8,-1
 285 540 l 5,9,-1
 349 604 l 5,10,-1
 413 540 l 5,11,-1
 349 476 l 5,8,-1
0 0 m 1,12,-1
 0 90 l 1,13,-1
 115 90 l 1,14,15
 91 141 91 141 91 211 c 0,16,17
 91 289 91 289 142.5 352 c 128,-1,18
 194 415 194 415 274 415 c 2,19,-1
 375 415 l 1,20,-1
 416 325 l 1,21,-1
 274 325 l 2,22,23
 233 325 233 325 207 290 c 128,-1,24
 181 255 181 255 181 211 c 0,25,26
 181 90 181 90 274 90 c 2,27,-1
 439 90 l 1,28,-1
 439 0 l 1,29,-1
 0 0 l 1,12,-1
EndSplineSet
EndChar

StartChar: uni06a0.medi
Encoding: 215 -1 214
Width: 498
Flags: W
LayerCount: 2
Fore
SplineSet
256 584 m 5,0,-1
 192 648 l 5,1,-1
 256 712 l 5,2,-1
 320 648 l 5,3,-1
 256 584 l 5,0,-1
192 476 m 5,4,-1
 128 540 l 5,5,-1
 192 604 l 5,6,-1
 256 540 l 5,7,-1
 192 476 l 5,4,-1
320 476 m 5,8,-1
 256 540 l 5,9,-1
 320 604 l 5,10,-1
 384 540 l 5,11,-1
 320 476 l 5,8,-1
447 278 m 0,12,13
 447 165 447 165 356 94 c 1,14,15
 385 90 385 90 430 90 c 2,16,-1
 505 90 l 1,17,-1
 505 0 l 1,18,-1
 435 0 l 2,19,20
 326 0 326 0 244 36 c 1,21,22
 143 0 143 0 19 0 c 2,23,-1
 0 0 l 1,24,-1
 0 90 l 1,25,-1
 30 90 l 2,26,27
 92 90 92 90 146 99 c 1,28,29
 63 176 63 176 30 314 c 1,30,-1
 92 393 l 1,31,32
 184 434 184 434 251 434 c 0,33,34
 279 434 279 434 299.5 432.5 c 128,-1,35
 320 431 320 431 350 422 c 128,-1,36
 380 413 380 413 399 397.5 c 128,-1,37
 418 382 418 382 432.5 351.5 c 128,-1,38
 447 321 447 321 447 278 c 0,12,13
125 305 m 1,39,40
 176 178 176 178 251 131 c 1,41,42
 358 184 358 184 358 286 c 0,43,44
 358 316 358 316 333 330 c 128,-1,45
 308 344 308 344 251 344 c 0,46,47
 217 344 217 344 185.5 334 c 128,-1,48
 154 324 154 324 140 314 c 2,49,-1
 125 305 l 1,39,40
EndSplineSet
EndChar

StartChar: uni06a0
Encoding: 212 1696 215
Width: 533
Flags: W
LayerCount: 2
Fore
SplineSet
353 591 m 5,0,-1
 289 655 l 5,1,-1
 353 719 l 5,2,-1
 417 655 l 5,3,-1
 353 591 l 5,0,-1
289 483 m 5,4,-1
 225 547 l 5,5,-1
 289 611 l 5,6,-1
 353 547 l 5,7,-1
 289 483 l 5,4,-1
417 483 m 5,8,-1
 353 547 l 5,9,-1
 417 611 l 5,10,-1
 481 547 l 5,11,-1
 417 483 l 5,8,-1
429 415 m 1,12,-1
 470 325 l 1,13,-1
 328 325 l 2,14,15
 287 325 287 325 261 290 c 128,-1,16
 235 255 235 255 235 211 c 0,17,18
 235 90 235 90 328 90 c 2,19,-1
 493 90 l 1,20,-1
 493 0 l 1,21,-1
 246 0 l 2,22,23
 189 0 189 0 154.5 -34.5 c 128,-1,24
 120 -69 120 -69 120 -126 c 0,25,26
 120 -184 120 -184 155.5 -222 c 128,-1,27
 191 -260 191 -260 246 -260 c 2,28,-1
 396 -260 l 1,29,-1
 355 -350 l 1,30,-1
 246 -350 l 2,31,32
 153 -350 153 -350 91.5 -287 c 128,-1,33
 30 -224 30 -224 30 -126 c 0,34,35
 30 -48 30 -48 68.5 6 c 128,-1,36
 107 60 107 60 174 80 c 1,37,38
 145 133 145 133 145 211 c 128,-1,39
 145 289 145 289 196.5 352 c 128,-1,40
 248 415 248 415 328 415 c 2,41,-1
 429 415 l 1,12,-1
EndSplineSet
Substitution2: "'fina' Terminal Forms in Arabic lookup 5 subtable" uni06a0.fina
Substitution2: "'medi' Medial Forms in Arabic lookup 4 subtable" uni06a0.medi
Substitution2: "'init' Initial Forms in Arabic lookup 3 subtable" uni06a0.init
EndChar

StartChar: uni06bd
Encoding: 216 1725 216
Width: 563
Flags: W
LayerCount: 2
Fore
SplineSet
274 497 m 5,0,-1
 210 561 l 5,1,-1
 274 625 l 5,2,-1
 338 561 l 5,3,-1
 274 497 l 5,0,-1
210 389 m 5,4,-1
 146 453 l 5,5,-1
 210 517 l 5,6,-1
 274 453 l 5,7,-1
 210 389 l 5,4,-1
338 389 m 5,8,-1
 274 453 l 5,9,-1
 338 517 l 5,10,-1
 402 453 l 5,11,-1
 338 389 l 5,8,-1
276 -146 m 128,-1,13
 151 -146 151 -146 90.5 -87 c 128,-1,14
 30 -28 30 -28 30 50 c 2,15,-1
 30 243 l 1,16,-1
 120 275 l 1,17,-1
 120 56 l 2,18,19
 120 -49 120 -49 276 -49 c 128,-1,20
 432 -49 432 -49 432 56 c 2,21,-1
 432 300 l 1,22,-1
 522 332 l 1,23,-1
 522 50 l 2,24,25
 522 -28 522 -28 461.5 -87 c 128,-1,12
 401 -146 401 -146 276 -146 c 128,-1,13
EndSplineSet
Substitution2: "'fina' Terminal Forms in Arabic lookup 5 subtable" uni06bd.fina
Substitution2: "'medi' Medial Forms in Arabic lookup 4 subtable" uni06bd.medi
Substitution2: "'init' Initial Forms in Arabic lookup 3 subtable" uni06bd.ini
EndChar

StartChar: uni06bd.fina
Encoding: 217 -1 217
Width: 592
Flags: W
LayerCount: 2
Fore
SplineSet
274 497 m 5,0,-1
 210 561 l 5,1,-1
 274 625 l 5,2,-1
 338 561 l 5,3,-1
 274 497 l 5,0,-1
210 389 m 5,4,-1
 146 453 l 5,5,-1
 210 517 l 5,6,-1
 274 453 l 5,7,-1
 210 389 l 5,4,-1
338 389 m 5,8,-1
 274 453 l 5,9,-1
 338 517 l 5,10,-1
 402 453 l 5,11,-1
 338 389 l 5,8,-1
522 332 m 1,12,-1
 522 143 l 2,13,14
 522 121 522 121 539 105.5 c 128,-1,15
 556 90 556 90 580 90 c 2,16,-1
 599 90 l 1,17,-1
 599 0 l 1,18,-1
 580 0 l 2,19,20
 545 0 545 0 518 13 c 1,21,22
 505 -54 505 -54 445 -100 c 128,-1,23
 385 -146 385 -146 276 -146 c 0,24,25
 151 -146 151 -146 90.5 -87 c 128,-1,26
 30 -28 30 -28 30 50 c 2,27,-1
 30 243 l 1,28,-1
 120 275 l 1,29,-1
 120 56 l 2,30,31
 120 -49 120 -49 276 -49 c 128,-1,32
 432 -49 432 -49 432 56 c 2,33,-1
 432 300 l 1,34,-1
 522 332 l 1,12,-1
EndSplineSet
EndChar

StartChar: uni06bd.ini
Encoding: 218 -1 218
Width: 244
Flags: W
LayerCount: 2
Fore
SplineSet
145 -166 m 5,0,-1
 81 -230 l 5,1,-1
 145 -294 l 5,2,-1
 209 -230 l 5,3,-1
 145 -166 l 5,0,-1
81 -58 m 5,4,-1
 17 -122 l 5,5,-1
 81 -186 l 5,6,-1
 145 -122 l 5,7,-1
 81 -58 l 5,4,-1
209 -58 m 5,8,-1
 145 -122 l 5,9,-1
 209 -186 l 5,10,-1
 273 -122 l 5,11,-1
 209 -58 l 5,8,-1
187 415 m 1,12,-1
 187 138 l 2,13,14
 187 0 187 0 42 0 c 2,15,-1
 0 0 l 1,16,-1
 0 90 l 1,17,-1
 34 90 l 2,18,19
 66 90 66 90 81.5 101.5 c 128,-1,20
 97 113 97 113 97 149 c 2,21,-1
 97 383 l 1,22,-1
 187 415 l 1,12,-1
EndSplineSet
EndChar

StartChar: uni06bd.medi
Encoding: 219 -1 219
Width: 290
Flags: W
LayerCount: 2
Fore
SplineSet
145 -166 m 5,0,-1
 81 -230 l 5,1,-1
 145 -294 l 5,2,-1
 209 -230 l 5,3,-1
 145 -166 l 5,0,-1
81 -58 m 5,4,-1
 17 -122 l 5,5,-1
 81 -186 l 5,6,-1
 145 -122 l 5,7,-1
 81 -58 l 5,4,-1
209 -58 m 5,8,-1
 145 -122 l 5,9,-1
 209 -186 l 5,10,-1
 273 -122 l 5,11,-1
 209 -58 l 5,8,-1
190 415 m 1,12,-1
 190 143 l 2,13,14
 190 121 190 121 207 105.5 c 128,-1,15
 224 90 224 90 248 90 c 2,16,-1
 296 90 l 1,17,-1
 296 0 l 1,18,-1
 248 0 l 2,19,20
 187 0 187 0 145 42 c 1,21,22
 101 0 101 0 42 0 c 2,23,-1
 0 0 l 1,24,-1
 0 90 l 1,25,-1
 42 90 l 2,26,27
 65 90 65 90 82.5 105.5 c 128,-1,28
 100 121 100 121 100 143 c 2,29,-1
 100 383 l 1,30,-1
 190 415 l 1,12,-1
EndSplineSet
EndChar

StartChar: uni0674
Encoding: 220 1652 220
Width: 369
Flags: W
LayerCount: 2
Fore
SplineSet
16.3603515625 129.599609375 m 1,0,-1
 16.3603515625 198 l 1,1,-1
 103.759765625 198 l 1,2,3
 85.5205078125 236.759765625 85.5205078125 236.759765625 85.5205078125 289.959960938 c 0,4,5
 85.5205078125 349.240234375 85.5205078125 349.240234375 124.66015625 397.120117188 c 128,-1,6
 163.799804688 445 163.799804688 445 224.600585938 445 c 2,7,-1
 301.360351562 445 l 1,8,-1
 332.520507812 376.599609375 l 1,9,-1
 224.600585938 376.599609375 l 2,10,11
 193.440429688 376.599609375 193.440429688 376.599609375 173.6796875 350 c 128,-1,12
 153.919921875 323.400390625 153.919921875 323.400390625 153.919921875 289.959960938 c 0,13,14
 153.919921875 198 153.919921875 198 224.600585938 198 c 2,15,-1
 350 198 l 1,16,-1
 350 129.599609375 l 1,17,-1
 16.3603515625 129.599609375 l 1,0,-1
EndSplineSet
EndChar

StartChar: uni0686
Encoding: 221 1670 221
Width: 578
Flags: W
LayerCount: 2
Fore
SplineSet
319 -120 m 5,0,-1
 255 -184 l 5,1,-1
 319 -248 l 5,2,-1
 383 -184 l 5,3,-1
 319 -120 l 5,0,-1
255 -12 m 5,4,-1
 191 -76 l 5,5,-1
 255 -140 l 5,6,-1
 319 -76 l 5,7,-1
 255 -12 l 5,4,-1
383 -12 m 5,8,-1
 319 -76 l 5,9,-1
 383 -140 l 5,10,-1
 447 -76 l 5,11,-1
 383 -12 l 5,8,-1
30 -126 m 0,12,13
 30 -31 30 -31 93 29.5 c 128,-1,14
 156 90 156 90 246 90 c 2,15,-1
 422 90 l 1,16,17
 401 128 401 128 377 216 c 0,18,19
 369 248 369 248 356 270 c 128,-1,20
 343 292 343 292 331 303 c 128,-1,21
 319 314 319 314 298 319.5 c 128,-1,22
 277 325 277 325 263 326 c 128,-1,23
 249 327 249 327 221 327 c 2,24,-1
 154 327 l 1,25,26
 160 342 160 342 170 369.5 c 128,-1,27
 180 397 180 397 186 415 c 1,28,-1
 251 415 l 2,29,30
 286 415 286 415 314.5 408 c 128,-1,31
 343 401 343 401 362.5 392.5 c 128,-1,32
 382 384 382 384 398.5 366 c 128,-1,33
 415 348 415 348 424 336 c 128,-1,34
 433 324 433 324 442.5 299 c 128,-1,35
 452 274 452 274 455.5 262.5 c 128,-1,36
 459 251 459 251 466 224 c 0,37,38
 482 161 482 161 499.5 129.5 c 128,-1,39
 517 98 517 98 550 90 c 1,40,-1
 550 0 l 1,41,-1
 246 0 l 2,42,43
 190 0 190 0 155 -34.5 c 128,-1,44
 120 -69 120 -69 120 -126 c 0,45,46
 120 -184 120 -184 155.5 -222 c 128,-1,47
 191 -260 191 -260 246 -260 c 2,48,-1
 396 -260 l 1,49,-1
 355 -350 l 1,50,-1
 246 -350 l 2,51,52
 153 -350 153 -350 91.5 -287 c 128,-1,53
 30 -224 30 -224 30 -126 c 0,12,13
EndSplineSet
Substitution2: "'fina' Terminal Forms in Arabic lookup 5 subtable" uniFB7B
Substitution2: "'medi' Medial Forms in Arabic lookup 4 subtable" uniFB7D
Substitution2: "'init' Initial Forms in Arabic lookup 3 subtable" uniFB7C
EndChar

StartChar: uniFB7B
Encoding: 222 64379 222
Width: 600
Flags: W
LayerCount: 2
Fore
SplineSet
319 -120 m 5,0,-1
 255 -184 l 5,1,-1
 319 -248 l 5,2,-1
 383 -184 l 5,3,-1
 319 -120 l 5,0,-1
255 -12 m 5,4,-1
 191 -76 l 5,5,-1
 255 -140 l 5,6,-1
 319 -76 l 5,7,-1
 255 -12 l 5,4,-1
383 -12 m 5,8,-1
 319 -76 l 5,9,-1
 383 -140 l 5,10,-1
 447 -76 l 5,11,-1
 383 -12 l 5,8,-1
30 -126 m 0,12,13
 30 -31 30 -31 93 29.5 c 128,-1,14
 156 90 156 90 246 90 c 2,15,-1
 422 90 l 1,16,17
 401 128 401 128 377 216 c 0,18,19
 369 248 369 248 356 270 c 128,-1,20
 343 292 343 292 331 303 c 128,-1,21
 319 314 319 314 298 319.5 c 128,-1,22
 277 325 277 325 263 326 c 128,-1,23
 249 327 249 327 221 327 c 2,24,-1
 154 327 l 1,25,26
 160 342 160 342 170 369.5 c 128,-1,27
 180 397 180 397 186 415 c 1,28,-1
 251 415 l 2,29,30
 286 415 286 415 314.5 408 c 128,-1,31
 343 401 343 401 362.5 392.5 c 128,-1,32
 382 384 382 384 398.5 366 c 128,-1,33
 415 348 415 348 424 336 c 128,-1,34
 433 324 433 324 442.5 299 c 128,-1,35
 452 274 452 274 455.5 262.5 c 128,-1,36
 459 251 459 251 466 224 c 0,37,38
 475 188 475 188 480.5 170.5 c 128,-1,39
 486 153 486 153 496 131 c 128,-1,40
 506 109 506 109 519 99.5 c 128,-1,41
 532 90 532 90 550 90 c 2,42,-1
 607 90 l 1,43,-1
 607 0 l 1,44,-1
 246 0 l 2,45,46
 190 0 190 0 155 -34.5 c 128,-1,47
 120 -69 120 -69 120 -126 c 0,48,49
 120 -184 120 -184 155.5 -222 c 128,-1,50
 191 -260 191 -260 246 -260 c 2,51,-1
 396 -260 l 1,52,-1
 355 -350 l 1,53,-1
 246 -350 l 2,54,55
 153 -350 153 -350 91.5 -287 c 128,-1,56
 30 -224 30 -224 30 -126 c 0,12,13
EndSplineSet
EndChar

StartChar: uniFB7C
Encoding: 223 64380 223
Width: 511
Flags: W
LayerCount: 2
Fore
SplineSet
203 -166 m 5,0,-1
 139 -230 l 5,1,-1
 203 -294 l 5,2,-1
 267 -230 l 5,3,-1
 203 -166 l 5,0,-1
139 -58 m 5,4,-1
 75 -122 l 5,5,-1
 139 -186 l 5,6,-1
 203 -122 l 5,7,-1
 139 -58 l 5,4,-1
267 -58 m 5,8,-1
 203 -122 l 5,9,-1
 267 -186 l 5,10,-1
 331 -122 l 5,11,-1
 267 -58 l 5,8,-1
480 0 m 1,12,-1
 0 0 l 1,13,-1
 0 90 l 1,14,-1
 352 90 l 1,15,16
 331 128 331 128 307 216 c 0,17,18
 299 248 299 248 286 270 c 128,-1,19
 273 292 273 292 261 303 c 128,-1,20
 249 314 249 314 228 319.5 c 128,-1,21
 207 325 207 325 193 326 c 128,-1,22
 179 327 179 327 151 327 c 2,23,-1
 84 327 l 1,24,25
 90 342 90 342 100 369.5 c 128,-1,26
 110 397 110 397 116 415 c 1,27,-1
 181 415 l 2,28,29
 216 415 216 415 244.5 408 c 128,-1,30
 273 401 273 401 292.5 392.5 c 128,-1,31
 312 384 312 384 328.5 366 c 128,-1,32
 345 348 345 348 354 336 c 128,-1,33
 363 324 363 324 372.5 299 c 128,-1,34
 382 274 382 274 385.5 262.5 c 128,-1,35
 389 251 389 251 396 224 c 0,36,37
 412 161 412 161 429.5 129.5 c 128,-1,38
 447 98 447 98 480 90 c 1,39,-1
 480 0 l 1,12,-1
EndSplineSet
EndChar

StartChar: uniFB7D
Encoding: 224 64381 224
Width: 535
Flags: W
LayerCount: 2
Fore
SplineSet
203 -166 m 5,0,-1
 139 -230 l 5,1,-1
 203 -294 l 5,2,-1
 267 -230 l 5,3,-1
 203 -166 l 5,0,-1
139 -58 m 5,4,-1
 75 -122 l 5,5,-1
 139 -186 l 5,6,-1
 203 -122 l 5,7,-1
 139 -58 l 5,4,-1
267 -58 m 5,8,-1
 203 -122 l 5,9,-1
 267 -186 l 5,10,-1
 331 -122 l 5,11,-1
 267 -58 l 5,8,-1
545 0 m 1,12,-1
 0 0 l 1,13,-1
 0 90 l 1,14,-1
 360 90 l 1,15,16
 339 128 339 128 315 216 c 0,17,18
 307 248 307 248 294 270 c 128,-1,19
 281 292 281 292 269 303 c 128,-1,20
 257 314 257 314 236 319.5 c 128,-1,21
 215 325 215 325 201 326 c 128,-1,22
 187 327 187 327 159 327 c 2,23,-1
 92 327 l 1,24,25
 98 342 98 342 108 369.5 c 128,-1,26
 118 397 118 397 124 415 c 1,27,-1
 189 415 l 2,28,29
 224 415 224 415 252.5 408 c 128,-1,30
 281 401 281 401 300.5 392.5 c 128,-1,31
 320 384 320 384 336.5 366 c 128,-1,32
 353 348 353 348 362 336 c 128,-1,33
 371 324 371 324 380.5 299 c 128,-1,34
 390 274 390 274 393.5 262.5 c 128,-1,35
 397 251 397 251 404 224 c 0,36,37
 421 159 421 159 441 124.5 c 128,-1,38
 461 90 461 90 494 90 c 2,39,-1
 545 90 l 1,40,-1
 545 0 l 1,12,-1
EndSplineSet
EndChar

StartChar: uni204f
Encoding: 225 8271 225
Width: 257
Flags: W
LayerCount: 2
Fore
SplineSet
199 311 m 0,0,1
 199 287 199 287 182.5 270.5 c 128,-1,2
 166 254 166 254 142 254 c 128,-1,3
 118 254 118 254 101 270.5 c 128,-1,4
 84 287 84 287 84 311 c 0,5,6
 84 336 84 336 101 352.5 c 128,-1,7
 118 369 118 369 142 369 c 128,-1,8
 166 369 166 369 182.5 352.5 c 128,-1,9
 199 336 199 336 199 311 c 0,0,1
143.474609375 105 m 4,10,11
 119 105 119 105 103.474609375 86 c 4,12,13
 87 67 87 67 87.474609375 36 c 4,14,15
 87 -46 87 -46 186.474609375 -138 c 5,16,-1
 222.474609375 -105 l 5,17,18
 171 -51 171 -51 171.474609375 -10 c 4,19,20
 171 8 171 8 183.474609375 23 c 4,21,22
 195 39 195 39 195.474609375 54 c 4,23,24
 195 74 195 74 180.474609375 89.5 c 4,25,26
 165 105 165 105 143.474609375 105 c 4,10,11
EndSplineSet
EndChar

StartChar: uni2e41
Encoding: 226 11841 226
Width: 257
Flags: W
LayerCount: 2
Fore
SplineSet
143.474609375 105 m 4,0,1
 119 105 119 105 103.474609375 86 c 4,2,3
 87 67 87 67 87.474609375 36 c 4,4,5
 87 -46 87 -46 186.474609375 -138 c 5,6,-1
 222.474609375 -105 l 5,7,8
 171 -51 171 -51 171.474609375 -10 c 4,9,10
 171 8 171 8 183.474609375 23 c 4,11,12
 195 39 195 39 195.474609375 54 c 4,13,14
 195 74 195 74 180.474609375 89.5 c 4,15,16
 165 105 165 105 143.474609375 105 c 4,0,1
EndSplineSet
EndChar
